<mxfile host="app.diagrams.net" agent="Mozilla/5.0 (Macintosh; Intel Mac OS X 10_15_7) AppleWebKit/537.36 (KHTML, like Gecko) Chrome/129.0.0.0 Safari/537.36" version="24.8.4">
  <diagram id="H3SxZ43efbbaYmBA8pNz" name="第 1 页">
    <mxGraphModel dx="2403" dy="2487" grid="1" gridSize="10" guides="1" tooltips="1" connect="1" arrows="1" fold="1" page="1" pageScale="1" pageWidth="827" pageHeight="1169" math="0" shadow="0">
      <root>
        <mxCell id="0" />
        <mxCell id="1" parent="0" />
        <mxCell id="YBp6OHNmCgB0oo-ofbhE-437" value="" style="rounded=0;whiteSpace=wrap;html=1;fontFamily=Georgia;fontSize=22;strokeColor=#000000;fillColor=none;dashed=1;" vertex="1" parent="1">
          <mxGeometry x="410" y="339.21" width="200.22" height="503.35" as="geometry" />
        </mxCell>
        <mxCell id="YBp6OHNmCgB0oo-ofbhE-438" value="" style="group" vertex="1" connectable="0" parent="1">
          <mxGeometry x="702.08" y="499.18" width="202.70999999999992" height="300.00000000000006" as="geometry" />
        </mxCell>
        <mxCell id="YBp6OHNmCgB0oo-ofbhE-439" value="" style="shape=sumEllipse;perimeter=ellipsePerimeter;whiteSpace=wrap;html=1;backgroundOutline=1;" vertex="1" parent="YBp6OHNmCgB0oo-ofbhE-438">
          <mxGeometry x="20.64000000000004" y="95.82" width="10" height="10" as="geometry" />
        </mxCell>
        <mxCell id="YBp6OHNmCgB0oo-ofbhE-440" value="" style="shape=sumEllipse;perimeter=ellipsePerimeter;whiteSpace=wrap;html=1;backgroundOutline=1;" vertex="1" parent="YBp6OHNmCgB0oo-ofbhE-438">
          <mxGeometry x="112" y="95.82" width="10" height="10" as="geometry" />
        </mxCell>
        <mxCell id="YBp6OHNmCgB0oo-ofbhE-441" value="" style="endArrow=classic;html=1;rounded=0;fontFamily=Georgia;fontSize=11;strokeColor=#000000;exitX=0.5;exitY=0;exitDx=0;exitDy=0;entryX=0.547;entryY=0.143;entryDx=0;entryDy=0;entryPerimeter=0;" edge="1" parent="YBp6OHNmCgB0oo-ofbhE-438">
          <mxGeometry width="50" height="50" relative="1" as="geometry">
            <mxPoint x="117.12999999999988" y="95.8200000000001" as="sourcePoint" />
            <mxPoint x="116.86999999999966" y="81.75999999999993" as="targetPoint" />
          </mxGeometry>
        </mxCell>
        <mxCell id="YBp6OHNmCgB0oo-ofbhE-442" value="&lt;font style=&quot;font-size: 22px;&quot;&gt;……&lt;/font&gt;" style="text;html=1;strokeColor=none;fillColor=none;align=center;verticalAlign=middle;whiteSpace=wrap;rounded=0;fontFamily=Georgia;fontSize=11;" vertex="1" parent="YBp6OHNmCgB0oo-ofbhE-438">
          <mxGeometry x="66.75" y="170.00000000000006" width="60" height="30" as="geometry" />
        </mxCell>
        <mxCell id="YBp6OHNmCgB0oo-ofbhE-443" value="" style="shape=curlyBracket;whiteSpace=wrap;html=1;rounded=1;flipH=1;fontSize=22;strokeColor=#000000;fillColor=#000000;rotation=-90;size=0.5;" vertex="1" parent="YBp6OHNmCgB0oo-ofbhE-438">
          <mxGeometry x="30.639999999999873" y="-39.18000000000001" width="20" height="215.17" as="geometry" />
        </mxCell>
        <mxCell id="YBp6OHNmCgB0oo-ofbhE-444" value="" style="endArrow=classic;html=1;rounded=0;fontSize=11;exitX=0.5;exitY=0;exitDx=0;exitDy=0;entryX=0;entryY=1;entryDx=0;entryDy=0;" edge="1" parent="YBp6OHNmCgB0oo-ofbhE-438" source="YBp6OHNmCgB0oo-ofbhE-458" target="YBp6OHNmCgB0oo-ofbhE-453">
          <mxGeometry width="50" height="50" relative="1" as="geometry">
            <mxPoint x="43.05999999999991" y="25" as="sourcePoint" />
            <mxPoint x="43.05999999999991" as="targetPoint" />
          </mxGeometry>
        </mxCell>
        <mxCell id="YBp6OHNmCgB0oo-ofbhE-445" value="" style="group;fontStyle=1" vertex="1" connectable="0" parent="YBp6OHNmCgB0oo-ofbhE-438">
          <mxGeometry x="2.7100000000000026" y="-40.19" width="80" height="10" as="geometry" />
        </mxCell>
        <mxCell id="YBp6OHNmCgB0oo-ofbhE-446" value="" style="group;fillColor=#dae8fc;strokeColor=#6c8ebf;fontStyle=1" vertex="1" connectable="0" parent="YBp6OHNmCgB0oo-ofbhE-445">
          <mxGeometry width="40" height="10" as="geometry" />
        </mxCell>
        <mxCell id="YBp6OHNmCgB0oo-ofbhE-447" value="" style="rounded=0;whiteSpace=wrap;html=1;fontSize=22;strokeColor=#82b366;fillColor=#d5e8d4;fontStyle=1" vertex="1" parent="YBp6OHNmCgB0oo-ofbhE-446">
          <mxGeometry width="10" height="10" as="geometry" />
        </mxCell>
        <mxCell id="YBp6OHNmCgB0oo-ofbhE-448" style="edgeStyle=none;rounded=0;orthogonalLoop=1;jettySize=auto;html=1;exitX=1;exitY=1;exitDx=0;exitDy=0;fontSize=22;strokeColor=none;fontStyle=1" edge="1" parent="YBp6OHNmCgB0oo-ofbhE-446" source="YBp6OHNmCgB0oo-ofbhE-447" target="YBp6OHNmCgB0oo-ofbhE-447">
          <mxGeometry relative="1" as="geometry" />
        </mxCell>
        <mxCell id="YBp6OHNmCgB0oo-ofbhE-449" value="" style="rounded=0;whiteSpace=wrap;html=1;fontSize=22;strokeColor=#6c8ebf;fillColor=#dae8fc;fontStyle=1" vertex="1" parent="YBp6OHNmCgB0oo-ofbhE-446">
          <mxGeometry x="10" width="10" height="10" as="geometry" />
        </mxCell>
        <mxCell id="YBp6OHNmCgB0oo-ofbhE-450" value="" style="rounded=0;whiteSpace=wrap;html=1;fontSize=22;strokeColor=#82b366;fillColor=#d5e8d4;fontStyle=1" vertex="1" parent="YBp6OHNmCgB0oo-ofbhE-446">
          <mxGeometry x="20" width="10" height="10" as="geometry" />
        </mxCell>
        <mxCell id="YBp6OHNmCgB0oo-ofbhE-451" value="" style="rounded=0;whiteSpace=wrap;html=1;fontSize=22;strokeColor=#6c8ebf;fillColor=#dae8fc;fontStyle=1" vertex="1" parent="YBp6OHNmCgB0oo-ofbhE-446">
          <mxGeometry x="30" width="10" height="10" as="geometry" />
        </mxCell>
        <mxCell id="YBp6OHNmCgB0oo-ofbhE-452" value="" style="group;fillColor=#dae8fc;strokeColor=#6c8ebf;fontStyle=1" vertex="1" connectable="0" parent="YBp6OHNmCgB0oo-ofbhE-445">
          <mxGeometry x="40" width="40" height="10" as="geometry" />
        </mxCell>
        <mxCell id="YBp6OHNmCgB0oo-ofbhE-453" value="" style="rounded=0;whiteSpace=wrap;html=1;fontSize=22;strokeColor=#82b366;fillColor=#d5e8d4;fontStyle=1" vertex="1" parent="YBp6OHNmCgB0oo-ofbhE-452">
          <mxGeometry width="10" height="10" as="geometry" />
        </mxCell>
        <mxCell id="YBp6OHNmCgB0oo-ofbhE-454" style="edgeStyle=none;rounded=0;orthogonalLoop=1;jettySize=auto;html=1;exitX=1;exitY=1;exitDx=0;exitDy=0;fontSize=22;strokeColor=none;fontStyle=1" edge="1" parent="YBp6OHNmCgB0oo-ofbhE-452" source="YBp6OHNmCgB0oo-ofbhE-453" target="YBp6OHNmCgB0oo-ofbhE-453">
          <mxGeometry relative="1" as="geometry" />
        </mxCell>
        <mxCell id="YBp6OHNmCgB0oo-ofbhE-455" value="" style="rounded=0;whiteSpace=wrap;html=1;fontSize=22;strokeColor=#6c8ebf;fillColor=#dae8fc;fontStyle=1" vertex="1" parent="YBp6OHNmCgB0oo-ofbhE-452">
          <mxGeometry x="10" width="10" height="10" as="geometry" />
        </mxCell>
        <mxCell id="YBp6OHNmCgB0oo-ofbhE-456" value="" style="rounded=0;whiteSpace=wrap;html=1;fontSize=22;strokeColor=#82b366;fillColor=#d5e8d4;fontStyle=1" vertex="1" parent="YBp6OHNmCgB0oo-ofbhE-452">
          <mxGeometry x="20" width="10" height="10" as="geometry" />
        </mxCell>
        <mxCell id="YBp6OHNmCgB0oo-ofbhE-457" value="" style="rounded=0;whiteSpace=wrap;html=1;fontSize=22;strokeColor=#6c8ebf;fillColor=#dae8fc;fontStyle=1" vertex="1" parent="YBp6OHNmCgB0oo-ofbhE-452">
          <mxGeometry x="30" width="10" height="10" as="geometry" />
        </mxCell>
        <mxCell id="YBp6OHNmCgB0oo-ofbhE-458" value="&lt;font style=&quot;font-size: 11px;&quot;&gt;concat&lt;/font&gt;" style="rounded=1;whiteSpace=wrap;html=1;fontSize=11;strokeColor=#000000;fillColor=none;" vertex="1" parent="YBp6OHNmCgB0oo-ofbhE-438">
          <mxGeometry x="19.629999999999917" y="40.00000000000006" width="45" height="20" as="geometry" />
        </mxCell>
        <mxCell id="YBp6OHNmCgB0oo-ofbhE-459" style="rounded=0;orthogonalLoop=1;jettySize=auto;html=1;exitX=0;exitY=0;exitDx=0;exitDy=0;entryX=0.5;entryY=1;entryDx=0;entryDy=0;fontFamily=Times New Roman;fontColor=#FF0000;" edge="1" parent="YBp6OHNmCgB0oo-ofbhE-438" source="YBp6OHNmCgB0oo-ofbhE-453" target="YBp6OHNmCgB0oo-ofbhE-460">
          <mxGeometry relative="1" as="geometry">
            <mxPoint x="-70.54000000000016" y="-52.529999999999916" as="sourcePoint" />
            <mxPoint x="-0.7989321881343212" y="-97.95893218813438" as="targetPoint" />
          </mxGeometry>
        </mxCell>
        <mxCell id="YBp6OHNmCgB0oo-ofbhE-460" value="" style="shape=sumEllipse;perimeter=ellipsePerimeter;whiteSpace=wrap;html=1;backgroundOutline=1;strokeColor=#000000;fontFamily=Times New Roman;fontColor=#000000;" vertex="1" parent="YBp6OHNmCgB0oo-ofbhE-438">
          <mxGeometry x="32.12999999999992" y="-115.03000000000003" width="20" height="20" as="geometry" />
        </mxCell>
        <mxCell id="YBp6OHNmCgB0oo-ofbhE-461" value="" style="group;fontStyle=1" vertex="1" connectable="0" parent="YBp6OHNmCgB0oo-ofbhE-438">
          <mxGeometry x="2.129999999999919" y="-149.18" width="80" height="10" as="geometry" />
        </mxCell>
        <mxCell id="YBp6OHNmCgB0oo-ofbhE-462" value="" style="group;fillColor=#dae8fc;strokeColor=#6c8ebf;fontStyle=1" vertex="1" connectable="0" parent="YBp6OHNmCgB0oo-ofbhE-461">
          <mxGeometry width="40" height="10" as="geometry" />
        </mxCell>
        <mxCell id="YBp6OHNmCgB0oo-ofbhE-463" value="" style="rounded=0;whiteSpace=wrap;html=1;fontSize=22;strokeColor=#82b366;fillColor=#d5e8d4;fontStyle=1" vertex="1" parent="YBp6OHNmCgB0oo-ofbhE-462">
          <mxGeometry width="10" height="10" as="geometry" />
        </mxCell>
        <mxCell id="YBp6OHNmCgB0oo-ofbhE-464" style="edgeStyle=none;rounded=0;orthogonalLoop=1;jettySize=auto;html=1;exitX=1;exitY=1;exitDx=0;exitDy=0;fontSize=22;strokeColor=none;fontStyle=1" edge="1" parent="YBp6OHNmCgB0oo-ofbhE-462" source="YBp6OHNmCgB0oo-ofbhE-463" target="YBp6OHNmCgB0oo-ofbhE-463">
          <mxGeometry relative="1" as="geometry" />
        </mxCell>
        <mxCell id="YBp6OHNmCgB0oo-ofbhE-465" value="" style="rounded=0;whiteSpace=wrap;html=1;fontSize=22;strokeColor=#6c8ebf;fillColor=#dae8fc;fontStyle=1" vertex="1" parent="YBp6OHNmCgB0oo-ofbhE-462">
          <mxGeometry x="10" width="10" height="10" as="geometry" />
        </mxCell>
        <mxCell id="YBp6OHNmCgB0oo-ofbhE-466" value="" style="rounded=0;whiteSpace=wrap;html=1;fontSize=22;strokeColor=#82b366;fillColor=#d5e8d4;fontStyle=1" vertex="1" parent="YBp6OHNmCgB0oo-ofbhE-462">
          <mxGeometry x="20" width="10" height="10" as="geometry" />
        </mxCell>
        <mxCell id="YBp6OHNmCgB0oo-ofbhE-467" value="" style="rounded=0;whiteSpace=wrap;html=1;fontSize=22;strokeColor=#6c8ebf;fillColor=#dae8fc;fontStyle=1" vertex="1" parent="YBp6OHNmCgB0oo-ofbhE-462">
          <mxGeometry x="30" width="10" height="10" as="geometry" />
        </mxCell>
        <mxCell id="YBp6OHNmCgB0oo-ofbhE-468" value="" style="group;fillColor=#dae8fc;strokeColor=#6c8ebf;fontStyle=1" vertex="1" connectable="0" parent="YBp6OHNmCgB0oo-ofbhE-461">
          <mxGeometry x="40" width="40" height="10" as="geometry" />
        </mxCell>
        <mxCell id="YBp6OHNmCgB0oo-ofbhE-469" value="" style="rounded=0;whiteSpace=wrap;html=1;fontSize=22;strokeColor=#82b366;fillColor=#d5e8d4;fontStyle=1" vertex="1" parent="YBp6OHNmCgB0oo-ofbhE-468">
          <mxGeometry width="10" height="10" as="geometry" />
        </mxCell>
        <mxCell id="YBp6OHNmCgB0oo-ofbhE-470" style="edgeStyle=none;rounded=0;orthogonalLoop=1;jettySize=auto;html=1;exitX=1;exitY=1;exitDx=0;exitDy=0;fontSize=22;strokeColor=none;fontStyle=1" edge="1" parent="YBp6OHNmCgB0oo-ofbhE-468" source="YBp6OHNmCgB0oo-ofbhE-469" target="YBp6OHNmCgB0oo-ofbhE-469">
          <mxGeometry relative="1" as="geometry" />
        </mxCell>
        <mxCell id="YBp6OHNmCgB0oo-ofbhE-471" value="" style="rounded=0;whiteSpace=wrap;html=1;fontSize=22;strokeColor=#6c8ebf;fillColor=#dae8fc;fontStyle=1" vertex="1" parent="YBp6OHNmCgB0oo-ofbhE-468">
          <mxGeometry x="10" width="10" height="10" as="geometry" />
        </mxCell>
        <mxCell id="YBp6OHNmCgB0oo-ofbhE-472" value="" style="rounded=0;whiteSpace=wrap;html=1;fontSize=22;strokeColor=#82b366;fillColor=#d5e8d4;fontStyle=1" vertex="1" parent="YBp6OHNmCgB0oo-ofbhE-468">
          <mxGeometry x="20" width="10" height="10" as="geometry" />
        </mxCell>
        <mxCell id="YBp6OHNmCgB0oo-ofbhE-473" value="" style="rounded=0;whiteSpace=wrap;html=1;fontSize=22;strokeColor=#6c8ebf;fillColor=#dae8fc;fontStyle=1" vertex="1" parent="YBp6OHNmCgB0oo-ofbhE-468">
          <mxGeometry x="30" width="10" height="10" as="geometry" />
        </mxCell>
        <mxCell id="YBp6OHNmCgB0oo-ofbhE-474" style="edgeStyle=orthogonalEdgeStyle;curved=1;rounded=0;orthogonalLoop=1;jettySize=auto;html=1;exitX=0.5;exitY=0;exitDx=0;exitDy=0;entryX=1;entryY=1;entryDx=0;entryDy=0;fontFamily=Times New Roman;fontColor=#000000;" edge="1" parent="YBp6OHNmCgB0oo-ofbhE-438" source="YBp6OHNmCgB0oo-ofbhE-460" target="YBp6OHNmCgB0oo-ofbhE-467">
          <mxGeometry relative="1" as="geometry" />
        </mxCell>
        <mxCell id="YBp6OHNmCgB0oo-ofbhE-475" value="&lt;font face=&quot;Helvetica&quot; color=&quot;#ff8000&quot;&gt;&lt;span style=&quot;font-size: 12px;&quot;&gt;券门槛—TOP核销店铺 &lt;b&gt;Coupon-Shop&lt;/b&gt; 序列&lt;/span&gt;&lt;/font&gt;" style="text;html=1;strokeColor=none;fillColor=none;align=center;verticalAlign=middle;whiteSpace=wrap;rounded=0;dashed=1;fontFamily=Georgia;fontSize=22;" vertex="1" parent="YBp6OHNmCgB0oo-ofbhE-438">
          <mxGeometry x="-68.08000000000015" y="240.8200000000001" width="256" height="30" as="geometry" />
        </mxCell>
        <mxCell id="YBp6OHNmCgB0oo-ofbhE-476" value="" style="rounded=0;whiteSpace=wrap;html=1;fontFamily=Georgia;fontSize=22;strokeColor=#000000;fillColor=none;dashed=1;" vertex="1" parent="YBp6OHNmCgB0oo-ofbhE-438">
          <mxGeometry x="-80" y="10" width="267.92" height="271.64" as="geometry" />
        </mxCell>
        <mxCell id="YBp6OHNmCgB0oo-ofbhE-477" value="All Features Embedding" style="rounded=0;whiteSpace=wrap;html=1;fillColor=#fff2cc;strokeColor=#d6b656;gradientColor=#ffd966;" vertex="1" parent="1">
          <mxGeometry x="220" y="310" width="1240" height="20" as="geometry" />
        </mxCell>
        <mxCell id="YBp6OHNmCgB0oo-ofbhE-478" value="" style="group" vertex="1" connectable="0" parent="1">
          <mxGeometry x="1301" y="330" width="135" height="200" as="geometry" />
        </mxCell>
        <mxCell id="YBp6OHNmCgB0oo-ofbhE-479" value="" style="group" vertex="1" connectable="0" parent="YBp6OHNmCgB0oo-ofbhE-478">
          <mxGeometry x="5" width="50" height="165" as="geometry" />
        </mxCell>
        <mxCell id="YBp6OHNmCgB0oo-ofbhE-480" value="" style="group" vertex="1" connectable="0" parent="YBp6OHNmCgB0oo-ofbhE-479">
          <mxGeometry y="25" width="50" height="65" as="geometry" />
        </mxCell>
        <mxCell id="YBp6OHNmCgB0oo-ofbhE-481" value="" style="group" vertex="1" connectable="0" parent="YBp6OHNmCgB0oo-ofbhE-480">
          <mxGeometry x="5" width="40" height="10" as="geometry" />
        </mxCell>
        <mxCell id="YBp6OHNmCgB0oo-ofbhE-482" value="" style="rounded=0;whiteSpace=wrap;html=1;fontSize=22;strokeColor=none;fillColor=#000000;" vertex="1" parent="YBp6OHNmCgB0oo-ofbhE-481">
          <mxGeometry width="10" height="10" as="geometry" />
        </mxCell>
        <mxCell id="YBp6OHNmCgB0oo-ofbhE-483" style="edgeStyle=none;rounded=0;orthogonalLoop=1;jettySize=auto;html=1;exitX=1;exitY=1;exitDx=0;exitDy=0;fontSize=22;strokeColor=none;" edge="1" parent="YBp6OHNmCgB0oo-ofbhE-481" source="YBp6OHNmCgB0oo-ofbhE-482" target="YBp6OHNmCgB0oo-ofbhE-482">
          <mxGeometry relative="1" as="geometry" />
        </mxCell>
        <mxCell id="YBp6OHNmCgB0oo-ofbhE-484" value="" style="rounded=0;whiteSpace=wrap;html=1;fontSize=22;strokeColor=none;fillColor=#BFBFBF;" vertex="1" parent="YBp6OHNmCgB0oo-ofbhE-481">
          <mxGeometry x="10" width="10" height="10" as="geometry" />
        </mxCell>
        <mxCell id="YBp6OHNmCgB0oo-ofbhE-485" value="" style="rounded=0;whiteSpace=wrap;html=1;fontSize=22;strokeColor=none;fillColor=#000000;" vertex="1" parent="YBp6OHNmCgB0oo-ofbhE-481">
          <mxGeometry x="20" width="10" height="10" as="geometry" />
        </mxCell>
        <mxCell id="YBp6OHNmCgB0oo-ofbhE-486" value="" style="rounded=0;whiteSpace=wrap;html=1;fontSize=22;strokeColor=none;fillColor=#BFBFBF;" vertex="1" parent="YBp6OHNmCgB0oo-ofbhE-481">
          <mxGeometry x="30" width="10" height="10" as="geometry" />
        </mxCell>
        <mxCell id="YBp6OHNmCgB0oo-ofbhE-487" value="" style="shape=curlyBracket;whiteSpace=wrap;html=1;rounded=1;flipH=1;fontSize=22;strokeColor=#000000;fillColor=#000000;rotation=-90;size=0.5;" vertex="1" parent="YBp6OHNmCgB0oo-ofbhE-480">
          <mxGeometry x="15" y="30" width="20" height="50" as="geometry" />
        </mxCell>
        <mxCell id="YBp6OHNmCgB0oo-ofbhE-488" value="&lt;font style=&quot;font-size: 11px;&quot;&gt;concat&lt;/font&gt;" style="rounded=1;whiteSpace=wrap;html=1;fontSize=11;strokeColor=#000000;fillColor=none;" vertex="1" parent="YBp6OHNmCgB0oo-ofbhE-480">
          <mxGeometry x="2.5" y="20" width="45" height="20" as="geometry" />
        </mxCell>
        <mxCell id="YBp6OHNmCgB0oo-ofbhE-489" value="" style="rounded=0;whiteSpace=wrap;html=1;fontSize=22;strokeColor=none;fillColor=#000000;" vertex="1" parent="YBp6OHNmCgB0oo-ofbhE-479">
          <mxGeometry x="10" y="90" width="10" height="10" as="geometry" />
        </mxCell>
        <mxCell id="YBp6OHNmCgB0oo-ofbhE-490" value="" style="rounded=0;whiteSpace=wrap;html=1;fontSize=22;strokeColor=none;fillColor=#BFBFBF;" vertex="1" parent="YBp6OHNmCgB0oo-ofbhE-479">
          <mxGeometry x="10" y="100" width="10" height="10" as="geometry" />
        </mxCell>
        <mxCell id="YBp6OHNmCgB0oo-ofbhE-491" value="" style="rounded=0;whiteSpace=wrap;html=1;fontSize=22;strokeColor=none;fillColor=#000000;" vertex="1" parent="YBp6OHNmCgB0oo-ofbhE-479">
          <mxGeometry x="10" y="110" width="10" height="10" as="geometry" />
        </mxCell>
        <mxCell id="YBp6OHNmCgB0oo-ofbhE-492" value="" style="rounded=0;whiteSpace=wrap;html=1;fontSize=22;strokeColor=none;fillColor=#BFBFBF;" vertex="1" parent="YBp6OHNmCgB0oo-ofbhE-479">
          <mxGeometry x="10" y="120" width="10" height="10" as="geometry" />
        </mxCell>
        <mxCell id="YBp6OHNmCgB0oo-ofbhE-493" value="" style="rounded=0;whiteSpace=wrap;html=1;fontSize=22;strokeColor=none;fillColor=#000000;" vertex="1" parent="YBp6OHNmCgB0oo-ofbhE-479">
          <mxGeometry x="30" y="90" width="10" height="10" as="geometry" />
        </mxCell>
        <mxCell id="YBp6OHNmCgB0oo-ofbhE-494" value="" style="rounded=0;whiteSpace=wrap;html=1;fontSize=22;strokeColor=none;fillColor=#BFBFBF;" vertex="1" parent="YBp6OHNmCgB0oo-ofbhE-479">
          <mxGeometry x="30" y="100" width="10" height="10" as="geometry" />
        </mxCell>
        <mxCell id="YBp6OHNmCgB0oo-ofbhE-495" value="" style="rounded=0;whiteSpace=wrap;html=1;fontSize=22;strokeColor=none;fillColor=#000000;" vertex="1" parent="YBp6OHNmCgB0oo-ofbhE-479">
          <mxGeometry x="30" y="110" width="10" height="15" as="geometry" />
        </mxCell>
        <mxCell id="YBp6OHNmCgB0oo-ofbhE-496" value="" style="rounded=0;whiteSpace=wrap;html=1;fontSize=22;strokeColor=none;fillColor=#BFBFBF;" vertex="1" parent="YBp6OHNmCgB0oo-ofbhE-479">
          <mxGeometry x="30" y="120" width="10" height="10" as="geometry" />
        </mxCell>
        <mxCell id="YBp6OHNmCgB0oo-ofbhE-497" value="" style="ellipse;whiteSpace=wrap;html=1;aspect=fixed;fontSize=11;strokeColor=#000000;fillColor=none;" vertex="1" parent="YBp6OHNmCgB0oo-ofbhE-479">
          <mxGeometry x="10" y="155" width="10" height="10" as="geometry" />
        </mxCell>
        <mxCell id="YBp6OHNmCgB0oo-ofbhE-498" value="" style="ellipse;whiteSpace=wrap;html=1;aspect=fixed;fontSize=11;strokeColor=#000000;fillColor=none;" vertex="1" parent="YBp6OHNmCgB0oo-ofbhE-479">
          <mxGeometry x="30" y="155" width="10" height="10" as="geometry" />
        </mxCell>
        <mxCell id="YBp6OHNmCgB0oo-ofbhE-499" value="" style="endArrow=classic;html=1;rounded=0;fontSize=11;exitX=0.5;exitY=0;exitDx=0;exitDy=0;entryX=0.5;entryY=1;entryDx=0;entryDy=0;" edge="1" parent="YBp6OHNmCgB0oo-ofbhE-479" source="YBp6OHNmCgB0oo-ofbhE-497" target="YBp6OHNmCgB0oo-ofbhE-492">
          <mxGeometry width="50" height="50" relative="1" as="geometry">
            <mxPoint x="-20" y="65" as="sourcePoint" />
            <mxPoint x="30" y="15" as="targetPoint" />
          </mxGeometry>
        </mxCell>
        <mxCell id="YBp6OHNmCgB0oo-ofbhE-500" value="" style="endArrow=classic;html=1;rounded=0;fontSize=11;exitX=0.5;exitY=0;exitDx=0;exitDy=0;entryX=0.5;entryY=1;entryDx=0;entryDy=0;" edge="1" parent="YBp6OHNmCgB0oo-ofbhE-479" source="YBp6OHNmCgB0oo-ofbhE-498" target="YBp6OHNmCgB0oo-ofbhE-496">
          <mxGeometry width="50" height="50" relative="1" as="geometry">
            <mxPoint x="34.81999999999999" y="155" as="sourcePoint" />
            <mxPoint x="34.81999999999999" y="130" as="targetPoint" />
          </mxGeometry>
        </mxCell>
        <mxCell id="YBp6OHNmCgB0oo-ofbhE-501" value="" style="endArrow=classic;html=1;rounded=0;fontSize=11;exitX=0.5;exitY=0;exitDx=0;exitDy=0;entryX=0.5;entryY=1;entryDx=0;entryDy=0;" edge="1" parent="YBp6OHNmCgB0oo-ofbhE-479">
          <mxGeometry width="50" height="50" relative="1" as="geometry">
            <mxPoint x="24.84999999999991" y="25" as="sourcePoint" />
            <mxPoint x="24.84999999999991" as="targetPoint" />
          </mxGeometry>
        </mxCell>
        <mxCell id="YBp6OHNmCgB0oo-ofbhE-502" value="" style="group" vertex="1" connectable="0" parent="YBp6OHNmCgB0oo-ofbhE-478">
          <mxGeometry x="75" width="50" height="165" as="geometry" />
        </mxCell>
        <mxCell id="YBp6OHNmCgB0oo-ofbhE-503" value="" style="group" vertex="1" connectable="0" parent="YBp6OHNmCgB0oo-ofbhE-502">
          <mxGeometry y="25" width="50" height="65" as="geometry" />
        </mxCell>
        <mxCell id="YBp6OHNmCgB0oo-ofbhE-504" value="" style="group" vertex="1" connectable="0" parent="YBp6OHNmCgB0oo-ofbhE-503">
          <mxGeometry x="5" width="40" height="10" as="geometry" />
        </mxCell>
        <mxCell id="YBp6OHNmCgB0oo-ofbhE-505" value="" style="rounded=0;whiteSpace=wrap;html=1;fontSize=22;strokeColor=none;fillColor=#000000;" vertex="1" parent="YBp6OHNmCgB0oo-ofbhE-504">
          <mxGeometry width="10" height="10" as="geometry" />
        </mxCell>
        <mxCell id="YBp6OHNmCgB0oo-ofbhE-506" style="edgeStyle=none;rounded=0;orthogonalLoop=1;jettySize=auto;html=1;exitX=1;exitY=1;exitDx=0;exitDy=0;fontSize=22;strokeColor=none;" edge="1" parent="YBp6OHNmCgB0oo-ofbhE-504" source="YBp6OHNmCgB0oo-ofbhE-505" target="YBp6OHNmCgB0oo-ofbhE-505">
          <mxGeometry relative="1" as="geometry" />
        </mxCell>
        <mxCell id="YBp6OHNmCgB0oo-ofbhE-507" value="" style="rounded=0;whiteSpace=wrap;html=1;fontSize=22;strokeColor=none;fillColor=#BFBFBF;" vertex="1" parent="YBp6OHNmCgB0oo-ofbhE-504">
          <mxGeometry x="10" width="10" height="10" as="geometry" />
        </mxCell>
        <mxCell id="YBp6OHNmCgB0oo-ofbhE-508" value="" style="rounded=0;whiteSpace=wrap;html=1;fontSize=22;strokeColor=none;fillColor=#000000;" vertex="1" parent="YBp6OHNmCgB0oo-ofbhE-504">
          <mxGeometry x="20" width="10" height="10" as="geometry" />
        </mxCell>
        <mxCell id="YBp6OHNmCgB0oo-ofbhE-509" value="" style="rounded=0;whiteSpace=wrap;html=1;fontSize=22;strokeColor=none;fillColor=#BFBFBF;" vertex="1" parent="YBp6OHNmCgB0oo-ofbhE-504">
          <mxGeometry x="30" width="10" height="10" as="geometry" />
        </mxCell>
        <mxCell id="YBp6OHNmCgB0oo-ofbhE-510" value="" style="shape=curlyBracket;whiteSpace=wrap;html=1;rounded=1;flipH=1;fontSize=22;strokeColor=#000000;fillColor=#000000;rotation=-90;size=0.5;" vertex="1" parent="YBp6OHNmCgB0oo-ofbhE-503">
          <mxGeometry x="15" y="30" width="20" height="50" as="geometry" />
        </mxCell>
        <mxCell id="YBp6OHNmCgB0oo-ofbhE-511" value="&lt;font style=&quot;font-size: 11px;&quot;&gt;concat&lt;/font&gt;" style="rounded=1;whiteSpace=wrap;html=1;fontSize=11;strokeColor=#000000;fillColor=none;" vertex="1" parent="YBp6OHNmCgB0oo-ofbhE-503">
          <mxGeometry x="2.5" y="20" width="45" height="20" as="geometry" />
        </mxCell>
        <mxCell id="YBp6OHNmCgB0oo-ofbhE-512" value="" style="rounded=0;whiteSpace=wrap;html=1;fontSize=22;strokeColor=none;fillColor=#000000;" vertex="1" parent="YBp6OHNmCgB0oo-ofbhE-502">
          <mxGeometry x="10" y="90" width="10" height="10" as="geometry" />
        </mxCell>
        <mxCell id="YBp6OHNmCgB0oo-ofbhE-513" value="" style="rounded=0;whiteSpace=wrap;html=1;fontSize=22;strokeColor=none;fillColor=#BFBFBF;" vertex="1" parent="YBp6OHNmCgB0oo-ofbhE-502">
          <mxGeometry x="10" y="100" width="10" height="10" as="geometry" />
        </mxCell>
        <mxCell id="YBp6OHNmCgB0oo-ofbhE-514" value="" style="rounded=0;whiteSpace=wrap;html=1;fontSize=22;strokeColor=none;fillColor=#000000;" vertex="1" parent="YBp6OHNmCgB0oo-ofbhE-502">
          <mxGeometry x="10" y="110" width="10" height="10" as="geometry" />
        </mxCell>
        <mxCell id="YBp6OHNmCgB0oo-ofbhE-515" value="" style="rounded=0;whiteSpace=wrap;html=1;fontSize=22;strokeColor=none;fillColor=#BFBFBF;" vertex="1" parent="YBp6OHNmCgB0oo-ofbhE-502">
          <mxGeometry x="10" y="120" width="10" height="10" as="geometry" />
        </mxCell>
        <mxCell id="YBp6OHNmCgB0oo-ofbhE-516" value="" style="rounded=0;whiteSpace=wrap;html=1;fontSize=22;strokeColor=none;fillColor=#000000;" vertex="1" parent="YBp6OHNmCgB0oo-ofbhE-502">
          <mxGeometry x="30" y="90" width="10" height="10" as="geometry" />
        </mxCell>
        <mxCell id="YBp6OHNmCgB0oo-ofbhE-517" value="" style="rounded=0;whiteSpace=wrap;html=1;fontSize=22;strokeColor=none;fillColor=#BFBFBF;" vertex="1" parent="YBp6OHNmCgB0oo-ofbhE-502">
          <mxGeometry x="30" y="100" width="10" height="10" as="geometry" />
        </mxCell>
        <mxCell id="YBp6OHNmCgB0oo-ofbhE-518" value="" style="rounded=0;whiteSpace=wrap;html=1;fontSize=22;strokeColor=none;fillColor=#000000;" vertex="1" parent="YBp6OHNmCgB0oo-ofbhE-502">
          <mxGeometry x="30" y="110" width="10" height="15" as="geometry" />
        </mxCell>
        <mxCell id="YBp6OHNmCgB0oo-ofbhE-519" value="" style="rounded=0;whiteSpace=wrap;html=1;fontSize=22;strokeColor=none;fillColor=#BFBFBF;" vertex="1" parent="YBp6OHNmCgB0oo-ofbhE-502">
          <mxGeometry x="30" y="120" width="10" height="10" as="geometry" />
        </mxCell>
        <mxCell id="YBp6OHNmCgB0oo-ofbhE-520" value="" style="ellipse;whiteSpace=wrap;html=1;aspect=fixed;fontSize=11;strokeColor=#000000;fillColor=none;" vertex="1" parent="YBp6OHNmCgB0oo-ofbhE-502">
          <mxGeometry x="10" y="155" width="10" height="10" as="geometry" />
        </mxCell>
        <mxCell id="YBp6OHNmCgB0oo-ofbhE-521" value="" style="ellipse;whiteSpace=wrap;html=1;aspect=fixed;fontSize=11;strokeColor=#000000;fillColor=none;" vertex="1" parent="YBp6OHNmCgB0oo-ofbhE-502">
          <mxGeometry x="30" y="155" width="10" height="10" as="geometry" />
        </mxCell>
        <mxCell id="YBp6OHNmCgB0oo-ofbhE-522" value="" style="endArrow=classic;html=1;rounded=0;fontSize=11;exitX=0.5;exitY=0;exitDx=0;exitDy=0;entryX=0.5;entryY=1;entryDx=0;entryDy=0;" edge="1" parent="YBp6OHNmCgB0oo-ofbhE-502" source="YBp6OHNmCgB0oo-ofbhE-520" target="YBp6OHNmCgB0oo-ofbhE-515">
          <mxGeometry width="50" height="50" relative="1" as="geometry">
            <mxPoint x="-20" y="65" as="sourcePoint" />
            <mxPoint x="30" y="15" as="targetPoint" />
          </mxGeometry>
        </mxCell>
        <mxCell id="YBp6OHNmCgB0oo-ofbhE-523" value="" style="endArrow=classic;html=1;rounded=0;fontSize=11;exitX=0.5;exitY=0;exitDx=0;exitDy=0;entryX=0.5;entryY=1;entryDx=0;entryDy=0;" edge="1" parent="YBp6OHNmCgB0oo-ofbhE-502" source="YBp6OHNmCgB0oo-ofbhE-521" target="YBp6OHNmCgB0oo-ofbhE-519">
          <mxGeometry width="50" height="50" relative="1" as="geometry">
            <mxPoint x="34.81999999999999" y="155" as="sourcePoint" />
            <mxPoint x="34.81999999999999" y="130" as="targetPoint" />
          </mxGeometry>
        </mxCell>
        <mxCell id="YBp6OHNmCgB0oo-ofbhE-524" value="" style="endArrow=classic;html=1;rounded=0;fontSize=11;exitX=0.5;exitY=0;exitDx=0;exitDy=0;entryX=0.5;entryY=1;entryDx=0;entryDy=0;" edge="1" parent="YBp6OHNmCgB0oo-ofbhE-502">
          <mxGeometry width="50" height="50" relative="1" as="geometry">
            <mxPoint x="24.849999999999966" y="25" as="sourcePoint" />
            <mxPoint x="24.849999999999966" as="targetPoint" />
          </mxGeometry>
        </mxCell>
        <mxCell id="YBp6OHNmCgB0oo-ofbhE-525" value="UI&lt;br&gt;Features" style="text;html=1;strokeColor=none;fillColor=none;align=center;verticalAlign=middle;whiteSpace=wrap;rounded=0;fontSize=11;" vertex="1" parent="YBp6OHNmCgB0oo-ofbhE-478">
          <mxGeometry y="170" width="60" height="30" as="geometry" />
        </mxCell>
        <mxCell id="YBp6OHNmCgB0oo-ofbhE-526" value="User Profile&lt;br&gt;Features" style="text;html=1;strokeColor=none;fillColor=none;align=center;verticalAlign=middle;whiteSpace=wrap;rounded=0;fontSize=11;" vertex="1" parent="YBp6OHNmCgB0oo-ofbhE-478">
          <mxGeometry x="70" y="170" width="65" height="30" as="geometry" />
        </mxCell>
        <mxCell id="YBp6OHNmCgB0oo-ofbhE-527" value="" style="group" vertex="1" connectable="0" parent="1">
          <mxGeometry x="976.5" y="499.18" width="193.5" height="290.8200000000001" as="geometry" />
        </mxCell>
        <mxCell id="YBp6OHNmCgB0oo-ofbhE-528" value="" style="rounded=0;whiteSpace=wrap;html=1;fontFamily=Georgia;fontSize=22;strokeColor=#000000;fillColor=none;dashed=1;" vertex="1" parent="YBp6OHNmCgB0oo-ofbhE-527">
          <mxGeometry x="-70" y="10" width="263.5" height="270.82" as="geometry" />
        </mxCell>
        <mxCell id="YBp6OHNmCgB0oo-ofbhE-529" value="" style="group" vertex="1" connectable="0" parent="YBp6OHNmCgB0oo-ofbhE-527">
          <mxGeometry x="25.08" y="20.82" width="40" height="10" as="geometry" />
        </mxCell>
        <mxCell id="YBp6OHNmCgB0oo-ofbhE-530" value="" style="rounded=0;whiteSpace=wrap;html=1;fontSize=22;strokeColor=none;fillColor=#CDA2BE;" vertex="1" parent="YBp6OHNmCgB0oo-ofbhE-529">
          <mxGeometry width="10" height="10" as="geometry" />
        </mxCell>
        <mxCell id="YBp6OHNmCgB0oo-ofbhE-531" style="edgeStyle=none;rounded=0;orthogonalLoop=1;jettySize=auto;html=1;exitX=1;exitY=1;exitDx=0;exitDy=0;fontSize=22;strokeColor=none;" edge="1" parent="YBp6OHNmCgB0oo-ofbhE-529" source="YBp6OHNmCgB0oo-ofbhE-530" target="YBp6OHNmCgB0oo-ofbhE-530">
          <mxGeometry relative="1" as="geometry" />
        </mxCell>
        <mxCell id="YBp6OHNmCgB0oo-ofbhE-532" value="" style="rounded=0;whiteSpace=wrap;html=1;fontSize=22;strokeColor=none;fillColor=#FFCE9F;" vertex="1" parent="YBp6OHNmCgB0oo-ofbhE-529">
          <mxGeometry x="10" width="10" height="10" as="geometry" />
        </mxCell>
        <mxCell id="YBp6OHNmCgB0oo-ofbhE-533" value="" style="rounded=0;whiteSpace=wrap;html=1;fontSize=22;strokeColor=none;fillColor=#CDA2BE;" vertex="1" parent="YBp6OHNmCgB0oo-ofbhE-529">
          <mxGeometry x="20" width="10" height="10" as="geometry" />
        </mxCell>
        <mxCell id="YBp6OHNmCgB0oo-ofbhE-534" value="" style="rounded=0;whiteSpace=wrap;html=1;fontSize=22;strokeColor=none;fillColor=#FFCE9F;" vertex="1" parent="YBp6OHNmCgB0oo-ofbhE-529">
          <mxGeometry x="30" width="10" height="10" as="geometry" />
        </mxCell>
        <mxCell id="YBp6OHNmCgB0oo-ofbhE-535" value="&lt;i&gt;&lt;font face=&quot;Times New Roman&quot;&gt;E&lt;sub&gt;u-s&lt;/sub&gt;&lt;/font&gt;&lt;/i&gt;" style="text;html=1;strokeColor=none;fillColor=none;align=center;verticalAlign=middle;whiteSpace=wrap;rounded=0;" vertex="1" parent="YBp6OHNmCgB0oo-ofbhE-527">
          <mxGeometry x="62.58" y="10.82" width="60" height="30" as="geometry" />
        </mxCell>
        <mxCell id="YBp6OHNmCgB0oo-ofbhE-536" value="" style="shape=sumEllipse;perimeter=ellipsePerimeter;whiteSpace=wrap;html=1;backgroundOutline=1;" vertex="1" parent="YBp6OHNmCgB0oo-ofbhE-527">
          <mxGeometry x="112.58" y="95.82" width="10" height="10" as="geometry" />
        </mxCell>
        <mxCell id="YBp6OHNmCgB0oo-ofbhE-537" value="&lt;font style=&quot;font-size: 22px;&quot;&gt;……&lt;/font&gt;" style="text;html=1;strokeColor=none;fillColor=none;align=center;verticalAlign=middle;whiteSpace=wrap;rounded=0;fontFamily=Georgia;fontSize=11;" vertex="1" parent="YBp6OHNmCgB0oo-ofbhE-527">
          <mxGeometry x="66.75" y="170.00000000000006" width="60" height="30" as="geometry" />
        </mxCell>
        <mxCell id="YBp6OHNmCgB0oo-ofbhE-538" value="" style="endArrow=classic;html=1;rounded=0;fontFamily=Georgia;fontSize=11;strokeColor=#000000;exitX=0.5;exitY=0;exitDx=0;exitDy=0;entryX=0.547;entryY=0.143;entryDx=0;entryDy=0;entryPerimeter=0;" edge="1" parent="YBp6OHNmCgB0oo-ofbhE-527">
          <mxGeometry width="50" height="50" relative="1" as="geometry">
            <mxPoint x="117.71" y="95.8200000000001" as="sourcePoint" />
            <mxPoint x="117.45000000000023" y="81.75999999999982" as="targetPoint" />
          </mxGeometry>
        </mxCell>
        <mxCell id="YBp6OHNmCgB0oo-ofbhE-539" value="" style="endArrow=classic;html=1;rounded=0;fontFamily=Georgia;fontSize=11;strokeColor=#000000;exitX=0.5;exitY=0;exitDx=0;exitDy=0;entryX=0.547;entryY=0.143;entryDx=0;entryDy=0;entryPerimeter=0;" edge="1" parent="YBp6OHNmCgB0oo-ofbhE-527">
          <mxGeometry width="50" height="50" relative="1" as="geometry">
            <mxPoint x="18.75999999999999" y="95.8200000000001" as="sourcePoint" />
            <mxPoint x="18.500000000000227" y="81.75999999999982" as="targetPoint" />
          </mxGeometry>
        </mxCell>
        <mxCell id="YBp6OHNmCgB0oo-ofbhE-540" value="" style="group" vertex="1" connectable="0" parent="YBp6OHNmCgB0oo-ofbhE-527">
          <mxGeometry x="17.499999999999943" y="111.64999999999992" width="80" height="120" as="geometry" />
        </mxCell>
        <mxCell id="YBp6OHNmCgB0oo-ofbhE-541" value="" style="group" vertex="1" connectable="0" parent="YBp6OHNmCgB0oo-ofbhE-540">
          <mxGeometry x="2.692307692307692" width="40" height="44.57142857142857" as="geometry" />
        </mxCell>
        <mxCell id="YBp6OHNmCgB0oo-ofbhE-542" value="" style="shape=curlyBracket;whiteSpace=wrap;html=1;rounded=1;flipH=1;fontSize=22;strokeColor=#000000;fillColor=#000000;rotation=-90;size=0.5;" vertex="1" parent="YBp6OHNmCgB0oo-ofbhE-541">
          <mxGeometry x="18.076923076923077" y="36.62142857142857" width="10.769230769230768" height="34.285714285714285" as="geometry" />
        </mxCell>
        <mxCell id="YBp6OHNmCgB0oo-ofbhE-543" value="&lt;font style=&quot;font-size: 11px;&quot;&gt;concat&lt;/font&gt;" style="rounded=1;whiteSpace=wrap;html=1;fontSize=11;strokeColor=#000000;fillColor=none;" vertex="1" parent="YBp6OHNmCgB0oo-ofbhE-541">
          <mxGeometry x="4.14" y="36.05" width="38.65" height="10.43" as="geometry" />
        </mxCell>
        <mxCell id="YBp6OHNmCgB0oo-ofbhE-544" value="" style="rounded=0;whiteSpace=wrap;html=1;fontSize=22;strokeColor=none;fillColor=#CDA2BE;" vertex="1" parent="YBp6OHNmCgB0oo-ofbhE-540">
          <mxGeometry x="18.076923076923077" y="60.62142857142857" width="5.384615384615384" height="6.857142857142857" as="geometry" />
        </mxCell>
        <mxCell id="YBp6OHNmCgB0oo-ofbhE-545" value="" style="rounded=0;whiteSpace=wrap;html=1;fontSize=22;strokeColor=none;fillColor=#E6D0DE;" vertex="1" parent="YBp6OHNmCgB0oo-ofbhE-540">
          <mxGeometry x="18.076923076923077" y="67.47857142857143" width="5.384615384615384" height="6.857142857142857" as="geometry" />
        </mxCell>
        <mxCell id="YBp6OHNmCgB0oo-ofbhE-546" value="" style="rounded=0;whiteSpace=wrap;html=1;fontSize=22;strokeColor=none;fillColor=#CDA2BE;" vertex="1" parent="YBp6OHNmCgB0oo-ofbhE-540">
          <mxGeometry x="18.076923076923077" y="74.33571428571429" width="5.384615384615384" height="6.857142857142857" as="geometry" />
        </mxCell>
        <mxCell id="YBp6OHNmCgB0oo-ofbhE-547" value="" style="rounded=0;whiteSpace=wrap;html=1;fontSize=22;strokeColor=none;fillColor=#E6D0DE;" vertex="1" parent="YBp6OHNmCgB0oo-ofbhE-540">
          <mxGeometry x="18.076923076923077" y="81.19285714285714" width="5.384615384615384" height="6.857142857142857" as="geometry" />
        </mxCell>
        <mxCell id="YBp6OHNmCgB0oo-ofbhE-548" value="" style="rounded=0;whiteSpace=wrap;html=1;fontSize=22;strokeColor=none;fillColor=#FFB570;" vertex="1" parent="YBp6OHNmCgB0oo-ofbhE-540">
          <mxGeometry x="29.996153846153845" y="60.62142857142857" width="5.384615384615384" height="6.857142857142857" as="geometry" />
        </mxCell>
        <mxCell id="YBp6OHNmCgB0oo-ofbhE-549" value="" style="rounded=0;whiteSpace=wrap;html=1;fontSize=22;strokeColor=none;fillColor=#FFCE9F;" vertex="1" parent="YBp6OHNmCgB0oo-ofbhE-540">
          <mxGeometry x="29.996153846153845" y="67.47857142857143" width="5.384615384615384" height="6.857142857142857" as="geometry" />
        </mxCell>
        <mxCell id="YBp6OHNmCgB0oo-ofbhE-550" value="" style="rounded=0;whiteSpace=wrap;html=1;fontSize=22;strokeColor=none;fillColor=#FFB570;" vertex="1" parent="YBp6OHNmCgB0oo-ofbhE-540">
          <mxGeometry x="29.996153846153845" y="74.33571428571429" width="5.384615384615384" height="10.285714285714285" as="geometry" />
        </mxCell>
        <mxCell id="YBp6OHNmCgB0oo-ofbhE-551" value="" style="rounded=0;whiteSpace=wrap;html=1;fontSize=22;strokeColor=none;fillColor=#FFCE9F;" vertex="1" parent="YBp6OHNmCgB0oo-ofbhE-540">
          <mxGeometry x="29.996153846153845" y="81.19285714285714" width="5.384615384615384" height="6.857142857142857" as="geometry" />
        </mxCell>
        <mxCell id="YBp6OHNmCgB0oo-ofbhE-552" value="" style="ellipse;whiteSpace=wrap;html=1;aspect=fixed;fontSize=11;strokeColor=#000000;fillColor=none;" vertex="1" parent="YBp6OHNmCgB0oo-ofbhE-540">
          <mxGeometry x="18.076923076923077" y="105.19285714285714" width="4.615384615384615" height="4.615384615384615" as="geometry" />
        </mxCell>
        <mxCell id="YBp6OHNmCgB0oo-ofbhE-553" value="" style="ellipse;whiteSpace=wrap;html=1;aspect=fixed;fontSize=11;strokeColor=#000000;fillColor=none;" vertex="1" parent="YBp6OHNmCgB0oo-ofbhE-540">
          <mxGeometry x="29.996153846153845" y="105.19285714285714" width="4.615384615384615" height="4.615384615384615" as="geometry" />
        </mxCell>
        <mxCell id="YBp6OHNmCgB0oo-ofbhE-554" value="" style="endArrow=classic;html=1;rounded=0;fontSize=11;exitX=0.5;exitY=0;exitDx=0;exitDy=0;entryX=0.5;entryY=1;entryDx=0;entryDy=0;" edge="1" parent="YBp6OHNmCgB0oo-ofbhE-540" source="YBp6OHNmCgB0oo-ofbhE-552" target="YBp6OHNmCgB0oo-ofbhE-547">
          <mxGeometry width="50" height="50" relative="1" as="geometry">
            <mxPoint x="-313.07692307692304" y="-169.09285714285713" as="sourcePoint" />
            <mxPoint x="-286.15384615384613" y="-203.3785714285714" as="targetPoint" />
          </mxGeometry>
        </mxCell>
        <mxCell id="YBp6OHNmCgB0oo-ofbhE-555" value="" style="endArrow=classic;html=1;rounded=0;fontSize=11;exitX=0.5;exitY=0;exitDx=0;exitDy=0;entryX=0.5;entryY=1;entryDx=0;entryDy=0;" edge="1" parent="YBp6OHNmCgB0oo-ofbhE-540" source="YBp6OHNmCgB0oo-ofbhE-553" target="YBp6OHNmCgB0oo-ofbhE-551">
          <mxGeometry width="50" height="50" relative="1" as="geometry">
            <mxPoint x="-282.4084615384616" y="-107.37857142857142" as="sourcePoint" />
            <mxPoint x="-282.4084615384616" y="-124.52142857142854" as="targetPoint" />
          </mxGeometry>
        </mxCell>
        <mxCell id="YBp6OHNmCgB0oo-ofbhE-556" value="&lt;font style=&quot;font-size: 9px;&quot; face=&quot;Georgia&quot;&gt;&lt;i&gt;Item &lt;sub&gt;s2&lt;/sub&gt;&lt;/i&gt;&lt;/font&gt;" style="text;html=1;strokeColor=none;fillColor=none;align=center;verticalAlign=middle;whiteSpace=wrap;rounded=0;fontSize=11;" vertex="1" parent="YBp6OHNmCgB0oo-ofbhE-540">
          <mxGeometry x="-5.309999999999999" y="105.19000000000001" width="60" height="20.57" as="geometry" />
        </mxCell>
        <mxCell id="YBp6OHNmCgB0oo-ofbhE-557" value="&lt;font style=&quot;font-size: 10px;&quot;&gt;Activation&lt;br&gt;&lt;/font&gt;" style="rounded=1;whiteSpace=wrap;html=1;fontSize=11;strokeColor=#000000;fillColor=none;" vertex="1" parent="YBp6OHNmCgB0oo-ofbhE-527">
          <mxGeometry x="25.57999999999987" y="111.64999999999992" width="57.92" height="10" as="geometry" />
        </mxCell>
        <mxCell id="YBp6OHNmCgB0oo-ofbhE-558" style="edgeStyle=none;rounded=0;orthogonalLoop=1;jettySize=auto;html=1;exitX=0.5;exitY=0;exitDx=0;exitDy=0;fontFamily=Georgia;fontSize=10;" edge="1" parent="YBp6OHNmCgB0oo-ofbhE-527" source="YBp6OHNmCgB0oo-ofbhE-543">
          <mxGeometry relative="1" as="geometry">
            <mxPoint x="43.49999999999994" y="121.65000000000015" as="targetPoint" />
          </mxGeometry>
        </mxCell>
        <mxCell id="YBp6OHNmCgB0oo-ofbhE-559" style="edgeStyle=orthogonalEdgeStyle;rounded=0;orthogonalLoop=1;jettySize=auto;html=1;exitX=0;exitY=0.5;exitDx=0;exitDy=0;entryX=0.5;entryY=1;entryDx=0;entryDy=0;fontFamily=Georgia;fontSize=11;" edge="1" parent="YBp6OHNmCgB0oo-ofbhE-527" source="YBp6OHNmCgB0oo-ofbhE-543" target="YBp6OHNmCgB0oo-ofbhE-561">
          <mxGeometry relative="1" as="geometry">
            <Array as="points">
              <mxPoint x="18.499999999999943" y="152.82" />
              <mxPoint x="18.499999999999943" y="105.82" />
            </Array>
            <mxPoint x="13.499999999999945" y="106.64999999999992" as="targetPoint" />
          </mxGeometry>
        </mxCell>
        <mxCell id="YBp6OHNmCgB0oo-ofbhE-560" value="" style="endArrow=classic;html=1;rounded=0;fontFamily=Georgia;fontSize=11;strokeColor=#FF8000;entryX=0.75;entryY=1;entryDx=0;entryDy=0;" edge="1" parent="YBp6OHNmCgB0oo-ofbhE-527" target="YBp6OHNmCgB0oo-ofbhE-557">
          <mxGeometry width="50" height="50" relative="1" as="geometry">
            <mxPoint x="69.49999999999994" y="141.65000000000015" as="sourcePoint" />
            <mxPoint x="104.49999999999994" y="131.64999999999992" as="targetPoint" />
          </mxGeometry>
        </mxCell>
        <mxCell id="YBp6OHNmCgB0oo-ofbhE-561" value="" style="shape=sumEllipse;perimeter=ellipsePerimeter;whiteSpace=wrap;html=1;backgroundOutline=1;" vertex="1" parent="YBp6OHNmCgB0oo-ofbhE-527">
          <mxGeometry x="14.329999999999986" y="95.82" width="10" height="10" as="geometry" />
        </mxCell>
        <mxCell id="YBp6OHNmCgB0oo-ofbhE-562" style="edgeStyle=orthogonalEdgeStyle;rounded=0;orthogonalLoop=1;jettySize=auto;html=1;exitX=0.5;exitY=0;exitDx=0;exitDy=0;entryX=1;entryY=0.5;entryDx=0;entryDy=0;fontFamily=Georgia;fontSize=11;" edge="1" parent="YBp6OHNmCgB0oo-ofbhE-527" source="YBp6OHNmCgB0oo-ofbhE-557" target="YBp6OHNmCgB0oo-ofbhE-561">
          <mxGeometry relative="1" as="geometry">
            <Array as="points">
              <mxPoint x="54.49999999999994" y="100.82" />
            </Array>
            <mxPoint x="18.499999999999943" y="101.64999999999992" as="targetPoint" />
          </mxGeometry>
        </mxCell>
        <mxCell id="YBp6OHNmCgB0oo-ofbhE-563" value="&lt;span style=&quot;color: rgb(255, 128, 0); font-family: Helvetica; font-size: 12px;&quot;&gt;用户—券核销店铺&amp;nbsp;&lt;/span&gt;&lt;b style=&quot;color: rgb(255, 128, 0); font-family: Helvetica; font-size: 12px;&quot;&gt;User-Shop&lt;/b&gt;&lt;span style=&quot;color: rgb(255, 128, 0); font-family: Helvetica; font-size: 12px;&quot;&gt;&amp;nbsp;序列&lt;/span&gt;" style="text;html=1;strokeColor=none;fillColor=none;align=center;verticalAlign=middle;whiteSpace=wrap;rounded=0;dashed=1;fontFamily=Georgia;fontSize=22;" vertex="1" parent="YBp6OHNmCgB0oo-ofbhE-527">
          <mxGeometry x="-73.46" y="240.8200000000001" width="256" height="30" as="geometry" />
        </mxCell>
        <mxCell id="YBp6OHNmCgB0oo-ofbhE-564" value="&lt;font style=&quot;font-size: 11px;&quot;&gt;concat&lt;/font&gt;" style="rounded=1;whiteSpace=wrap;html=1;fontSize=11;strokeColor=#000000;fillColor=none;" vertex="1" parent="1">
          <mxGeometry x="998.58" y="535.0000000000001" width="45" height="20" as="geometry" />
        </mxCell>
        <mxCell id="YBp6OHNmCgB0oo-ofbhE-565" value="" style="group" vertex="1" connectable="0" parent="1">
          <mxGeometry x="1230" y="331.65" width="65" height="200" as="geometry" />
        </mxCell>
        <mxCell id="YBp6OHNmCgB0oo-ofbhE-566" value="" style="group" vertex="1" connectable="0" parent="YBp6OHNmCgB0oo-ofbhE-565">
          <mxGeometry x="5" width="50" height="165" as="geometry" />
        </mxCell>
        <mxCell id="YBp6OHNmCgB0oo-ofbhE-567" value="" style="group" vertex="1" connectable="0" parent="YBp6OHNmCgB0oo-ofbhE-566">
          <mxGeometry y="25" width="50" height="65" as="geometry" />
        </mxCell>
        <mxCell id="YBp6OHNmCgB0oo-ofbhE-568" value="" style="group" vertex="1" connectable="0" parent="YBp6OHNmCgB0oo-ofbhE-567">
          <mxGeometry x="5" width="40" height="10" as="geometry" />
        </mxCell>
        <mxCell id="YBp6OHNmCgB0oo-ofbhE-569" value="" style="rounded=0;whiteSpace=wrap;html=1;fontSize=22;strokeColor=none;fillColor=#000000;" vertex="1" parent="YBp6OHNmCgB0oo-ofbhE-568">
          <mxGeometry width="10" height="10" as="geometry" />
        </mxCell>
        <mxCell id="YBp6OHNmCgB0oo-ofbhE-570" style="edgeStyle=none;rounded=0;orthogonalLoop=1;jettySize=auto;html=1;exitX=1;exitY=1;exitDx=0;exitDy=0;fontSize=22;strokeColor=none;" edge="1" parent="YBp6OHNmCgB0oo-ofbhE-568" source="YBp6OHNmCgB0oo-ofbhE-569" target="YBp6OHNmCgB0oo-ofbhE-569">
          <mxGeometry relative="1" as="geometry" />
        </mxCell>
        <mxCell id="YBp6OHNmCgB0oo-ofbhE-571" value="" style="rounded=0;whiteSpace=wrap;html=1;fontSize=22;strokeColor=none;fillColor=#BFBFBF;" vertex="1" parent="YBp6OHNmCgB0oo-ofbhE-568">
          <mxGeometry x="10" width="10" height="10" as="geometry" />
        </mxCell>
        <mxCell id="YBp6OHNmCgB0oo-ofbhE-572" value="" style="rounded=0;whiteSpace=wrap;html=1;fontSize=22;strokeColor=none;fillColor=#000000;" vertex="1" parent="YBp6OHNmCgB0oo-ofbhE-568">
          <mxGeometry x="20" width="10" height="10" as="geometry" />
        </mxCell>
        <mxCell id="YBp6OHNmCgB0oo-ofbhE-573" value="" style="rounded=0;whiteSpace=wrap;html=1;fontSize=22;strokeColor=none;fillColor=#BFBFBF;" vertex="1" parent="YBp6OHNmCgB0oo-ofbhE-568">
          <mxGeometry x="30" width="10" height="10" as="geometry" />
        </mxCell>
        <mxCell id="YBp6OHNmCgB0oo-ofbhE-574" value="" style="shape=curlyBracket;whiteSpace=wrap;html=1;rounded=1;flipH=1;fontSize=22;strokeColor=#000000;fillColor=#000000;rotation=-90;size=0.5;" vertex="1" parent="YBp6OHNmCgB0oo-ofbhE-567">
          <mxGeometry x="15" y="30" width="20" height="50" as="geometry" />
        </mxCell>
        <mxCell id="YBp6OHNmCgB0oo-ofbhE-575" value="&lt;font style=&quot;font-size: 11px;&quot;&gt;concat&lt;/font&gt;" style="rounded=1;whiteSpace=wrap;html=1;fontSize=11;strokeColor=#000000;fillColor=none;" vertex="1" parent="YBp6OHNmCgB0oo-ofbhE-567">
          <mxGeometry x="2.5" y="20" width="45" height="20" as="geometry" />
        </mxCell>
        <mxCell id="YBp6OHNmCgB0oo-ofbhE-576" value="" style="rounded=0;whiteSpace=wrap;html=1;fontSize=22;strokeColor=none;fillColor=#000000;" vertex="1" parent="YBp6OHNmCgB0oo-ofbhE-566">
          <mxGeometry x="10" y="90" width="10" height="10" as="geometry" />
        </mxCell>
        <mxCell id="YBp6OHNmCgB0oo-ofbhE-577" value="" style="rounded=0;whiteSpace=wrap;html=1;fontSize=22;strokeColor=none;fillColor=#BFBFBF;" vertex="1" parent="YBp6OHNmCgB0oo-ofbhE-566">
          <mxGeometry x="10" y="100" width="10" height="10" as="geometry" />
        </mxCell>
        <mxCell id="YBp6OHNmCgB0oo-ofbhE-578" value="" style="rounded=0;whiteSpace=wrap;html=1;fontSize=22;strokeColor=none;fillColor=#000000;" vertex="1" parent="YBp6OHNmCgB0oo-ofbhE-566">
          <mxGeometry x="10" y="110" width="10" height="10" as="geometry" />
        </mxCell>
        <mxCell id="YBp6OHNmCgB0oo-ofbhE-579" value="" style="rounded=0;whiteSpace=wrap;html=1;fontSize=22;strokeColor=none;fillColor=#BFBFBF;" vertex="1" parent="YBp6OHNmCgB0oo-ofbhE-566">
          <mxGeometry x="10" y="120" width="10" height="10" as="geometry" />
        </mxCell>
        <mxCell id="YBp6OHNmCgB0oo-ofbhE-580" value="" style="rounded=0;whiteSpace=wrap;html=1;fontSize=22;strokeColor=none;fillColor=#000000;" vertex="1" parent="YBp6OHNmCgB0oo-ofbhE-566">
          <mxGeometry x="30" y="90" width="10" height="10" as="geometry" />
        </mxCell>
        <mxCell id="YBp6OHNmCgB0oo-ofbhE-581" value="" style="rounded=0;whiteSpace=wrap;html=1;fontSize=22;strokeColor=none;fillColor=#BFBFBF;" vertex="1" parent="YBp6OHNmCgB0oo-ofbhE-566">
          <mxGeometry x="30" y="100" width="10" height="10" as="geometry" />
        </mxCell>
        <mxCell id="YBp6OHNmCgB0oo-ofbhE-582" value="" style="rounded=0;whiteSpace=wrap;html=1;fontSize=22;strokeColor=none;fillColor=#000000;" vertex="1" parent="YBp6OHNmCgB0oo-ofbhE-566">
          <mxGeometry x="30" y="110" width="10" height="15" as="geometry" />
        </mxCell>
        <mxCell id="YBp6OHNmCgB0oo-ofbhE-583" value="" style="rounded=0;whiteSpace=wrap;html=1;fontSize=22;strokeColor=none;fillColor=#BFBFBF;" vertex="1" parent="YBp6OHNmCgB0oo-ofbhE-566">
          <mxGeometry x="30" y="120" width="10" height="10" as="geometry" />
        </mxCell>
        <mxCell id="YBp6OHNmCgB0oo-ofbhE-584" value="" style="ellipse;whiteSpace=wrap;html=1;aspect=fixed;fontSize=11;strokeColor=#000000;fillColor=none;" vertex="1" parent="YBp6OHNmCgB0oo-ofbhE-566">
          <mxGeometry x="10" y="155" width="10" height="10" as="geometry" />
        </mxCell>
        <mxCell id="YBp6OHNmCgB0oo-ofbhE-585" value="" style="ellipse;whiteSpace=wrap;html=1;aspect=fixed;fontSize=11;strokeColor=#000000;fillColor=none;" vertex="1" parent="YBp6OHNmCgB0oo-ofbhE-566">
          <mxGeometry x="30" y="155" width="10" height="10" as="geometry" />
        </mxCell>
        <mxCell id="YBp6OHNmCgB0oo-ofbhE-586" value="" style="endArrow=classic;html=1;rounded=0;fontSize=11;exitX=0.5;exitY=0;exitDx=0;exitDy=0;entryX=0.5;entryY=1;entryDx=0;entryDy=0;" edge="1" parent="YBp6OHNmCgB0oo-ofbhE-566" source="YBp6OHNmCgB0oo-ofbhE-584" target="YBp6OHNmCgB0oo-ofbhE-579">
          <mxGeometry width="50" height="50" relative="1" as="geometry">
            <mxPoint x="-20" y="65" as="sourcePoint" />
            <mxPoint x="30" y="15" as="targetPoint" />
          </mxGeometry>
        </mxCell>
        <mxCell id="YBp6OHNmCgB0oo-ofbhE-587" value="" style="endArrow=classic;html=1;rounded=0;fontSize=11;exitX=0.5;exitY=0;exitDx=0;exitDy=0;entryX=0.5;entryY=1;entryDx=0;entryDy=0;" edge="1" parent="YBp6OHNmCgB0oo-ofbhE-566" source="YBp6OHNmCgB0oo-ofbhE-585" target="YBp6OHNmCgB0oo-ofbhE-583">
          <mxGeometry width="50" height="50" relative="1" as="geometry">
            <mxPoint x="34.81999999999999" y="155" as="sourcePoint" />
            <mxPoint x="34.81999999999999" y="130" as="targetPoint" />
          </mxGeometry>
        </mxCell>
        <mxCell id="YBp6OHNmCgB0oo-ofbhE-588" value="" style="endArrow=classic;html=1;rounded=0;fontSize=11;exitX=0.5;exitY=0;exitDx=0;exitDy=0;entryX=0.5;entryY=1;entryDx=0;entryDy=0;" edge="1" parent="YBp6OHNmCgB0oo-ofbhE-566">
          <mxGeometry width="50" height="50" relative="1" as="geometry">
            <mxPoint x="24.849999999999966" y="25" as="sourcePoint" />
            <mxPoint x="24.849999999999966" as="targetPoint" />
          </mxGeometry>
        </mxCell>
        <mxCell id="YBp6OHNmCgB0oo-ofbhE-589" value="Cross&lt;br&gt;Features" style="text;html=1;strokeColor=none;fillColor=none;align=center;verticalAlign=middle;whiteSpace=wrap;rounded=0;fontSize=11;" vertex="1" parent="YBp6OHNmCgB0oo-ofbhE-565">
          <mxGeometry y="170" width="65" height="30" as="geometry" />
        </mxCell>
        <mxCell id="YBp6OHNmCgB0oo-ofbhE-590" value="" style="group" vertex="1" connectable="0" parent="1">
          <mxGeometry x="890" y="610.8299999999999" width="80" height="120" as="geometry" />
        </mxCell>
        <mxCell id="YBp6OHNmCgB0oo-ofbhE-591" value="" style="endArrow=classic;html=1;rounded=0;fontSize=11;edgeStyle=orthogonalEdgeStyle;strokeColor=#FF8000;entryX=0.75;entryY=1;entryDx=0;entryDy=0;" edge="1" parent="YBp6OHNmCgB0oo-ofbhE-590" target="YBp6OHNmCgB0oo-ofbhE-673">
          <mxGeometry width="50" height="50" relative="1" as="geometry">
            <mxPoint x="320" y="-70.82999999999993" as="sourcePoint" />
            <mxPoint x="53" y="10" as="targetPoint" />
            <Array as="points">
              <mxPoint x="292" y="-71" />
              <mxPoint x="292" y="30" />
              <mxPoint x="-190" y="30" />
              <mxPoint x="-190" y="10" />
            </Array>
          </mxGeometry>
        </mxCell>
        <mxCell id="YBp6OHNmCgB0oo-ofbhE-592" value="" style="endArrow=classic;html=1;rounded=0;fontFamily=Georgia;fontSize=11;strokeColor=#FF8000;exitX=0;exitY=0;exitDx=0;exitDy=0;entryX=0.801;entryY=0.982;entryDx=0;entryDy=0;entryPerimeter=0;fillColor=#ffe6cc;" edge="1" parent="1" source="YBp6OHNmCgB0oo-ofbhE-800" target="YBp6OHNmCgB0oo-ofbhE-477">
          <mxGeometry width="50" height="50" relative="1" as="geometry">
            <mxPoint x="1188" y="400" as="sourcePoint" />
            <mxPoint x="1188" y="329.9999999999998" as="targetPoint" />
          </mxGeometry>
        </mxCell>
        <mxCell id="YBp6OHNmCgB0oo-ofbhE-593" value="" style="group" vertex="1" connectable="0" parent="1">
          <mxGeometry x="1124" y="510" width="80" height="120" as="geometry" />
        </mxCell>
        <mxCell id="YBp6OHNmCgB0oo-ofbhE-594" value="" style="group" vertex="1" connectable="0" parent="YBp6OHNmCgB0oo-ofbhE-593">
          <mxGeometry x="-30.307692307692307" y="100.83000000000001" width="40" height="44.57142857142857" as="geometry" />
        </mxCell>
        <mxCell id="YBp6OHNmCgB0oo-ofbhE-595" value="" style="shape=curlyBracket;whiteSpace=wrap;html=1;rounded=1;flipH=1;fontSize=22;strokeColor=#000000;fillColor=#000000;rotation=-90;size=0.5;" vertex="1" parent="YBp6OHNmCgB0oo-ofbhE-594">
          <mxGeometry x="18.076923076923077" y="36.62142857142857" width="10.769230769230768" height="34.285714285714285" as="geometry" />
        </mxCell>
        <mxCell id="YBp6OHNmCgB0oo-ofbhE-596" value="&lt;font style=&quot;font-size: 11px;&quot;&gt;concat&lt;/font&gt;" style="rounded=1;whiteSpace=wrap;html=1;fontSize=11;strokeColor=#000000;fillColor=none;" vertex="1" parent="YBp6OHNmCgB0oo-ofbhE-594">
          <mxGeometry x="4.14" y="36.05" width="38.65" height="10.43" as="geometry" />
        </mxCell>
        <mxCell id="YBp6OHNmCgB0oo-ofbhE-597" value="" style="rounded=0;whiteSpace=wrap;html=1;fontSize=22;strokeColor=none;fillColor=#CDA2BE;" vertex="1" parent="YBp6OHNmCgB0oo-ofbhE-593">
          <mxGeometry x="-14.92307692307692" y="161.45142857142858" width="5.384615384615384" height="6.857142857142857" as="geometry" />
        </mxCell>
        <mxCell id="YBp6OHNmCgB0oo-ofbhE-598" value="" style="rounded=0;whiteSpace=wrap;html=1;fontSize=22;strokeColor=none;fillColor=#E6D0DE;" vertex="1" parent="YBp6OHNmCgB0oo-ofbhE-593">
          <mxGeometry x="-14.92307692307692" y="168.30857142857144" width="5.384615384615384" height="6.857142857142857" as="geometry" />
        </mxCell>
        <mxCell id="YBp6OHNmCgB0oo-ofbhE-599" value="" style="rounded=0;whiteSpace=wrap;html=1;fontSize=22;strokeColor=none;fillColor=#CDA2BE;" vertex="1" parent="YBp6OHNmCgB0oo-ofbhE-593">
          <mxGeometry x="-14.92307692307692" y="175.1657142857143" width="5.384615384615384" height="6.857142857142857" as="geometry" />
        </mxCell>
        <mxCell id="YBp6OHNmCgB0oo-ofbhE-600" value="" style="rounded=0;whiteSpace=wrap;html=1;fontSize=22;strokeColor=none;fillColor=#E6D0DE;" vertex="1" parent="YBp6OHNmCgB0oo-ofbhE-593">
          <mxGeometry x="-14.92307692307692" y="182.02285714285716" width="5.384615384615384" height="6.857142857142857" as="geometry" />
        </mxCell>
        <mxCell id="YBp6OHNmCgB0oo-ofbhE-601" value="" style="rounded=0;whiteSpace=wrap;html=1;fontSize=22;strokeColor=none;fillColor=#FFB570;" vertex="1" parent="YBp6OHNmCgB0oo-ofbhE-593">
          <mxGeometry x="-3.0038461538461547" y="161.45142857142858" width="5.384615384615384" height="6.857142857142857" as="geometry" />
        </mxCell>
        <mxCell id="YBp6OHNmCgB0oo-ofbhE-602" value="" style="rounded=0;whiteSpace=wrap;html=1;fontSize=22;strokeColor=none;fillColor=#FFCE9F;" vertex="1" parent="YBp6OHNmCgB0oo-ofbhE-593">
          <mxGeometry x="-3.0038461538461547" y="168.30857142857144" width="5.384615384615384" height="6.857142857142857" as="geometry" />
        </mxCell>
        <mxCell id="YBp6OHNmCgB0oo-ofbhE-603" value="" style="rounded=0;whiteSpace=wrap;html=1;fontSize=22;strokeColor=none;fillColor=#FFB570;" vertex="1" parent="YBp6OHNmCgB0oo-ofbhE-593">
          <mxGeometry x="-3.0038461538461547" y="175.1657142857143" width="5.384615384615384" height="10.285714285714285" as="geometry" />
        </mxCell>
        <mxCell id="YBp6OHNmCgB0oo-ofbhE-604" value="" style="rounded=0;whiteSpace=wrap;html=1;fontSize=22;strokeColor=none;fillColor=#FFCE9F;" vertex="1" parent="YBp6OHNmCgB0oo-ofbhE-593">
          <mxGeometry x="-3.0038461538461547" y="182.02285714285716" width="5.384615384615384" height="6.857142857142857" as="geometry" />
        </mxCell>
        <mxCell id="YBp6OHNmCgB0oo-ofbhE-605" value="" style="ellipse;whiteSpace=wrap;html=1;aspect=fixed;fontSize=11;strokeColor=#000000;fillColor=none;" vertex="1" parent="YBp6OHNmCgB0oo-ofbhE-593">
          <mxGeometry x="-14.92307692307692" y="206.02285714285716" width="4.615384615384615" height="4.615384615384615" as="geometry" />
        </mxCell>
        <mxCell id="YBp6OHNmCgB0oo-ofbhE-606" value="" style="ellipse;whiteSpace=wrap;html=1;aspect=fixed;fontSize=11;strokeColor=#000000;fillColor=none;" vertex="1" parent="YBp6OHNmCgB0oo-ofbhE-593">
          <mxGeometry x="-3.0038461538461547" y="206.02285714285716" width="4.615384615384615" height="4.615384615384615" as="geometry" />
        </mxCell>
        <mxCell id="YBp6OHNmCgB0oo-ofbhE-607" value="" style="endArrow=classic;html=1;rounded=0;fontSize=11;exitX=0.5;exitY=0;exitDx=0;exitDy=0;entryX=0.5;entryY=1;entryDx=0;entryDy=0;" edge="1" parent="YBp6OHNmCgB0oo-ofbhE-593" source="YBp6OHNmCgB0oo-ofbhE-605" target="YBp6OHNmCgB0oo-ofbhE-600">
          <mxGeometry width="50" height="50" relative="1" as="geometry">
            <mxPoint x="-346.07692307692304" y="-68.26285714285711" as="sourcePoint" />
            <mxPoint x="-319.15384615384613" y="-102.54857142857139" as="targetPoint" />
          </mxGeometry>
        </mxCell>
        <mxCell id="YBp6OHNmCgB0oo-ofbhE-608" value="" style="endArrow=classic;html=1;rounded=0;fontSize=11;exitX=0.5;exitY=0;exitDx=0;exitDy=0;entryX=0.5;entryY=1;entryDx=0;entryDy=0;" edge="1" parent="YBp6OHNmCgB0oo-ofbhE-593" source="YBp6OHNmCgB0oo-ofbhE-606" target="YBp6OHNmCgB0oo-ofbhE-604">
          <mxGeometry width="50" height="50" relative="1" as="geometry">
            <mxPoint x="-315.4084615384616" y="-6.548571428571407" as="sourcePoint" />
            <mxPoint x="-315.4084615384616" y="-23.69142857142853" as="targetPoint" />
          </mxGeometry>
        </mxCell>
        <mxCell id="YBp6OHNmCgB0oo-ofbhE-609" value="&lt;font style=&quot;font-size: 9px;&quot; face=&quot;Georgia&quot;&gt;&lt;i&gt;Item &lt;sub&gt;sN&lt;/sub&gt;&lt;/i&gt;&lt;/font&gt;" style="text;html=1;strokeColor=none;fillColor=none;align=center;verticalAlign=middle;whiteSpace=wrap;rounded=0;fontSize=11;" vertex="1" parent="YBp6OHNmCgB0oo-ofbhE-593">
          <mxGeometry x="-38.31" y="206.02000000000004" width="60" height="20.57" as="geometry" />
        </mxCell>
        <mxCell id="YBp6OHNmCgB0oo-ofbhE-610" style="edgeStyle=orthogonalEdgeStyle;rounded=0;orthogonalLoop=1;jettySize=auto;html=1;exitX=0.5;exitY=0;exitDx=0;exitDy=0;entryX=1;entryY=0.5;entryDx=0;entryDy=0;fontFamily=Georgia;fontSize=11;" edge="1" parent="1" source="YBp6OHNmCgB0oo-ofbhE-611" target="YBp6OHNmCgB0oo-ofbhE-536">
          <mxGeometry relative="1" as="geometry">
            <Array as="points">
              <mxPoint x="1128" y="600" />
            </Array>
            <mxPoint x="1092" y="600.8299999999999" as="targetPoint" />
          </mxGeometry>
        </mxCell>
        <mxCell id="YBp6OHNmCgB0oo-ofbhE-611" value="&lt;font style=&quot;font-size: 10px;&quot;&gt;Activation&lt;br&gt;&lt;/font&gt;" style="rounded=1;whiteSpace=wrap;html=1;fontSize=11;strokeColor=#000000;fillColor=none;" vertex="1" parent="1">
          <mxGeometry x="1099.08" y="610.8299999999999" width="57.92" height="10" as="geometry" />
        </mxCell>
        <mxCell id="YBp6OHNmCgB0oo-ofbhE-612" style="edgeStyle=none;rounded=0;orthogonalLoop=1;jettySize=auto;html=1;exitX=0.5;exitY=0;exitDx=0;exitDy=0;fontFamily=Georgia;fontSize=10;" edge="1" parent="1" source="YBp6OHNmCgB0oo-ofbhE-596">
          <mxGeometry relative="1" as="geometry">
            <mxPoint x="1117" y="620.8300000000002" as="targetPoint" />
          </mxGeometry>
        </mxCell>
        <mxCell id="YBp6OHNmCgB0oo-ofbhE-613" style="edgeStyle=orthogonalEdgeStyle;rounded=0;orthogonalLoop=1;jettySize=auto;html=1;exitX=0;exitY=0.5;exitDx=0;exitDy=0;entryX=0.5;entryY=1;entryDx=0;entryDy=0;fontFamily=Georgia;fontSize=11;" edge="1" parent="1" source="YBp6OHNmCgB0oo-ofbhE-596" target="YBp6OHNmCgB0oo-ofbhE-536">
          <mxGeometry relative="1" as="geometry">
            <Array as="points">
              <mxPoint x="1094" y="652" />
              <mxPoint x="1094" y="620" />
            </Array>
            <mxPoint x="1087" y="605.8299999999999" as="targetPoint" />
          </mxGeometry>
        </mxCell>
        <mxCell id="YBp6OHNmCgB0oo-ofbhE-614" value="" style="endArrow=classic;html=1;rounded=0;fontFamily=Georgia;fontSize=11;strokeColor=#FF8000;entryX=0.75;entryY=1;entryDx=0;entryDy=0;" edge="1" parent="1" target="YBp6OHNmCgB0oo-ofbhE-611">
          <mxGeometry width="50" height="50" relative="1" as="geometry">
            <mxPoint x="1143" y="640.8300000000002" as="sourcePoint" />
            <mxPoint x="1178" y="630.8299999999999" as="targetPoint" />
          </mxGeometry>
        </mxCell>
        <mxCell id="YBp6OHNmCgB0oo-ofbhE-615" style="edgeStyle=orthogonalEdgeStyle;rounded=0;orthogonalLoop=1;jettySize=auto;html=1;entryX=0.5;entryY=1;entryDx=0;entryDy=0;" edge="1" parent="1" target="YBp6OHNmCgB0oo-ofbhE-619">
          <mxGeometry relative="1" as="geometry">
            <mxPoint x="740" y="309.9999999999998" as="sourcePoint" />
          </mxGeometry>
        </mxCell>
        <mxCell id="YBp6OHNmCgB0oo-ofbhE-616" style="edgeStyle=orthogonalEdgeStyle;rounded=0;orthogonalLoop=1;jettySize=auto;html=1;entryX=0.5;entryY=1;entryDx=0;entryDy=0;" edge="1" parent="1" target="YBp6OHNmCgB0oo-ofbhE-618">
          <mxGeometry relative="1" as="geometry">
            <mxPoint x="490" y="309.9999999999998" as="sourcePoint" />
            <Array as="points">
              <mxPoint x="490" y="310" />
            </Array>
          </mxGeometry>
        </mxCell>
        <mxCell id="YBp6OHNmCgB0oo-ofbhE-617" style="edgeStyle=orthogonalEdgeStyle;rounded=0;orthogonalLoop=1;jettySize=auto;html=1;entryX=0.5;entryY=1;entryDx=0;entryDy=0;" edge="1" parent="1" target="YBp6OHNmCgB0oo-ofbhE-629">
          <mxGeometry relative="1" as="geometry">
            <mxPoint x="619" y="309.9999999999998" as="sourcePoint" />
            <Array as="points">
              <mxPoint x="619" y="310" />
              <mxPoint x="619" y="290" />
            </Array>
          </mxGeometry>
        </mxCell>
        <mxCell id="YBp6OHNmCgB0oo-ofbhE-618" value="CTR_tower" style="rounded=0;whiteSpace=wrap;html=1;fillColor=#ffe6cc;strokeColor=#d79b00;" vertex="1" parent="1">
          <mxGeometry x="445" y="230" width="90" height="40" as="geometry" />
        </mxCell>
        <mxCell id="YBp6OHNmCgB0oo-ofbhE-619" value="CVR_tower" style="rounded=0;whiteSpace=wrap;html=1;fillColor=#fff2cc;strokeColor=#d6b656;" vertex="1" parent="1">
          <mxGeometry x="695" y="230" width="90" height="40" as="geometry" />
        </mxCell>
        <mxCell id="YBp6OHNmCgB0oo-ofbhE-620" value="sigmoid" style="rounded=0;whiteSpace=wrap;html=1;fillColor=#ffe6cc;strokeColor=#d79b00;" vertex="1" parent="1">
          <mxGeometry x="445" y="160" width="90" height="30" as="geometry" />
        </mxCell>
        <mxCell id="YBp6OHNmCgB0oo-ofbhE-621" style="edgeStyle=orthogonalEdgeStyle;rounded=0;orthogonalLoop=1;jettySize=auto;html=1;exitX=0.5;exitY=0;exitDx=0;exitDy=0;entryX=0.5;entryY=1;entryDx=0;entryDy=0;" edge="1" parent="1" source="YBp6OHNmCgB0oo-ofbhE-618" target="YBp6OHNmCgB0oo-ofbhE-620">
          <mxGeometry relative="1" as="geometry" />
        </mxCell>
        <mxCell id="YBp6OHNmCgB0oo-ofbhE-622" value="sigmoid" style="rounded=0;whiteSpace=wrap;html=1;fillColor=#fff2cc;strokeColor=#d6b656;" vertex="1" parent="1">
          <mxGeometry x="695" y="160" width="90" height="30" as="geometry" />
        </mxCell>
        <mxCell id="YBp6OHNmCgB0oo-ofbhE-623" style="edgeStyle=orthogonalEdgeStyle;rounded=0;orthogonalLoop=1;jettySize=auto;html=1;exitX=0.5;exitY=0;exitDx=0;exitDy=0;entryX=0.5;entryY=1;entryDx=0;entryDy=0;" edge="1" parent="1" source="YBp6OHNmCgB0oo-ofbhE-619" target="YBp6OHNmCgB0oo-ofbhE-622">
          <mxGeometry relative="1" as="geometry" />
        </mxCell>
        <mxCell id="YBp6OHNmCgB0oo-ofbhE-624" style="edgeStyle=none;rounded=0;orthogonalLoop=1;jettySize=auto;html=1;exitX=0.5;exitY=0;exitDx=0;exitDy=0;fontSize=21;" edge="1" parent="1" source="YBp6OHNmCgB0oo-ofbhE-625">
          <mxGeometry relative="1" as="geometry">
            <mxPoint x="490.07692307692287" y="90" as="targetPoint" />
          </mxGeometry>
        </mxCell>
        <mxCell id="YBp6OHNmCgB0oo-ofbhE-625" value="" style="ellipse;whiteSpace=wrap;html=1;aspect=fixed;" vertex="1" parent="1">
          <mxGeometry x="480" y="110" width="20" height="20" as="geometry" />
        </mxCell>
        <mxCell id="YBp6OHNmCgB0oo-ofbhE-626" style="edgeStyle=orthogonalEdgeStyle;rounded=0;orthogonalLoop=1;jettySize=auto;html=1;exitX=0.5;exitY=0;exitDx=0;exitDy=0;entryX=0.5;entryY=1;entryDx=0;entryDy=0;" edge="1" parent="1" source="YBp6OHNmCgB0oo-ofbhE-620" target="YBp6OHNmCgB0oo-ofbhE-625">
          <mxGeometry relative="1" as="geometry" />
        </mxCell>
        <mxCell id="YBp6OHNmCgB0oo-ofbhE-627" style="edgeStyle=orthogonalEdgeStyle;rounded=0;orthogonalLoop=1;jettySize=auto;html=1;exitX=0.5;exitY=0;exitDx=0;exitDy=0;entryX=1;entryY=0.5;entryDx=0;entryDy=0;" edge="1" parent="1" source="YBp6OHNmCgB0oo-ofbhE-629" target="YBp6OHNmCgB0oo-ofbhE-620">
          <mxGeometry relative="1" as="geometry" />
        </mxCell>
        <mxCell id="YBp6OHNmCgB0oo-ofbhE-628" style="edgeStyle=orthogonalEdgeStyle;rounded=0;orthogonalLoop=1;jettySize=auto;html=1;exitX=0.5;exitY=0;exitDx=0;exitDy=0;entryX=0;entryY=0.5;entryDx=0;entryDy=0;" edge="1" parent="1" source="YBp6OHNmCgB0oo-ofbhE-629" target="YBp6OHNmCgB0oo-ofbhE-622">
          <mxGeometry relative="1" as="geometry" />
        </mxCell>
        <mxCell id="YBp6OHNmCgB0oo-ofbhE-629" value="Bias_tower" style="rounded=0;whiteSpace=wrap;html=1;fillColor=#f5f5f5;fontColor=#333333;strokeColor=#666666;" vertex="1" parent="1">
          <mxGeometry x="578.5" y="230" width="80" height="40" as="geometry" />
        </mxCell>
        <mxCell id="YBp6OHNmCgB0oo-ofbhE-630" value="" style="ellipse;whiteSpace=wrap;html=1;aspect=fixed;" vertex="1" parent="1">
          <mxGeometry x="730" y="110" width="20" height="20" as="geometry" />
        </mxCell>
        <mxCell id="YBp6OHNmCgB0oo-ofbhE-631" style="edgeStyle=orthogonalEdgeStyle;rounded=0;orthogonalLoop=1;jettySize=auto;html=1;exitX=0.5;exitY=0;exitDx=0;exitDy=0;entryX=0.5;entryY=1;entryDx=0;entryDy=0;" edge="1" parent="1" source="YBp6OHNmCgB0oo-ofbhE-622" target="YBp6OHNmCgB0oo-ofbhE-630">
          <mxGeometry relative="1" as="geometry" />
        </mxCell>
        <mxCell id="YBp6OHNmCgB0oo-ofbhE-632" style="edgeStyle=none;rounded=0;orthogonalLoop=1;jettySize=auto;html=1;exitX=0.5;exitY=0;exitDx=0;exitDy=0;fontSize=21;" edge="1" parent="1">
          <mxGeometry relative="1" as="geometry">
            <mxPoint x="618.5384615384614" y="60" as="targetPoint" />
            <mxPoint x="618.5" y="80" as="sourcePoint" />
          </mxGeometry>
        </mxCell>
        <mxCell id="YBp6OHNmCgB0oo-ofbhE-633" style="rounded=0;orthogonalLoop=1;jettySize=auto;html=1;exitX=1;exitY=0;exitDx=0;exitDy=0;entryX=0;entryY=0.5;entryDx=0;entryDy=0;fontSize=21;" edge="1" parent="1" source="YBp6OHNmCgB0oo-ofbhE-625">
          <mxGeometry relative="1" as="geometry">
            <mxPoint x="608.5000000000005" y="90" as="targetPoint" />
          </mxGeometry>
        </mxCell>
        <mxCell id="YBp6OHNmCgB0oo-ofbhE-634" style="edgeStyle=none;rounded=0;orthogonalLoop=1;jettySize=auto;html=1;exitX=0;exitY=0;exitDx=0;exitDy=0;entryX=1;entryY=0.5;entryDx=0;entryDy=0;fontSize=21;" edge="1" parent="1" source="YBp6OHNmCgB0oo-ofbhE-630">
          <mxGeometry relative="1" as="geometry">
            <mxPoint x="628.5000000000005" y="90" as="targetPoint" />
          </mxGeometry>
        </mxCell>
        <mxCell id="YBp6OHNmCgB0oo-ofbhE-635" value="&lt;font style=&quot;font-size: 12px;&quot;&gt;pCTR&lt;/font&gt;" style="text;html=1;strokeColor=none;fillColor=none;align=center;verticalAlign=middle;whiteSpace=wrap;rounded=0;fontSize=21;" vertex="1" parent="1">
          <mxGeometry x="496" y="110" width="60" height="30" as="geometry" />
        </mxCell>
        <mxCell id="YBp6OHNmCgB0oo-ofbhE-636" value="&lt;font style=&quot;font-size: 12px;&quot;&gt;pCVR&lt;/font&gt;" style="text;html=1;strokeColor=none;fillColor=none;align=center;verticalAlign=middle;whiteSpace=wrap;rounded=0;fontSize=21;" vertex="1" parent="1">
          <mxGeometry x="745.69" y="105" width="60" height="30" as="geometry" />
        </mxCell>
        <mxCell id="YBp6OHNmCgB0oo-ofbhE-637" value="" style="group" vertex="1" connectable="0" parent="1">
          <mxGeometry x="694" y="610.8299999999999" width="80" height="125.76000000000002" as="geometry" />
        </mxCell>
        <mxCell id="YBp6OHNmCgB0oo-ofbhE-638" value="" style="group" vertex="1" connectable="0" parent="YBp6OHNmCgB0oo-ofbhE-637">
          <mxGeometry x="34.00230769230769" width="40" height="44.57142857142857" as="geometry" />
        </mxCell>
        <mxCell id="YBp6OHNmCgB0oo-ofbhE-639" value="" style="shape=curlyBracket;whiteSpace=wrap;html=1;rounded=1;flipH=1;fontSize=22;strokeColor=#000000;fillColor=#000000;rotation=-90;size=0.5;" vertex="1" parent="YBp6OHNmCgB0oo-ofbhE-638">
          <mxGeometry x="18.076923076923077" y="36.62142857142857" width="10.769230769230768" height="34.285714285714285" as="geometry" />
        </mxCell>
        <mxCell id="YBp6OHNmCgB0oo-ofbhE-640" value="&lt;font style=&quot;font-size: 11px;&quot;&gt;concat&lt;/font&gt;" style="rounded=1;whiteSpace=wrap;html=1;fontSize=11;strokeColor=#000000;fillColor=none;" vertex="1" parent="YBp6OHNmCgB0oo-ofbhE-638">
          <mxGeometry x="4.14" y="36.05" width="38.65" height="10.43" as="geometry" />
        </mxCell>
        <mxCell id="YBp6OHNmCgB0oo-ofbhE-641" value="" style="rounded=0;whiteSpace=wrap;html=1;fontSize=22;strokeColor=none;fillColor=#99CCFF;" vertex="1" parent="YBp6OHNmCgB0oo-ofbhE-637">
          <mxGeometry x="49.386923076923075" y="60.62142857142857" width="5.384615384615384" height="6.857142857142857" as="geometry" />
        </mxCell>
        <mxCell id="YBp6OHNmCgB0oo-ofbhE-642" value="" style="rounded=0;whiteSpace=wrap;html=1;fontSize=22;strokeColor=none;fillColor=#3399FF;" vertex="1" parent="YBp6OHNmCgB0oo-ofbhE-637">
          <mxGeometry x="49.386923076923075" y="67.47857142857143" width="5.384615384615384" height="6.857142857142857" as="geometry" />
        </mxCell>
        <mxCell id="YBp6OHNmCgB0oo-ofbhE-643" value="" style="rounded=0;whiteSpace=wrap;html=1;fontSize=22;strokeColor=none;fillColor=#99CCFF;" vertex="1" parent="YBp6OHNmCgB0oo-ofbhE-637">
          <mxGeometry x="49.386923076923075" y="74.33571428571429" width="5.384615384615384" height="6.857142857142857" as="geometry" />
        </mxCell>
        <mxCell id="YBp6OHNmCgB0oo-ofbhE-644" value="" style="rounded=0;whiteSpace=wrap;html=1;fontSize=22;strokeColor=none;fillColor=#3399FF;" vertex="1" parent="YBp6OHNmCgB0oo-ofbhE-637">
          <mxGeometry x="49.386923076923075" y="81.19285714285714" width="5.384615384615384" height="6.857142857142857" as="geometry" />
        </mxCell>
        <mxCell id="YBp6OHNmCgB0oo-ofbhE-645" value="" style="rounded=0;whiteSpace=wrap;html=1;fontSize=22;strokeColor=none;fillColor=#97D077;" vertex="1" parent="YBp6OHNmCgB0oo-ofbhE-637">
          <mxGeometry x="61.30615384615385" y="60.62142857142857" width="5.384615384615384" height="6.857142857142857" as="geometry" />
        </mxCell>
        <mxCell id="YBp6OHNmCgB0oo-ofbhE-646" value="" style="rounded=0;whiteSpace=wrap;html=1;fontSize=22;strokeColor=none;fillColor=#B9E0A5;" vertex="1" parent="YBp6OHNmCgB0oo-ofbhE-637">
          <mxGeometry x="61.30615384615385" y="67.47857142857143" width="5.384615384615384" height="6.857142857142857" as="geometry" />
        </mxCell>
        <mxCell id="YBp6OHNmCgB0oo-ofbhE-647" value="" style="rounded=0;whiteSpace=wrap;html=1;fontSize=22;strokeColor=none;fillColor=#97D077;" vertex="1" parent="YBp6OHNmCgB0oo-ofbhE-637">
          <mxGeometry x="61.30615384615385" y="74.33571428571429" width="5.384615384615384" height="10.285714285714285" as="geometry" />
        </mxCell>
        <mxCell id="YBp6OHNmCgB0oo-ofbhE-648" value="" style="rounded=0;whiteSpace=wrap;html=1;fontSize=22;strokeColor=none;fillColor=#B9E0A5;" vertex="1" parent="YBp6OHNmCgB0oo-ofbhE-637">
          <mxGeometry x="61.30615384615385" y="81.19285714285714" width="5.384615384615384" height="6.857142857142857" as="geometry" />
        </mxCell>
        <mxCell id="YBp6OHNmCgB0oo-ofbhE-649" value="" style="ellipse;whiteSpace=wrap;html=1;aspect=fixed;fontSize=11;strokeColor=#000000;fillColor=none;" vertex="1" parent="YBp6OHNmCgB0oo-ofbhE-637">
          <mxGeometry x="49.386923076923075" y="105.19285714285714" width="4.615384615384615" height="4.615384615384615" as="geometry" />
        </mxCell>
        <mxCell id="YBp6OHNmCgB0oo-ofbhE-650" value="" style="ellipse;whiteSpace=wrap;html=1;aspect=fixed;fontSize=11;strokeColor=#000000;fillColor=none;" vertex="1" parent="YBp6OHNmCgB0oo-ofbhE-637">
          <mxGeometry x="61.30615384615385" y="105.19285714285714" width="4.615384615384615" height="4.615384615384615" as="geometry" />
        </mxCell>
        <mxCell id="YBp6OHNmCgB0oo-ofbhE-651" value="" style="endArrow=classic;html=1;rounded=0;fontSize=11;exitX=0.5;exitY=0;exitDx=0;exitDy=0;entryX=0.5;entryY=1;entryDx=0;entryDy=0;" edge="1" parent="YBp6OHNmCgB0oo-ofbhE-637" source="YBp6OHNmCgB0oo-ofbhE-649" target="YBp6OHNmCgB0oo-ofbhE-644">
          <mxGeometry width="50" height="50" relative="1" as="geometry">
            <mxPoint x="-281.76692307692304" y="-169.09285714285713" as="sourcePoint" />
            <mxPoint x="-254.84384615384613" y="-203.3785714285714" as="targetPoint" />
          </mxGeometry>
        </mxCell>
        <mxCell id="YBp6OHNmCgB0oo-ofbhE-652" value="" style="endArrow=classic;html=1;rounded=0;fontSize=11;exitX=0.5;exitY=0;exitDx=0;exitDy=0;entryX=0.5;entryY=1;entryDx=0;entryDy=0;" edge="1" parent="YBp6OHNmCgB0oo-ofbhE-637" source="YBp6OHNmCgB0oo-ofbhE-650" target="YBp6OHNmCgB0oo-ofbhE-648">
          <mxGeometry width="50" height="50" relative="1" as="geometry">
            <mxPoint x="-251.0984615384616" y="-107.37857142857142" as="sourcePoint" />
            <mxPoint x="-251.0984615384616" y="-124.52142857142854" as="targetPoint" />
          </mxGeometry>
        </mxCell>
        <mxCell id="YBp6OHNmCgB0oo-ofbhE-653" value="&lt;font style=&quot;font-size: 9px;&quot; face=&quot;Georgia&quot;&gt;&lt;i&gt;Item &lt;sub&gt;c2&lt;/sub&gt;&lt;/i&gt;&lt;/font&gt;" style="text;html=1;strokeColor=none;fillColor=none;align=center;verticalAlign=middle;whiteSpace=wrap;rounded=0;fontSize=11;" vertex="1" parent="YBp6OHNmCgB0oo-ofbhE-637">
          <mxGeometry x="26" y="105.19000000000001" width="60" height="20.57" as="geometry" />
        </mxCell>
        <mxCell id="YBp6OHNmCgB0oo-ofbhE-654" value="" style="shape=sumEllipse;perimeter=ellipsePerimeter;whiteSpace=wrap;html=1;backgroundOutline=1;" vertex="1" parent="YBp6OHNmCgB0oo-ofbhE-637">
          <mxGeometry x="-53.99999999999996" y="-15.829999999999927" width="10" height="10" as="geometry" />
        </mxCell>
        <mxCell id="YBp6OHNmCgB0oo-ofbhE-655" value="" style="endArrow=classic;html=1;rounded=0;fontFamily=Georgia;fontSize=11;strokeColor=#000000;exitX=0.5;exitY=0;exitDx=0;exitDy=0;" edge="1" parent="YBp6OHNmCgB0oo-ofbhE-637">
          <mxGeometry width="50" height="50" relative="1" as="geometry">
            <mxPoint x="-49.229999999999976" y="-15.830000000000041" as="sourcePoint" />
            <mxPoint x="-49.229999999999976" y="-31.659999999999968" as="targetPoint" />
          </mxGeometry>
        </mxCell>
        <mxCell id="YBp6OHNmCgB0oo-ofbhE-656" value="" style="group" vertex="1" connectable="0" parent="YBp6OHNmCgB0oo-ofbhE-637">
          <mxGeometry x="-41.887692307692305" width="40" height="44.57142857142857" as="geometry" />
        </mxCell>
        <mxCell id="YBp6OHNmCgB0oo-ofbhE-657" value="" style="shape=curlyBracket;whiteSpace=wrap;html=1;rounded=1;flipH=1;fontSize=22;strokeColor=#000000;fillColor=#000000;rotation=-90;size=0.5;" vertex="1" parent="YBp6OHNmCgB0oo-ofbhE-656">
          <mxGeometry x="18.076923076923077" y="36.62142857142857" width="10.769230769230768" height="34.285714285714285" as="geometry" />
        </mxCell>
        <mxCell id="YBp6OHNmCgB0oo-ofbhE-658" value="&lt;font style=&quot;font-size: 11px;&quot;&gt;concat&lt;/font&gt;" style="rounded=1;whiteSpace=wrap;html=1;fontSize=11;strokeColor=#000000;fillColor=none;" vertex="1" parent="YBp6OHNmCgB0oo-ofbhE-656">
          <mxGeometry x="4.14" y="36.05" width="38.65" height="10.43" as="geometry" />
        </mxCell>
        <mxCell id="YBp6OHNmCgB0oo-ofbhE-659" value="" style="rounded=0;whiteSpace=wrap;html=1;fontSize=22;strokeColor=none;fillColor=#99CCFF;" vertex="1" parent="YBp6OHNmCgB0oo-ofbhE-637">
          <mxGeometry x="-26.503076923076918" y="60.62142857142857" width="5.384615384615384" height="6.857142857142857" as="geometry" />
        </mxCell>
        <mxCell id="YBp6OHNmCgB0oo-ofbhE-660" value="" style="rounded=0;whiteSpace=wrap;html=1;fontSize=22;strokeColor=none;fillColor=#3399FF;" vertex="1" parent="YBp6OHNmCgB0oo-ofbhE-637">
          <mxGeometry x="-26.503076923076918" y="67.47857142857143" width="5.384615384615384" height="6.857142857142857" as="geometry" />
        </mxCell>
        <mxCell id="YBp6OHNmCgB0oo-ofbhE-661" value="" style="rounded=0;whiteSpace=wrap;html=1;fontSize=22;strokeColor=none;fillColor=#99CCFF;" vertex="1" parent="YBp6OHNmCgB0oo-ofbhE-637">
          <mxGeometry x="-26.503076923076918" y="74.33571428571429" width="5.384615384615384" height="6.857142857142857" as="geometry" />
        </mxCell>
        <mxCell id="YBp6OHNmCgB0oo-ofbhE-662" value="" style="rounded=0;whiteSpace=wrap;html=1;fontSize=22;strokeColor=none;fillColor=#3399FF;" vertex="1" parent="YBp6OHNmCgB0oo-ofbhE-637">
          <mxGeometry x="-26.503076923076918" y="81.19285714285714" width="5.384615384615384" height="6.857142857142857" as="geometry" />
        </mxCell>
        <mxCell id="YBp6OHNmCgB0oo-ofbhE-663" value="" style="rounded=0;whiteSpace=wrap;html=1;fontSize=22;strokeColor=none;fillColor=#97D077;" vertex="1" parent="YBp6OHNmCgB0oo-ofbhE-637">
          <mxGeometry x="-14.583846153846153" y="60.62142857142857" width="5.384615384615384" height="6.857142857142857" as="geometry" />
        </mxCell>
        <mxCell id="YBp6OHNmCgB0oo-ofbhE-664" value="" style="rounded=0;whiteSpace=wrap;html=1;fontSize=22;strokeColor=none;fillColor=#B9E0A5;" vertex="1" parent="YBp6OHNmCgB0oo-ofbhE-637">
          <mxGeometry x="-14.583846153846153" y="67.47857142857143" width="5.384615384615384" height="6.857142857142857" as="geometry" />
        </mxCell>
        <mxCell id="YBp6OHNmCgB0oo-ofbhE-665" value="" style="rounded=0;whiteSpace=wrap;html=1;fontSize=22;strokeColor=none;fillColor=#97D077;" vertex="1" parent="YBp6OHNmCgB0oo-ofbhE-637">
          <mxGeometry x="-14.583846153846153" y="74.33571428571429" width="5.384615384615384" height="10.285714285714285" as="geometry" />
        </mxCell>
        <mxCell id="YBp6OHNmCgB0oo-ofbhE-666" value="" style="rounded=0;whiteSpace=wrap;html=1;fontSize=22;strokeColor=none;fillColor=#B9E0A5;" vertex="1" parent="YBp6OHNmCgB0oo-ofbhE-637">
          <mxGeometry x="-14.583846153846153" y="81.19285714285714" width="5.384615384615384" height="6.857142857142857" as="geometry" />
        </mxCell>
        <mxCell id="YBp6OHNmCgB0oo-ofbhE-667" value="" style="ellipse;whiteSpace=wrap;html=1;aspect=fixed;fontSize=11;strokeColor=#000000;fillColor=none;" vertex="1" parent="YBp6OHNmCgB0oo-ofbhE-637">
          <mxGeometry x="-26.503076923076918" y="105.19285714285714" width="4.615384615384615" height="4.615384615384615" as="geometry" />
        </mxCell>
        <mxCell id="YBp6OHNmCgB0oo-ofbhE-668" value="" style="ellipse;whiteSpace=wrap;html=1;aspect=fixed;fontSize=11;strokeColor=#000000;fillColor=none;" vertex="1" parent="YBp6OHNmCgB0oo-ofbhE-637">
          <mxGeometry x="-14.583846153846153" y="105.19285714285714" width="4.615384615384615" height="4.615384615384615" as="geometry" />
        </mxCell>
        <mxCell id="YBp6OHNmCgB0oo-ofbhE-669" value="" style="endArrow=classic;html=1;rounded=0;fontSize=11;exitX=0.5;exitY=0;exitDx=0;exitDy=0;entryX=0.5;entryY=1;entryDx=0;entryDy=0;" edge="1" parent="YBp6OHNmCgB0oo-ofbhE-637" source="YBp6OHNmCgB0oo-ofbhE-667" target="YBp6OHNmCgB0oo-ofbhE-662">
          <mxGeometry width="50" height="50" relative="1" as="geometry">
            <mxPoint x="-357.656923076923" y="-169.09285714285716" as="sourcePoint" />
            <mxPoint x="-330.7338461538461" y="-203.37857142857138" as="targetPoint" />
          </mxGeometry>
        </mxCell>
        <mxCell id="YBp6OHNmCgB0oo-ofbhE-670" value="" style="endArrow=classic;html=1;rounded=0;fontSize=11;exitX=0.5;exitY=0;exitDx=0;exitDy=0;entryX=0.5;entryY=1;entryDx=0;entryDy=0;" edge="1" parent="YBp6OHNmCgB0oo-ofbhE-637" source="YBp6OHNmCgB0oo-ofbhE-668" target="YBp6OHNmCgB0oo-ofbhE-666">
          <mxGeometry width="50" height="50" relative="1" as="geometry">
            <mxPoint x="-326.9884615384616" y="-107.37857142857143" as="sourcePoint" />
            <mxPoint x="-326.9884615384616" y="-124.52142857142854" as="targetPoint" />
          </mxGeometry>
        </mxCell>
        <mxCell id="YBp6OHNmCgB0oo-ofbhE-671" value="&lt;font style=&quot;font-size: 9px;&quot; face=&quot;Georgia&quot;&gt;&lt;i&gt;Item &lt;sub&gt;c1&lt;/sub&gt;&lt;/i&gt;&lt;/font&gt;" style="text;html=1;strokeColor=none;fillColor=none;align=center;verticalAlign=middle;whiteSpace=wrap;rounded=0;fontSize=11;" vertex="1" parent="YBp6OHNmCgB0oo-ofbhE-637">
          <mxGeometry x="-51.89" y="105.19000000000001" width="60" height="20.57" as="geometry" />
        </mxCell>
        <mxCell id="YBp6OHNmCgB0oo-ofbhE-672" style="edgeStyle=orthogonalEdgeStyle;rounded=0;orthogonalLoop=1;jettySize=auto;html=1;exitX=0.5;exitY=0;exitDx=0;exitDy=0;fontFamily=Georgia;fontSize=11;" edge="1" parent="YBp6OHNmCgB0oo-ofbhE-637" source="YBp6OHNmCgB0oo-ofbhE-673">
          <mxGeometry relative="1" as="geometry">
            <Array as="points">
              <mxPoint x="-7.580000000000041" y="-10" />
            </Array>
            <mxPoint x="-44.58000000000004" y="-9.829999999999927" as="targetPoint" />
          </mxGeometry>
        </mxCell>
        <mxCell id="YBp6OHNmCgB0oo-ofbhE-673" value="&lt;font style=&quot;font-size: 10px;&quot;&gt;Activation&lt;br&gt;&lt;/font&gt;" style="rounded=1;whiteSpace=wrap;html=1;fontSize=11;strokeColor=#000000;fillColor=none;" vertex="1" parent="YBp6OHNmCgB0oo-ofbhE-637">
          <mxGeometry x="-36.500000000000114" width="57.92" height="10" as="geometry" />
        </mxCell>
        <mxCell id="YBp6OHNmCgB0oo-ofbhE-674" style="edgeStyle=none;rounded=0;orthogonalLoop=1;jettySize=auto;html=1;exitX=0.5;exitY=0;exitDx=0;exitDy=0;fontFamily=Georgia;fontSize=10;" edge="1" parent="YBp6OHNmCgB0oo-ofbhE-637" source="YBp6OHNmCgB0oo-ofbhE-658">
          <mxGeometry relative="1" as="geometry">
            <mxPoint x="-18.58000000000004" y="10.000000000000227" as="targetPoint" />
          </mxGeometry>
        </mxCell>
        <mxCell id="YBp6OHNmCgB0oo-ofbhE-675" style="edgeStyle=orthogonalEdgeStyle;rounded=0;orthogonalLoop=1;jettySize=auto;html=1;exitX=0;exitY=0.5;exitDx=0;exitDy=0;entryX=0.5;entryY=1;entryDx=0;entryDy=0;fontFamily=Georgia;fontSize=11;" edge="1" parent="YBp6OHNmCgB0oo-ofbhE-637" source="YBp6OHNmCgB0oo-ofbhE-658" target="YBp6OHNmCgB0oo-ofbhE-654">
          <mxGeometry relative="1" as="geometry">
            <Array as="points">
              <mxPoint x="-48.58000000000004" y="41.17000000000007" />
              <mxPoint x="-48.58000000000004" y="-0.8299999999999272" />
              <mxPoint x="-49.58000000000004" y="-0.8299999999999272" />
            </Array>
            <mxPoint x="-48.58000000000004" y="-5" as="targetPoint" />
          </mxGeometry>
        </mxCell>
        <mxCell id="YBp6OHNmCgB0oo-ofbhE-676" style="edgeStyle=orthogonalEdgeStyle;rounded=0;orthogonalLoop=1;jettySize=auto;html=1;exitX=0.5;exitY=0;exitDx=0;exitDy=0;entryX=1.025;entryY=0.593;entryDx=0;entryDy=0;fontFamily=Georgia;fontSize=11;entryPerimeter=0;" edge="1" parent="1" source="YBp6OHNmCgB0oo-ofbhE-677" target="YBp6OHNmCgB0oo-ofbhE-439">
          <mxGeometry relative="1" as="geometry">
            <Array as="points">
              <mxPoint x="762.31" y="601" />
            </Array>
            <mxPoint x="726.31" y="600.8299999999999" as="targetPoint" />
          </mxGeometry>
        </mxCell>
        <mxCell id="YBp6OHNmCgB0oo-ofbhE-677" value="&lt;font style=&quot;font-size: 10px;&quot;&gt;Activation&lt;br&gt;&lt;/font&gt;" style="rounded=1;whiteSpace=wrap;html=1;fontSize=11;strokeColor=#000000;fillColor=none;" vertex="1" parent="1">
          <mxGeometry x="733.3899999999999" y="610.8299999999999" width="57.92" height="10" as="geometry" />
        </mxCell>
        <mxCell id="YBp6OHNmCgB0oo-ofbhE-678" style="edgeStyle=none;rounded=0;orthogonalLoop=1;jettySize=auto;html=1;exitX=0.5;exitY=0;exitDx=0;exitDy=0;fontFamily=Georgia;fontSize=10;" edge="1" parent="1" source="YBp6OHNmCgB0oo-ofbhE-640">
          <mxGeometry relative="1" as="geometry">
            <mxPoint x="751.31" y="620.8300000000002" as="targetPoint" />
          </mxGeometry>
        </mxCell>
        <mxCell id="YBp6OHNmCgB0oo-ofbhE-679" value="" style="endArrow=classic;html=1;rounded=0;fontFamily=Georgia;fontSize=11;strokeColor=#FF8000;entryX=0.75;entryY=1;entryDx=0;entryDy=0;" edge="1" parent="1" target="YBp6OHNmCgB0oo-ofbhE-677">
          <mxGeometry width="50" height="50" relative="1" as="geometry">
            <mxPoint x="777.31" y="640.8300000000002" as="sourcePoint" />
            <mxPoint x="812.31" y="630.8299999999999" as="targetPoint" />
          </mxGeometry>
        </mxCell>
        <mxCell id="YBp6OHNmCgB0oo-ofbhE-680" value="" style="group" vertex="1" connectable="0" parent="1">
          <mxGeometry x="818.6923076923077" y="610.8299999999999" width="40" height="44.57142857142857" as="geometry" />
        </mxCell>
        <mxCell id="YBp6OHNmCgB0oo-ofbhE-681" value="" style="shape=curlyBracket;whiteSpace=wrap;html=1;rounded=1;flipH=1;fontSize=22;strokeColor=#000000;fillColor=#000000;rotation=-90;size=0.5;" vertex="1" parent="YBp6OHNmCgB0oo-ofbhE-680">
          <mxGeometry x="18.076923076923077" y="36.62142857142857" width="10.769230769230768" height="34.285714285714285" as="geometry" />
        </mxCell>
        <mxCell id="YBp6OHNmCgB0oo-ofbhE-682" value="&lt;font style=&quot;font-size: 11px;&quot;&gt;concat&lt;/font&gt;" style="rounded=1;whiteSpace=wrap;html=1;fontSize=11;strokeColor=#000000;fillColor=none;" vertex="1" parent="YBp6OHNmCgB0oo-ofbhE-680">
          <mxGeometry x="4.14" y="36.05" width="38.65" height="10.43" as="geometry" />
        </mxCell>
        <mxCell id="YBp6OHNmCgB0oo-ofbhE-683" value="" style="rounded=0;whiteSpace=wrap;html=1;fontSize=22;strokeColor=none;fillColor=#99CCFF;" vertex="1" parent="1">
          <mxGeometry x="834.0769230769231" y="671.4514285714286" width="5.384615384615384" height="6.857142857142857" as="geometry" />
        </mxCell>
        <mxCell id="YBp6OHNmCgB0oo-ofbhE-684" value="" style="rounded=0;whiteSpace=wrap;html=1;fontSize=22;strokeColor=none;fillColor=#3399FF;" vertex="1" parent="1">
          <mxGeometry x="834.0769230769231" y="678.3085714285714" width="5.384615384615384" height="6.857142857142857" as="geometry" />
        </mxCell>
        <mxCell id="YBp6OHNmCgB0oo-ofbhE-685" value="" style="rounded=0;whiteSpace=wrap;html=1;fontSize=22;strokeColor=none;fillColor=#99CCFF;" vertex="1" parent="1">
          <mxGeometry x="834.0769230769231" y="685.1657142857143" width="5.384615384615384" height="6.857142857142857" as="geometry" />
        </mxCell>
        <mxCell id="YBp6OHNmCgB0oo-ofbhE-686" value="" style="rounded=0;whiteSpace=wrap;html=1;fontSize=22;strokeColor=none;fillColor=#3399FF;" vertex="1" parent="1">
          <mxGeometry x="834.0769230769231" y="692.0228571428572" width="5.384615384615384" height="6.857142857142857" as="geometry" />
        </mxCell>
        <mxCell id="YBp6OHNmCgB0oo-ofbhE-687" value="" style="rounded=0;whiteSpace=wrap;html=1;fontSize=22;strokeColor=none;fillColor=#97D077;" vertex="1" parent="1">
          <mxGeometry x="845.9961538461539" y="671.4514285714286" width="5.384615384615384" height="6.857142857142857" as="geometry" />
        </mxCell>
        <mxCell id="YBp6OHNmCgB0oo-ofbhE-688" value="" style="rounded=0;whiteSpace=wrap;html=1;fontSize=22;strokeColor=none;fillColor=#B9E0A5;" vertex="1" parent="1">
          <mxGeometry x="845.9961538461539" y="678.3085714285714" width="5.384615384615384" height="6.857142857142857" as="geometry" />
        </mxCell>
        <mxCell id="YBp6OHNmCgB0oo-ofbhE-689" value="" style="rounded=0;whiteSpace=wrap;html=1;fontSize=22;strokeColor=none;fillColor=#97D077;" vertex="1" parent="1">
          <mxGeometry x="845.9961538461539" y="685.1657142857143" width="5.384615384615384" height="10.285714285714285" as="geometry" />
        </mxCell>
        <mxCell id="YBp6OHNmCgB0oo-ofbhE-690" value="" style="rounded=0;whiteSpace=wrap;html=1;fontSize=22;strokeColor=none;fillColor=#B9E0A5;" vertex="1" parent="1">
          <mxGeometry x="845.9961538461539" y="692.0228571428572" width="5.384615384615384" height="6.857142857142857" as="geometry" />
        </mxCell>
        <mxCell id="YBp6OHNmCgB0oo-ofbhE-691" value="" style="ellipse;whiteSpace=wrap;html=1;aspect=fixed;fontSize=11;strokeColor=#000000;fillColor=none;" vertex="1" parent="1">
          <mxGeometry x="834.0769230769231" y="716.0228571428572" width="4.615384615384615" height="4.615384615384615" as="geometry" />
        </mxCell>
        <mxCell id="YBp6OHNmCgB0oo-ofbhE-692" value="" style="ellipse;whiteSpace=wrap;html=1;aspect=fixed;fontSize=11;strokeColor=#000000;fillColor=none;" vertex="1" parent="1">
          <mxGeometry x="845.9961538461539" y="716.0228571428572" width="4.615384615384615" height="4.615384615384615" as="geometry" />
        </mxCell>
        <mxCell id="YBp6OHNmCgB0oo-ofbhE-693" value="" style="endArrow=classic;html=1;rounded=0;fontSize=11;exitX=0.5;exitY=0;exitDx=0;exitDy=0;entryX=0.5;entryY=1;entryDx=0;entryDy=0;" edge="1" parent="1" source="YBp6OHNmCgB0oo-ofbhE-691" target="YBp6OHNmCgB0oo-ofbhE-686">
          <mxGeometry width="50" height="50" relative="1" as="geometry">
            <mxPoint x="-311.0769230769231" y="-58.262857142857115" as="sourcePoint" />
            <mxPoint x="-284.1538461538462" y="-92.54857142857139" as="targetPoint" />
          </mxGeometry>
        </mxCell>
        <mxCell id="YBp6OHNmCgB0oo-ofbhE-694" value="" style="endArrow=classic;html=1;rounded=0;fontSize=11;exitX=0.5;exitY=0;exitDx=0;exitDy=0;entryX=0.5;entryY=1;entryDx=0;entryDy=0;" edge="1" parent="1" source="YBp6OHNmCgB0oo-ofbhE-692" target="YBp6OHNmCgB0oo-ofbhE-690">
          <mxGeometry width="50" height="50" relative="1" as="geometry">
            <mxPoint x="-280.40846153846167" y="3.4514285714285933" as="sourcePoint" />
            <mxPoint x="-280.40846153846167" y="-13.691428571428531" as="targetPoint" />
          </mxGeometry>
        </mxCell>
        <mxCell id="YBp6OHNmCgB0oo-ofbhE-695" value="&lt;font style=&quot;font-size: 9px;&quot; face=&quot;Georgia&quot;&gt;&lt;i&gt;Item &lt;sub&gt;cN&lt;/sub&gt;&lt;/i&gt;&lt;/font&gt;" style="text;html=1;strokeColor=none;fillColor=none;align=center;verticalAlign=middle;whiteSpace=wrap;rounded=0;fontSize=11;" vertex="1" parent="1">
          <mxGeometry x="810.69" y="716.02" width="60" height="20.57" as="geometry" />
        </mxCell>
        <mxCell id="YBp6OHNmCgB0oo-ofbhE-696" style="edgeStyle=orthogonalEdgeStyle;rounded=0;orthogonalLoop=1;jettySize=auto;html=1;exitX=0.5;exitY=0;exitDx=0;exitDy=0;entryX=1;entryY=0.5;entryDx=0;entryDy=0;fontFamily=Georgia;fontSize=11;" edge="1" parent="1" source="YBp6OHNmCgB0oo-ofbhE-697" target="YBp6OHNmCgB0oo-ofbhE-440">
          <mxGeometry relative="1" as="geometry">
            <Array as="points">
              <mxPoint x="853" y="600" />
            </Array>
            <mxPoint x="817.0000000000002" y="600.8299999999999" as="targetPoint" />
          </mxGeometry>
        </mxCell>
        <mxCell id="YBp6OHNmCgB0oo-ofbhE-697" value="&lt;font style=&quot;font-size: 10px;&quot;&gt;Activation&lt;br&gt;&lt;/font&gt;" style="rounded=1;whiteSpace=wrap;html=1;fontSize=11;strokeColor=#000000;fillColor=none;" vertex="1" parent="1">
          <mxGeometry x="824.0799999999999" y="610.8299999999999" width="57.92" height="10" as="geometry" />
        </mxCell>
        <mxCell id="YBp6OHNmCgB0oo-ofbhE-698" style="edgeStyle=none;rounded=0;orthogonalLoop=1;jettySize=auto;html=1;exitX=0.5;exitY=0;exitDx=0;exitDy=0;fontFamily=Georgia;fontSize=10;" edge="1" parent="1" source="YBp6OHNmCgB0oo-ofbhE-682">
          <mxGeometry relative="1" as="geometry">
            <mxPoint x="842" y="620.8300000000002" as="targetPoint" />
          </mxGeometry>
        </mxCell>
        <mxCell id="YBp6OHNmCgB0oo-ofbhE-699" style="edgeStyle=orthogonalEdgeStyle;rounded=0;orthogonalLoop=1;jettySize=auto;html=1;exitX=0;exitY=0.5;exitDx=0;exitDy=0;entryX=0.5;entryY=1;entryDx=0;entryDy=0;fontFamily=Georgia;fontSize=11;" edge="1" parent="1" source="YBp6OHNmCgB0oo-ofbhE-682" target="YBp6OHNmCgB0oo-ofbhE-440">
          <mxGeometry relative="1" as="geometry">
            <Array as="points">
              <mxPoint x="819" y="652" />
              <mxPoint x="819" y="605" />
            </Array>
            <mxPoint x="812.0000000000002" y="605.8299999999999" as="targetPoint" />
          </mxGeometry>
        </mxCell>
        <mxCell id="YBp6OHNmCgB0oo-ofbhE-700" value="" style="endArrow=classic;html=1;rounded=0;fontFamily=Georgia;fontSize=11;strokeColor=#FF8000;entryX=0.75;entryY=1;entryDx=0;entryDy=0;" edge="1" parent="1" target="YBp6OHNmCgB0oo-ofbhE-697">
          <mxGeometry width="50" height="50" relative="1" as="geometry">
            <mxPoint x="868" y="640.8300000000002" as="sourcePoint" />
            <mxPoint x="903" y="630.8299999999999" as="targetPoint" />
          </mxGeometry>
        </mxCell>
        <mxCell id="YBp6OHNmCgB0oo-ofbhE-701" style="edgeStyle=orthogonalEdgeStyle;rounded=0;orthogonalLoop=1;jettySize=auto;html=1;exitX=0.5;exitY=0;exitDx=0;exitDy=0;entryX=1;entryY=1;entryDx=0;entryDy=0;" edge="1" parent="1" source="YBp6OHNmCgB0oo-ofbhE-702" target="YBp6OHNmCgB0oo-ofbhE-711">
          <mxGeometry relative="1" as="geometry">
            <mxPoint x="360" y="338.05" as="targetPoint" />
          </mxGeometry>
        </mxCell>
        <mxCell id="YBp6OHNmCgB0oo-ofbhE-702" value="点击短序列&lt;br&gt;Target&lt;br&gt;Attention" style="rounded=0;whiteSpace=wrap;html=1;strokeColor=#000000;" vertex="1" parent="1">
          <mxGeometry x="320" y="415.87999999999994" width="80" height="170" as="geometry" />
        </mxCell>
        <mxCell id="YBp6OHNmCgB0oo-ofbhE-703" style="edgeStyle=orthogonalEdgeStyle;rounded=0;orthogonalLoop=1;jettySize=auto;html=1;exitX=0.5;exitY=0;exitDx=0;exitDy=0;entryX=0;entryY=1;entryDx=0;entryDy=0;" edge="1" parent="1" source="YBp6OHNmCgB0oo-ofbhE-704" target="YBp6OHNmCgB0oo-ofbhE-726">
          <mxGeometry relative="1" as="geometry">
            <mxPoint x="270" y="338.05" as="targetPoint" />
          </mxGeometry>
        </mxCell>
        <mxCell id="YBp6OHNmCgB0oo-ofbhE-704" value="点击长序列&lt;br&gt;Mean Pooling" style="rounded=0;whiteSpace=wrap;html=1;strokeColor=#000000;" vertex="1" parent="1">
          <mxGeometry x="230" y="415.87999999999994" width="80" height="170" as="geometry" />
        </mxCell>
        <mxCell id="YBp6OHNmCgB0oo-ofbhE-705" value="" style="group" vertex="1" connectable="0" parent="1">
          <mxGeometry x="320" y="353.71000000000004" width="80" height="10" as="geometry" />
        </mxCell>
        <mxCell id="YBp6OHNmCgB0oo-ofbhE-706" value="" style="group;fillColor=#fff2cc;strokeColor=#d6b656;" vertex="1" connectable="0" parent="YBp6OHNmCgB0oo-ofbhE-705">
          <mxGeometry width="40" height="10" as="geometry" />
        </mxCell>
        <mxCell id="YBp6OHNmCgB0oo-ofbhE-707" value="" style="rounded=0;whiteSpace=wrap;html=1;fontSize=22;strokeColor=#82b366;fillColor=#d5e8d4;" vertex="1" parent="YBp6OHNmCgB0oo-ofbhE-706">
          <mxGeometry width="10" height="10" as="geometry" />
        </mxCell>
        <mxCell id="YBp6OHNmCgB0oo-ofbhE-708" style="edgeStyle=none;rounded=0;orthogonalLoop=1;jettySize=auto;html=1;exitX=1;exitY=1;exitDx=0;exitDy=0;fontSize=22;strokeColor=none;" edge="1" parent="YBp6OHNmCgB0oo-ofbhE-706" source="YBp6OHNmCgB0oo-ofbhE-707" target="YBp6OHNmCgB0oo-ofbhE-707">
          <mxGeometry relative="1" as="geometry" />
        </mxCell>
        <mxCell id="YBp6OHNmCgB0oo-ofbhE-709" value="" style="rounded=0;whiteSpace=wrap;html=1;fontSize=22;strokeColor=#d6b656;fillColor=#fff2cc;" vertex="1" parent="YBp6OHNmCgB0oo-ofbhE-706">
          <mxGeometry x="10" width="10" height="10" as="geometry" />
        </mxCell>
        <mxCell id="YBp6OHNmCgB0oo-ofbhE-710" value="" style="rounded=0;whiteSpace=wrap;html=1;fontSize=22;strokeColor=#82b366;fillColor=#d5e8d4;" vertex="1" parent="YBp6OHNmCgB0oo-ofbhE-706">
          <mxGeometry x="20" width="10" height="10" as="geometry" />
        </mxCell>
        <mxCell id="YBp6OHNmCgB0oo-ofbhE-711" value="" style="rounded=0;whiteSpace=wrap;html=1;fontSize=22;strokeColor=#d6b656;fillColor=#fff2cc;" vertex="1" parent="YBp6OHNmCgB0oo-ofbhE-706">
          <mxGeometry x="30" width="10" height="10" as="geometry" />
        </mxCell>
        <mxCell id="YBp6OHNmCgB0oo-ofbhE-712" value="" style="group;fillColor=#dae8fc;strokeColor=#6c8ebf;" vertex="1" connectable="0" parent="YBp6OHNmCgB0oo-ofbhE-705">
          <mxGeometry x="40" width="40" height="10" as="geometry" />
        </mxCell>
        <mxCell id="YBp6OHNmCgB0oo-ofbhE-713" value="" style="rounded=0;whiteSpace=wrap;html=1;fontSize=22;strokeColor=#82b366;fillColor=#d5e8d4;" vertex="1" parent="YBp6OHNmCgB0oo-ofbhE-712">
          <mxGeometry width="10" height="10" as="geometry" />
        </mxCell>
        <mxCell id="YBp6OHNmCgB0oo-ofbhE-714" style="edgeStyle=none;rounded=0;orthogonalLoop=1;jettySize=auto;html=1;exitX=1;exitY=1;exitDx=0;exitDy=0;fontSize=22;strokeColor=none;" edge="1" parent="YBp6OHNmCgB0oo-ofbhE-712" source="YBp6OHNmCgB0oo-ofbhE-713" target="YBp6OHNmCgB0oo-ofbhE-713">
          <mxGeometry relative="1" as="geometry" />
        </mxCell>
        <mxCell id="YBp6OHNmCgB0oo-ofbhE-715" value="" style="rounded=0;whiteSpace=wrap;html=1;fontSize=22;strokeColor=#d6b656;fillColor=#fff2cc;" vertex="1" parent="YBp6OHNmCgB0oo-ofbhE-712">
          <mxGeometry x="10" width="10" height="10" as="geometry" />
        </mxCell>
        <mxCell id="YBp6OHNmCgB0oo-ofbhE-716" value="" style="rounded=0;whiteSpace=wrap;html=1;fontSize=22;strokeColor=#82b366;fillColor=#d5e8d4;" vertex="1" parent="YBp6OHNmCgB0oo-ofbhE-712">
          <mxGeometry x="20" width="10" height="10" as="geometry" />
        </mxCell>
        <mxCell id="YBp6OHNmCgB0oo-ofbhE-717" value="" style="rounded=0;whiteSpace=wrap;html=1;fontSize=22;strokeColor=#d6b656;fillColor=#fff2cc;" vertex="1" parent="YBp6OHNmCgB0oo-ofbhE-712">
          <mxGeometry x="30" width="10" height="10" as="geometry" />
        </mxCell>
        <mxCell id="YBp6OHNmCgB0oo-ofbhE-718" value="" style="group" vertex="1" connectable="0" parent="1">
          <mxGeometry x="230" y="353.71000000000004" width="80" height="10" as="geometry" />
        </mxCell>
        <mxCell id="YBp6OHNmCgB0oo-ofbhE-719" value="" style="group;fillColor=#dae8fc;strokeColor=#6c8ebf;" vertex="1" connectable="0" parent="YBp6OHNmCgB0oo-ofbhE-718">
          <mxGeometry width="40" height="10" as="geometry" />
        </mxCell>
        <mxCell id="YBp6OHNmCgB0oo-ofbhE-720" value="" style="rounded=0;whiteSpace=wrap;html=1;fontSize=22;strokeColor=#82b366;fillColor=#d5e8d4;" vertex="1" parent="YBp6OHNmCgB0oo-ofbhE-719">
          <mxGeometry width="10" height="10" as="geometry" />
        </mxCell>
        <mxCell id="YBp6OHNmCgB0oo-ofbhE-721" style="edgeStyle=none;rounded=0;orthogonalLoop=1;jettySize=auto;html=1;exitX=1;exitY=1;exitDx=0;exitDy=0;fontSize=22;strokeColor=none;" edge="1" parent="YBp6OHNmCgB0oo-ofbhE-719" source="YBp6OHNmCgB0oo-ofbhE-720" target="YBp6OHNmCgB0oo-ofbhE-720">
          <mxGeometry relative="1" as="geometry" />
        </mxCell>
        <mxCell id="YBp6OHNmCgB0oo-ofbhE-722" value="" style="rounded=0;whiteSpace=wrap;html=1;fontSize=22;strokeColor=#d6b656;fillColor=#fff2cc;" vertex="1" parent="YBp6OHNmCgB0oo-ofbhE-719">
          <mxGeometry x="10" width="10" height="10" as="geometry" />
        </mxCell>
        <mxCell id="YBp6OHNmCgB0oo-ofbhE-723" value="" style="rounded=0;whiteSpace=wrap;html=1;fontSize=22;strokeColor=#82b366;fillColor=#d5e8d4;" vertex="1" parent="YBp6OHNmCgB0oo-ofbhE-719">
          <mxGeometry x="20" width="10" height="10" as="geometry" />
        </mxCell>
        <mxCell id="YBp6OHNmCgB0oo-ofbhE-724" value="" style="rounded=0;whiteSpace=wrap;html=1;fontSize=22;strokeColor=#d6b656;fillColor=#fff2cc;" vertex="1" parent="YBp6OHNmCgB0oo-ofbhE-719">
          <mxGeometry x="30" width="10" height="10" as="geometry" />
        </mxCell>
        <mxCell id="YBp6OHNmCgB0oo-ofbhE-725" value="" style="group;fillColor=#fff2cc;strokeColor=#d6b656;" vertex="1" connectable="0" parent="YBp6OHNmCgB0oo-ofbhE-718">
          <mxGeometry x="40" width="40" height="10" as="geometry" />
        </mxCell>
        <mxCell id="YBp6OHNmCgB0oo-ofbhE-726" value="" style="rounded=0;whiteSpace=wrap;html=1;fontSize=22;strokeColor=#82b366;fillColor=#d5e8d4;" vertex="1" parent="YBp6OHNmCgB0oo-ofbhE-725">
          <mxGeometry width="10" height="10" as="geometry" />
        </mxCell>
        <mxCell id="YBp6OHNmCgB0oo-ofbhE-727" style="edgeStyle=none;rounded=0;orthogonalLoop=1;jettySize=auto;html=1;exitX=1;exitY=1;exitDx=0;exitDy=0;fontSize=22;strokeColor=none;" edge="1" parent="YBp6OHNmCgB0oo-ofbhE-725" source="YBp6OHNmCgB0oo-ofbhE-726" target="YBp6OHNmCgB0oo-ofbhE-726">
          <mxGeometry relative="1" as="geometry" />
        </mxCell>
        <mxCell id="YBp6OHNmCgB0oo-ofbhE-728" value="" style="rounded=0;whiteSpace=wrap;html=1;fontSize=22;strokeColor=#d6b656;fillColor=#fff2cc;" vertex="1" parent="YBp6OHNmCgB0oo-ofbhE-725">
          <mxGeometry x="10" width="10" height="10" as="geometry" />
        </mxCell>
        <mxCell id="YBp6OHNmCgB0oo-ofbhE-729" value="" style="rounded=0;whiteSpace=wrap;html=1;fontSize=22;strokeColor=#82b366;fillColor=#d5e8d4;" vertex="1" parent="YBp6OHNmCgB0oo-ofbhE-725">
          <mxGeometry x="20" width="10" height="10" as="geometry" />
        </mxCell>
        <mxCell id="YBp6OHNmCgB0oo-ofbhE-730" value="" style="rounded=0;whiteSpace=wrap;html=1;fontSize=22;strokeColor=#d6b656;fillColor=#fff2cc;" vertex="1" parent="YBp6OHNmCgB0oo-ofbhE-725">
          <mxGeometry x="30" width="10" height="10" as="geometry" />
        </mxCell>
        <mxCell id="YBp6OHNmCgB0oo-ofbhE-731" value="" style="group" vertex="1" connectable="0" parent="1">
          <mxGeometry x="530.63" y="557.7999999999998" width="50" height="110" as="geometry" />
        </mxCell>
        <mxCell id="YBp6OHNmCgB0oo-ofbhE-732" value="" style="group" vertex="1" connectable="0" parent="YBp6OHNmCgB0oo-ofbhE-731">
          <mxGeometry x="-4.47" y="36.95" width="50" height="68" as="geometry" />
        </mxCell>
        <mxCell id="YBp6OHNmCgB0oo-ofbhE-733" value="" style="shape=curlyBracket;whiteSpace=wrap;html=1;rounded=1;flipH=1;fontSize=22;strokeColor=#000000;fillColor=#000000;rotation=-90;size=0.5;" vertex="1" parent="YBp6OHNmCgB0oo-ofbhE-732">
          <mxGeometry x="15" y="33" width="20" height="50" as="geometry" />
        </mxCell>
        <mxCell id="YBp6OHNmCgB0oo-ofbhE-734" value="&lt;font style=&quot;font-size: 11px;&quot;&gt;concat&lt;/font&gt;" style="rounded=1;whiteSpace=wrap;html=1;fontSize=11;strokeColor=#000000;fillColor=none;" vertex="1" parent="YBp6OHNmCgB0oo-ofbhE-732">
          <mxGeometry x="2.5" y="23" width="45" height="20" as="geometry" />
        </mxCell>
        <mxCell id="YBp6OHNmCgB0oo-ofbhE-735" value="" style="group" vertex="1" connectable="0" parent="YBp6OHNmCgB0oo-ofbhE-732">
          <mxGeometry x="7.5" width="40" height="10" as="geometry" />
        </mxCell>
        <mxCell id="YBp6OHNmCgB0oo-ofbhE-736" value="" style="rounded=0;whiteSpace=wrap;html=1;fontSize=22;strokeColor=none;fillColor=#CDA2BE;" vertex="1" parent="YBp6OHNmCgB0oo-ofbhE-735">
          <mxGeometry width="10" height="10" as="geometry" />
        </mxCell>
        <mxCell id="YBp6OHNmCgB0oo-ofbhE-737" style="edgeStyle=none;rounded=0;orthogonalLoop=1;jettySize=auto;html=1;exitX=1;exitY=1;exitDx=0;exitDy=0;fontSize=22;strokeColor=none;" edge="1" parent="YBp6OHNmCgB0oo-ofbhE-735" source="YBp6OHNmCgB0oo-ofbhE-736" target="YBp6OHNmCgB0oo-ofbhE-736">
          <mxGeometry relative="1" as="geometry" />
        </mxCell>
        <mxCell id="YBp6OHNmCgB0oo-ofbhE-738" value="" style="rounded=0;whiteSpace=wrap;html=1;fontSize=22;strokeColor=none;fillColor=#FFCE9F;" vertex="1" parent="YBp6OHNmCgB0oo-ofbhE-735">
          <mxGeometry x="10" width="10" height="10" as="geometry" />
        </mxCell>
        <mxCell id="YBp6OHNmCgB0oo-ofbhE-739" value="" style="rounded=0;whiteSpace=wrap;html=1;fontSize=22;strokeColor=none;fillColor=#CDA2BE;" vertex="1" parent="YBp6OHNmCgB0oo-ofbhE-735">
          <mxGeometry x="20" width="10" height="10" as="geometry" />
        </mxCell>
        <mxCell id="YBp6OHNmCgB0oo-ofbhE-740" value="" style="rounded=0;whiteSpace=wrap;html=1;fontSize=22;strokeColor=none;fillColor=#FFCE9F;" vertex="1" parent="YBp6OHNmCgB0oo-ofbhE-735">
          <mxGeometry x="30" width="10" height="10" as="geometry" />
        </mxCell>
        <mxCell id="YBp6OHNmCgB0oo-ofbhE-741" value="" style="rounded=0;whiteSpace=wrap;html=1;fontSize=22;strokeColor=none;fillColor=#CDA2BE;" vertex="1" parent="1">
          <mxGeometry x="538.13" y="667.7999999999998" width="10" height="10" as="geometry" />
        </mxCell>
        <mxCell id="YBp6OHNmCgB0oo-ofbhE-742" value="" style="rounded=0;whiteSpace=wrap;html=1;fontSize=22;strokeColor=none;fillColor=#E6D0DE;" vertex="1" parent="1">
          <mxGeometry x="538.13" y="677.7999999999998" width="10" height="10" as="geometry" />
        </mxCell>
        <mxCell id="YBp6OHNmCgB0oo-ofbhE-743" value="" style="rounded=0;whiteSpace=wrap;html=1;fontSize=22;strokeColor=none;fillColor=#CDA2BE;" vertex="1" parent="1">
          <mxGeometry x="538.13" y="687.7999999999998" width="10" height="10" as="geometry" />
        </mxCell>
        <mxCell id="YBp6OHNmCgB0oo-ofbhE-744" value="" style="rounded=0;whiteSpace=wrap;html=1;fontSize=22;strokeColor=none;fillColor=#E6D0DE;" vertex="1" parent="1">
          <mxGeometry x="538.13" y="697.7999999999998" width="10" height="10" as="geometry" />
        </mxCell>
        <mxCell id="YBp6OHNmCgB0oo-ofbhE-745" value="" style="rounded=0;whiteSpace=wrap;html=1;fontSize=22;strokeColor=none;fillColor=#FFB570;" vertex="1" parent="1">
          <mxGeometry x="558.13" y="667.7999999999998" width="10" height="10" as="geometry" />
        </mxCell>
        <mxCell id="YBp6OHNmCgB0oo-ofbhE-746" value="" style="rounded=0;whiteSpace=wrap;html=1;fontSize=22;strokeColor=none;fillColor=#FFCE9F;" vertex="1" parent="1">
          <mxGeometry x="558.13" y="677.7999999999998" width="10" height="10" as="geometry" />
        </mxCell>
        <mxCell id="YBp6OHNmCgB0oo-ofbhE-747" value="" style="rounded=0;whiteSpace=wrap;html=1;fontSize=22;strokeColor=none;fillColor=#FFB570;" vertex="1" parent="1">
          <mxGeometry x="558.13" y="687.7999999999998" width="10" height="15" as="geometry" />
        </mxCell>
        <mxCell id="YBp6OHNmCgB0oo-ofbhE-748" value="" style="rounded=0;whiteSpace=wrap;html=1;fontSize=22;strokeColor=none;fillColor=#FFCE9F;" vertex="1" parent="1">
          <mxGeometry x="558.13" y="697.7999999999998" width="10" height="10" as="geometry" />
        </mxCell>
        <mxCell id="YBp6OHNmCgB0oo-ofbhE-749" value="" style="ellipse;whiteSpace=wrap;html=1;aspect=fixed;fontSize=11;strokeColor=#000000;fillColor=none;" vertex="1" parent="1">
          <mxGeometry x="538.13" y="732.7999999999998" width="10" height="10" as="geometry" />
        </mxCell>
        <mxCell id="YBp6OHNmCgB0oo-ofbhE-750" value="" style="ellipse;whiteSpace=wrap;html=1;aspect=fixed;fontSize=11;strokeColor=#000000;fillColor=none;" vertex="1" parent="1">
          <mxGeometry x="558.13" y="732.7999999999998" width="10" height="10" as="geometry" />
        </mxCell>
        <mxCell id="YBp6OHNmCgB0oo-ofbhE-751" value="" style="endArrow=classic;html=1;rounded=0;fontSize=11;exitX=0.5;exitY=0;exitDx=0;exitDy=0;entryX=0.5;entryY=1;entryDx=0;entryDy=0;" edge="1" parent="1" source="YBp6OHNmCgB0oo-ofbhE-749" target="YBp6OHNmCgB0oo-ofbhE-744">
          <mxGeometry width="50" height="50" relative="1" as="geometry">
            <mxPoint x="508.13" y="642.7999999999998" as="sourcePoint" />
            <mxPoint x="558.13" y="592.7999999999998" as="targetPoint" />
          </mxGeometry>
        </mxCell>
        <mxCell id="YBp6OHNmCgB0oo-ofbhE-752" value="" style="endArrow=classic;html=1;rounded=0;fontSize=11;exitX=0.5;exitY=0;exitDx=0;exitDy=0;entryX=0.5;entryY=1;entryDx=0;entryDy=0;" edge="1" parent="1" source="YBp6OHNmCgB0oo-ofbhE-750" target="YBp6OHNmCgB0oo-ofbhE-748">
          <mxGeometry width="50" height="50" relative="1" as="geometry">
            <mxPoint x="562.9499999999999" y="732.7999999999998" as="sourcePoint" />
            <mxPoint x="562.9499999999999" y="707.7999999999998" as="targetPoint" />
          </mxGeometry>
        </mxCell>
        <mxCell id="YBp6OHNmCgB0oo-ofbhE-753" value="Coupons&lt;br&gt;Features" style="text;html=1;strokeColor=none;fillColor=none;align=center;verticalAlign=middle;whiteSpace=wrap;rounded=0;fontSize=11;" vertex="1" parent="1">
          <mxGeometry x="523.13" y="747.8" width="65" height="30" as="geometry" />
        </mxCell>
        <mxCell id="YBp6OHNmCgB0oo-ofbhE-754" value="" style="endArrow=classic;html=1;rounded=0;fontFamily=Georgia;fontSize=11;strokeColor=#000000;exitX=0;exitY=0;exitDx=0;exitDy=0;" edge="1" parent="1" source="YBp6OHNmCgB0oo-ofbhE-739">
          <mxGeometry width="50" height="50" relative="1" as="geometry">
            <mxPoint x="556.13" y="602.7999999999998" as="sourcePoint" />
            <mxPoint x="553.5" y="568.92" as="targetPoint" />
          </mxGeometry>
        </mxCell>
        <mxCell id="YBp6OHNmCgB0oo-ofbhE-755" style="edgeStyle=orthogonalEdgeStyle;rounded=0;orthogonalLoop=1;jettySize=auto;html=1;exitX=0.5;exitY=0;exitDx=0;exitDy=0;entryX=0.5;entryY=1;entryDx=0;entryDy=0;strokeColor=#000000;fontSize=14;" edge="1" parent="1" source="YBp6OHNmCgB0oo-ofbhE-756" target="YBp6OHNmCgB0oo-ofbhE-758">
          <mxGeometry relative="1" as="geometry" />
        </mxCell>
        <mxCell id="YBp6OHNmCgB0oo-ofbhE-756" value="Predict Score" style="rounded=0;whiteSpace=wrap;html=1;fillColor=#f5f5f5;strokeColor=#666666;fontColor=#333333;" vertex="1" parent="1">
          <mxGeometry x="476.87" y="405" width="76.7" height="20" as="geometry" />
        </mxCell>
        <mxCell id="YBp6OHNmCgB0oo-ofbhE-757" style="edgeStyle=orthogonalEdgeStyle;rounded=0;orthogonalLoop=1;jettySize=auto;html=1;exitX=0.5;exitY=0;exitDx=0;exitDy=0;fontFamily=Times New Roman;fontColor=#000000;" edge="1" parent="1" source="YBp6OHNmCgB0oo-ofbhE-758">
          <mxGeometry relative="1" as="geometry">
            <mxPoint x="512.36" y="360" as="targetPoint" />
          </mxGeometry>
        </mxCell>
        <mxCell id="YBp6OHNmCgB0oo-ofbhE-758" value="" style="ellipse;whiteSpace=wrap;html=1;aspect=fixed;" vertex="1" parent="1">
          <mxGeometry x="507.3" y="375.42" width="10.83" height="10.83" as="geometry" />
        </mxCell>
        <mxCell id="YBp6OHNmCgB0oo-ofbhE-759" style="edgeStyle=orthogonalEdgeStyle;rounded=0;orthogonalLoop=1;jettySize=auto;html=1;exitX=1;exitY=0.5;exitDx=0;exitDy=0;fontColor=#000000;" edge="1" parent="1" source="YBp6OHNmCgB0oo-ofbhE-760">
          <mxGeometry relative="1" as="geometry">
            <mxPoint x="506.36" y="380" as="targetPoint" />
            <Array as="points" />
          </mxGeometry>
        </mxCell>
        <mxCell id="YBp6OHNmCgB0oo-ofbhE-760" value="&lt;font style=&quot;font-size: 14px;&quot; color=&quot;#000000&quot;&gt;核销Label&lt;/font&gt;" style="text;html=1;strokeColor=none;fillColor=none;align=center;verticalAlign=middle;whiteSpace=wrap;rounded=0;fontColor=#FF8000;" vertex="1" parent="1">
          <mxGeometry x="420.16999999999996" y="365" width="66.19" height="30" as="geometry" />
        </mxCell>
        <mxCell id="YBp6OHNmCgB0oo-ofbhE-761" style="edgeStyle=orthogonalEdgeStyle;rounded=0;orthogonalLoop=1;jettySize=auto;html=1;entryX=0.5;entryY=1;entryDx=0;entryDy=0;" edge="1" parent="1" target="YBp6OHNmCgB0oo-ofbhE-756">
          <mxGeometry relative="1" as="geometry">
            <mxPoint x="516" y="460" as="sourcePoint" />
            <mxPoint x="526.16" y="465.83000000000004" as="targetPoint" />
          </mxGeometry>
        </mxCell>
        <mxCell id="YBp6OHNmCgB0oo-ofbhE-762" value="&lt;font style=&quot;font-size: 18px;&quot; face=&quot;Times New Roman&quot;&gt;&lt;i style=&quot;&quot;&gt;Loss&lt;sub style=&quot;&quot;&gt;c&lt;/sub&gt;&lt;/i&gt;&lt;/font&gt;" style="text;html=1;strokeColor=none;fillColor=none;align=center;verticalAlign=middle;whiteSpace=wrap;rounded=0;fontColor=#FF0000;" vertex="1" parent="1">
          <mxGeometry x="486.46999999999997" y="335.00000000000006" width="57.5" height="30" as="geometry" />
        </mxCell>
        <mxCell id="YBp6OHNmCgB0oo-ofbhE-763" value="&lt;i&gt;E&lt;sub&gt;click-short&lt;/sub&gt;&lt;/i&gt;" style="text;html=1;strokeColor=none;fillColor=none;align=center;verticalAlign=middle;whiteSpace=wrap;rounded=0;fontFamily=Times New Roman;" vertex="1" parent="1">
          <mxGeometry x="290" y="375.42" width="70" height="30" as="geometry" />
        </mxCell>
        <mxCell id="YBp6OHNmCgB0oo-ofbhE-764" value="&lt;i&gt;E&lt;sub&gt;click-long&lt;/sub&gt;&lt;/i&gt;" style="text;html=1;strokeColor=none;fillColor=none;align=center;verticalAlign=middle;whiteSpace=wrap;rounded=0;fontFamily=Times New Roman;" vertex="1" parent="1">
          <mxGeometry x="200" y="375.00000000000006" width="70" height="30" as="geometry" />
        </mxCell>
        <mxCell id="YBp6OHNmCgB0oo-ofbhE-765" value="&lt;font style=&quot;font-size: 18px;&quot; color=&quot;#ff0000&quot; face=&quot;Times New Roman&quot;&gt;&lt;i style=&quot;&quot;&gt;Loss&lt;sub style=&quot;&quot;&gt;ctr&lt;/sub&gt;&lt;/i&gt;&lt;/font&gt;" style="text;html=1;strokeColor=none;fillColor=none;align=center;verticalAlign=middle;whiteSpace=wrap;rounded=0;fontColor=#FF8000;" vertex="1" parent="1">
          <mxGeometry x="464.27" y="67.5" width="57.5" height="30" as="geometry" />
        </mxCell>
        <mxCell id="YBp6OHNmCgB0oo-ofbhE-766" style="edgeStyle=orthogonalEdgeStyle;rounded=0;orthogonalLoop=1;jettySize=auto;html=1;exitX=1;exitY=0.5;exitDx=0;exitDy=0;entryX=0;entryY=0.5;entryDx=0;entryDy=0;fontFamily=Times New Roman;fontColor=#000000;" edge="1" parent="1" source="YBp6OHNmCgB0oo-ofbhE-767" target="YBp6OHNmCgB0oo-ofbhE-625">
          <mxGeometry relative="1" as="geometry" />
        </mxCell>
        <mxCell id="YBp6OHNmCgB0oo-ofbhE-767" value="&lt;font style=&quot;font-size: 14px;&quot; color=&quot;#000000&quot;&gt;点击Label&lt;/font&gt;" style="text;html=1;strokeColor=none;fillColor=none;align=center;verticalAlign=middle;whiteSpace=wrap;rounded=0;fontColor=#FF8000;" vertex="1" parent="1">
          <mxGeometry x="370" y="105" width="70" height="30" as="geometry" />
        </mxCell>
        <mxCell id="YBp6OHNmCgB0oo-ofbhE-768" style="edgeStyle=orthogonalEdgeStyle;rounded=0;orthogonalLoop=1;jettySize=auto;html=1;exitX=1;exitY=0.5;exitDx=0;exitDy=0;fontFamily=Times New Roman;fontColor=#000000;" edge="1" parent="1" source="YBp6OHNmCgB0oo-ofbhE-769">
          <mxGeometry relative="1" as="geometry">
            <mxPoint x="606" y="50" as="targetPoint" />
          </mxGeometry>
        </mxCell>
        <mxCell id="YBp6OHNmCgB0oo-ofbhE-769" value="&lt;font style=&quot;font-size: 14px;&quot; color=&quot;#000000&quot;&gt;购买Label&lt;/font&gt;" style="text;html=1;strokeColor=none;fillColor=none;align=center;verticalAlign=middle;whiteSpace=wrap;rounded=0;fontColor=#FF8000;" vertex="1" parent="1">
          <mxGeometry x="490" y="32.5" width="70" height="35" as="geometry" />
        </mxCell>
        <mxCell id="YBp6OHNmCgB0oo-ofbhE-770" style="edgeStyle=orthogonalEdgeStyle;rounded=0;orthogonalLoop=1;jettySize=auto;html=1;exitX=0.5;exitY=0;exitDx=0;exitDy=0;fontFamily=Times New Roman;fontColor=#FF0000;" edge="1" parent="1" source="YBp6OHNmCgB0oo-ofbhE-771">
          <mxGeometry relative="1" as="geometry">
            <mxPoint x="618.8181818181815" y="20" as="targetPoint" />
          </mxGeometry>
        </mxCell>
        <mxCell id="YBp6OHNmCgB0oo-ofbhE-771" value="" style="ellipse;whiteSpace=wrap;html=1;aspect=fixed;" vertex="1" parent="1">
          <mxGeometry x="608.5" y="40" width="20" height="20" as="geometry" />
        </mxCell>
        <mxCell id="YBp6OHNmCgB0oo-ofbhE-772" value="&lt;font style=&quot;font-size: 18px;&quot; color=&quot;#ff0000&quot; face=&quot;Times New Roman&quot;&gt;&lt;i style=&quot;&quot;&gt;Loss&lt;sub style=&quot;&quot;&gt;ctvr&lt;/sub&gt;&lt;/i&gt;&lt;/font&gt;" style="text;html=1;strokeColor=none;fillColor=none;align=center;verticalAlign=middle;whiteSpace=wrap;rounded=0;fontColor=#FF8000;" vertex="1" parent="1">
          <mxGeometry x="592.5" y="-10" width="57.5" height="30" as="geometry" />
        </mxCell>
        <mxCell id="YBp6OHNmCgB0oo-ofbhE-773" value="&lt;font style=&quot;font-size: 18px;&quot;&gt;&lt;font face=&quot;Times New Roman&quot;&gt;&lt;i&gt;&lt;b&gt;Loss&amp;nbsp;= &lt;/b&gt;&lt;/i&gt;&lt;/font&gt;&lt;i style=&quot;font-family: &amp;quot;Times New Roman&amp;quot;;&quot;&gt;Loss&lt;sub&gt;c +&amp;nbsp;&lt;/sub&gt;&lt;/i&gt;&lt;i style=&quot;font-family: &amp;quot;Times New Roman&amp;quot;;&quot;&gt;Loss&lt;sub&gt;ctr +&amp;nbsp;&lt;/sub&gt;&lt;/i&gt;&lt;i style=&quot;font-family: &amp;quot;Times New Roman&amp;quot;;&quot;&gt;Loss&lt;sub&gt;ctvr&lt;/sub&gt;&lt;/i&gt;&lt;font face=&quot;Times New Roman&quot;&gt;&lt;i&gt;&lt;b&gt;&lt;br&gt;&lt;/b&gt;&lt;/i&gt;&lt;/font&gt;&lt;/font&gt;&lt;span style=&quot;color: rgba(0, 0, 0, 0); font-family: monospace; font-size: 0px; text-align: start;&quot;&gt;%3CmxGraphModel%3E%3Croot%3E%3CmxCell%20id%3D%220%22%2F%3E%3CmxCell%20id%3D%221%22%20parent%3D%220%22%2F%3E%3CmxCell%20id%3D%222%22%20value%3D%22%26lt%3Bfont%20face%3D%26quot%3BTimes%20New%20Roman%26quot%3B%26gt%3B%26lt%3Bi%26gt%3BLoss%26lt%3Bsub%26gt%3Bc%26lt%3B%2Fsub%26gt%3B%26lt%3B%2Fi%26gt%3B%26lt%3B%2Ffont%26gt%3B%22%20style%3D%22text%3Bhtml%3D1%3BstrokeColor%3Dnone%3BfillColor%3Dnone%3Balign%3Dcenter%3BverticalAlign%3Dmiddle%3BwhiteSpace%3Dwrap%3Brounded%3D0%3BfontColor%3D%23FF0000%3B%22%20vertex%3D%221%22%20parent%3D%221%22%3E%3CmxGeometry%20x%3D%22-122.5%22%20y%3D%2295%22%20width%3D%2257.5%22%20height%3D%2230%22%20as%3D%22geometry%22%2F%3E%3C%2FmxCell%3E%3C%2Froot%3E%3C%2FmxGraphModel%3&lt;/span&gt;" style="text;html=1;strokeColor=none;fillColor=none;align=center;verticalAlign=middle;whiteSpace=wrap;rounded=0;fontColor=#FF0000;" vertex="1" parent="1">
          <mxGeometry x="901.58" y="140" width="290.92" height="75" as="geometry" />
        </mxCell>
        <mxCell id="YBp6OHNmCgB0oo-ofbhE-774" value="" style="group" vertex="1" connectable="0" parent="1">
          <mxGeometry x="475.21999999999997" y="455.65999999999997" width="80" height="10" as="geometry" />
        </mxCell>
        <mxCell id="YBp6OHNmCgB0oo-ofbhE-775" value="" style="group;fillColor=#fff2cc;strokeColor=#d6b656;" vertex="1" connectable="0" parent="YBp6OHNmCgB0oo-ofbhE-774">
          <mxGeometry width="40" height="10" as="geometry" />
        </mxCell>
        <mxCell id="YBp6OHNmCgB0oo-ofbhE-776" value="" style="rounded=0;whiteSpace=wrap;html=1;fontSize=22;strokeColor=#2D7600;fillColor=#60a917;fontColor=#ffffff;" vertex="1" parent="YBp6OHNmCgB0oo-ofbhE-775">
          <mxGeometry width="10" height="10" as="geometry" />
        </mxCell>
        <mxCell id="YBp6OHNmCgB0oo-ofbhE-777" style="edgeStyle=none;rounded=0;orthogonalLoop=1;jettySize=auto;html=1;exitX=1;exitY=1;exitDx=0;exitDy=0;fontSize=22;strokeColor=none;" edge="1" parent="YBp6OHNmCgB0oo-ofbhE-775" source="YBp6OHNmCgB0oo-ofbhE-776" target="YBp6OHNmCgB0oo-ofbhE-776">
          <mxGeometry relative="1" as="geometry" />
        </mxCell>
        <mxCell id="YBp6OHNmCgB0oo-ofbhE-778" value="" style="rounded=0;whiteSpace=wrap;html=1;fontSize=22;strokeColor=#432D57;fillColor=#76608a;" vertex="1" parent="YBp6OHNmCgB0oo-ofbhE-775">
          <mxGeometry x="10" width="10" height="10" as="geometry" />
        </mxCell>
        <mxCell id="YBp6OHNmCgB0oo-ofbhE-779" value="" style="rounded=0;whiteSpace=wrap;html=1;fontSize=22;strokeColor=#2D7600;fillColor=#60a917;fontColor=#ffffff;" vertex="1" parent="YBp6OHNmCgB0oo-ofbhE-775">
          <mxGeometry x="20" width="10" height="10" as="geometry" />
        </mxCell>
        <mxCell id="YBp6OHNmCgB0oo-ofbhE-780" value="" style="rounded=0;whiteSpace=wrap;html=1;fontSize=22;strokeColor=#432D57;fillColor=#76608a;" vertex="1" parent="YBp6OHNmCgB0oo-ofbhE-775">
          <mxGeometry x="30" width="10" height="10" as="geometry" />
        </mxCell>
        <mxCell id="YBp6OHNmCgB0oo-ofbhE-781" value="" style="group;fillColor=#dae8fc;strokeColor=#6c8ebf;" vertex="1" connectable="0" parent="YBp6OHNmCgB0oo-ofbhE-774">
          <mxGeometry x="40" width="40" height="10" as="geometry" />
        </mxCell>
        <mxCell id="YBp6OHNmCgB0oo-ofbhE-782" value="" style="rounded=0;whiteSpace=wrap;html=1;fontSize=22;strokeColor=#2D7600;fillColor=#60a917;fontColor=#ffffff;" vertex="1" parent="YBp6OHNmCgB0oo-ofbhE-781">
          <mxGeometry width="10" height="10" as="geometry" />
        </mxCell>
        <mxCell id="YBp6OHNmCgB0oo-ofbhE-783" style="edgeStyle=none;rounded=0;orthogonalLoop=1;jettySize=auto;html=1;exitX=1;exitY=1;exitDx=0;exitDy=0;fontSize=22;strokeColor=none;" edge="1" parent="YBp6OHNmCgB0oo-ofbhE-781" source="YBp6OHNmCgB0oo-ofbhE-782" target="YBp6OHNmCgB0oo-ofbhE-782">
          <mxGeometry relative="1" as="geometry" />
        </mxCell>
        <mxCell id="YBp6OHNmCgB0oo-ofbhE-784" value="" style="rounded=0;whiteSpace=wrap;html=1;fontSize=22;strokeColor=#432D57;fillColor=#76608a;fontColor=#ffffff;" vertex="1" parent="YBp6OHNmCgB0oo-ofbhE-781">
          <mxGeometry x="10" width="10" height="10" as="geometry" />
        </mxCell>
        <mxCell id="YBp6OHNmCgB0oo-ofbhE-785" value="" style="rounded=0;whiteSpace=wrap;html=1;fontSize=22;strokeColor=#2D7600;fillColor=#60a917;fontColor=#ffffff;" vertex="1" parent="YBp6OHNmCgB0oo-ofbhE-781">
          <mxGeometry x="20" width="10" height="10" as="geometry" />
        </mxCell>
        <mxCell id="YBp6OHNmCgB0oo-ofbhE-786" value="" style="rounded=0;whiteSpace=wrap;html=1;fontSize=22;strokeColor=#432D57;fillColor=#76608a;fontColor=#ffffff;" vertex="1" parent="YBp6OHNmCgB0oo-ofbhE-781">
          <mxGeometry x="30" width="10" height="10" as="geometry" />
        </mxCell>
        <mxCell id="YBp6OHNmCgB0oo-ofbhE-787" value="&lt;i&gt;UCP&lt;/i&gt;" style="text;html=1;strokeColor=none;fillColor=none;align=center;verticalAlign=middle;whiteSpace=wrap;rounded=0;fontFamily=Times New Roman;" vertex="1" parent="1">
          <mxGeometry x="510.62999999999994" y="465.66" width="70" height="21.65" as="geometry" />
        </mxCell>
        <mxCell id="YBp6OHNmCgB0oo-ofbhE-788" value="&lt;font face=&quot;Helvetica&quot; color=&quot;#000000&quot;&gt;权益券特征&lt;/font&gt;" style="text;whiteSpace=wrap;html=1;fontFamily=Times New Roman;fontColor=#FF0000;align=center;" vertex="1" parent="1">
          <mxGeometry x="508.76000000000005" y="777.8" width="93.75" height="29.17" as="geometry" />
        </mxCell>
        <mxCell id="YBp6OHNmCgB0oo-ofbhE-789" value="" style="shape=sumEllipse;perimeter=ellipsePerimeter;whiteSpace=wrap;html=1;backgroundOutline=1;strokeColor=#000000;fontFamily=Times New Roman;fontColor=#000000;" vertex="1" parent="1">
          <mxGeometry x="608.5" y="80" width="20" height="20" as="geometry" />
        </mxCell>
        <mxCell id="YBp6OHNmCgB0oo-ofbhE-790" style="rounded=0;orthogonalLoop=1;jettySize=auto;html=1;exitX=0;exitY=0;exitDx=0;exitDy=0;fontFamily=Times New Roman;fontColor=#000000;" edge="1" parent="1" source="YBp6OHNmCgB0oo-ofbhE-469">
          <mxGeometry relative="1" as="geometry">
            <mxPoint x="744" y="330" as="targetPoint" />
          </mxGeometry>
        </mxCell>
        <mxCell id="YBp6OHNmCgB0oo-ofbhE-791" style="rounded=0;orthogonalLoop=1;jettySize=auto;html=1;entryX=0.28;entryY=1.059;entryDx=0;entryDy=0;entryPerimeter=0;fontFamily=Times New Roman;fontColor=#000000;" edge="1" parent="1">
          <mxGeometry relative="1" as="geometry">
            <mxPoint x="360" y="350" as="sourcePoint" />
            <mxPoint x="360" y="329.99999999999994" as="targetPoint" />
          </mxGeometry>
        </mxCell>
        <mxCell id="YBp6OHNmCgB0oo-ofbhE-792" style="rounded=0;orthogonalLoop=1;jettySize=auto;html=1;entryX=0.28;entryY=1.059;entryDx=0;entryDy=0;entryPerimeter=0;fontFamily=Times New Roman;fontColor=#000000;" edge="1" parent="1">
          <mxGeometry relative="1" as="geometry">
            <mxPoint x="270" y="350" as="sourcePoint" />
            <mxPoint x="270" y="330" as="targetPoint" />
          </mxGeometry>
        </mxCell>
        <mxCell id="YBp6OHNmCgB0oo-ofbhE-793" value="" style="endArrow=classic;html=1;rounded=0;fontFamily=Georgia;fontSize=11;strokeColor=#000000;exitX=0.5;exitY=0;exitDx=0;exitDy=0;entryX=0.547;entryY=0.143;entryDx=0;entryDy=0;entryPerimeter=0;" edge="1" parent="1">
          <mxGeometry width="50" height="50" relative="1" as="geometry">
            <mxPoint x="727.2599999999999" y="595.0000000000001" as="sourcePoint" />
            <mxPoint x="727.0000000000001" y="580.9399999999999" as="targetPoint" />
          </mxGeometry>
        </mxCell>
        <mxCell id="YBp6OHNmCgB0oo-ofbhE-794" value="" style="shape=curlyBracket;whiteSpace=wrap;html=1;rounded=1;flipH=1;fontSize=22;strokeColor=#000000;fillColor=#000000;rotation=-90;size=0.5;" vertex="1" parent="1">
          <mxGeometry x="1200" y="618.8800000000001" width="20" height="50" as="geometry" />
        </mxCell>
        <mxCell id="YBp6OHNmCgB0oo-ofbhE-795" value="&lt;font style=&quot;font-size: 11px;&quot;&gt;concat&lt;/font&gt;" style="rounded=1;whiteSpace=wrap;html=1;fontSize=11;strokeColor=#000000;fillColor=none;" vertex="1" parent="1">
          <mxGeometry x="1187.5" y="608.8800000000001" width="45" height="20" as="geometry" />
        </mxCell>
        <mxCell id="YBp6OHNmCgB0oo-ofbhE-796" value="" style="group" vertex="1" connectable="0" parent="1">
          <mxGeometry x="1192.5" y="585.8800000000001" width="40" height="10" as="geometry" />
        </mxCell>
        <mxCell id="YBp6OHNmCgB0oo-ofbhE-797" value="" style="rounded=0;whiteSpace=wrap;html=1;fontSize=22;strokeColor=none;fillColor=#CDA2BE;" vertex="1" parent="YBp6OHNmCgB0oo-ofbhE-796">
          <mxGeometry width="10" height="10" as="geometry" />
        </mxCell>
        <mxCell id="YBp6OHNmCgB0oo-ofbhE-798" style="edgeStyle=none;rounded=0;orthogonalLoop=1;jettySize=auto;html=1;exitX=1;exitY=1;exitDx=0;exitDy=0;fontSize=22;strokeColor=none;" edge="1" parent="YBp6OHNmCgB0oo-ofbhE-796" source="YBp6OHNmCgB0oo-ofbhE-797" target="YBp6OHNmCgB0oo-ofbhE-797">
          <mxGeometry relative="1" as="geometry" />
        </mxCell>
        <mxCell id="YBp6OHNmCgB0oo-ofbhE-799" value="" style="rounded=0;whiteSpace=wrap;html=1;fontSize=22;strokeColor=none;fillColor=#FFCE9F;" vertex="1" parent="YBp6OHNmCgB0oo-ofbhE-796">
          <mxGeometry x="10" width="10" height="10" as="geometry" />
        </mxCell>
        <mxCell id="YBp6OHNmCgB0oo-ofbhE-800" value="" style="rounded=0;whiteSpace=wrap;html=1;fontSize=22;strokeColor=none;fillColor=#CDA2BE;" vertex="1" parent="YBp6OHNmCgB0oo-ofbhE-796">
          <mxGeometry x="20" width="10" height="10" as="geometry" />
        </mxCell>
        <mxCell id="YBp6OHNmCgB0oo-ofbhE-801" value="" style="rounded=0;whiteSpace=wrap;html=1;fontSize=22;strokeColor=none;fillColor=#FFCE9F;" vertex="1" parent="YBp6OHNmCgB0oo-ofbhE-796">
          <mxGeometry x="30" width="10" height="10" as="geometry" />
        </mxCell>
        <mxCell id="YBp6OHNmCgB0oo-ofbhE-802" value="" style="rounded=0;whiteSpace=wrap;html=1;fontSize=22;strokeColor=none;fillColor=#CDA2BE;" vertex="1" parent="1">
          <mxGeometry x="1195" y="653.8800000000001" width="10" height="10" as="geometry" />
        </mxCell>
        <mxCell id="YBp6OHNmCgB0oo-ofbhE-803" value="" style="rounded=0;whiteSpace=wrap;html=1;fontSize=22;strokeColor=none;fillColor=#E6D0DE;" vertex="1" parent="1">
          <mxGeometry x="1195" y="663.8800000000001" width="10" height="10" as="geometry" />
        </mxCell>
        <mxCell id="YBp6OHNmCgB0oo-ofbhE-804" value="" style="rounded=0;whiteSpace=wrap;html=1;fontSize=22;strokeColor=none;fillColor=#CDA2BE;" vertex="1" parent="1">
          <mxGeometry x="1195" y="673.8800000000001" width="10" height="10" as="geometry" />
        </mxCell>
        <mxCell id="YBp6OHNmCgB0oo-ofbhE-805" value="" style="rounded=0;whiteSpace=wrap;html=1;fontSize=22;strokeColor=none;fillColor=#E6D0DE;" vertex="1" parent="1">
          <mxGeometry x="1195" y="683.8800000000001" width="10" height="10" as="geometry" />
        </mxCell>
        <mxCell id="YBp6OHNmCgB0oo-ofbhE-806" value="" style="rounded=0;whiteSpace=wrap;html=1;fontSize=22;strokeColor=none;fillColor=#FFB570;" vertex="1" parent="1">
          <mxGeometry x="1215" y="653.8800000000001" width="10" height="10" as="geometry" />
        </mxCell>
        <mxCell id="YBp6OHNmCgB0oo-ofbhE-807" value="" style="rounded=0;whiteSpace=wrap;html=1;fontSize=22;strokeColor=none;fillColor=#FFCE9F;" vertex="1" parent="1">
          <mxGeometry x="1215" y="663.8800000000001" width="10" height="10" as="geometry" />
        </mxCell>
        <mxCell id="YBp6OHNmCgB0oo-ofbhE-808" value="" style="rounded=0;whiteSpace=wrap;html=1;fontSize=22;strokeColor=none;fillColor=#FFB570;" vertex="1" parent="1">
          <mxGeometry x="1215" y="673.8800000000001" width="10" height="15" as="geometry" />
        </mxCell>
        <mxCell id="YBp6OHNmCgB0oo-ofbhE-809" value="" style="rounded=0;whiteSpace=wrap;html=1;fontSize=22;strokeColor=none;fillColor=#FFCE9F;" vertex="1" parent="1">
          <mxGeometry x="1215" y="683.8800000000001" width="10" height="10" as="geometry" />
        </mxCell>
        <mxCell id="YBp6OHNmCgB0oo-ofbhE-810" value="" style="ellipse;whiteSpace=wrap;html=1;aspect=fixed;fontSize=11;strokeColor=#000000;fillColor=none;" vertex="1" parent="1">
          <mxGeometry x="1195" y="718.8800000000001" width="10" height="10" as="geometry" />
        </mxCell>
        <mxCell id="YBp6OHNmCgB0oo-ofbhE-811" value="" style="ellipse;whiteSpace=wrap;html=1;aspect=fixed;fontSize=11;strokeColor=#000000;fillColor=none;" vertex="1" parent="1">
          <mxGeometry x="1215" y="718.8800000000001" width="10" height="10" as="geometry" />
        </mxCell>
        <mxCell id="YBp6OHNmCgB0oo-ofbhE-812" value="" style="endArrow=classic;html=1;rounded=0;fontSize=11;exitX=0.5;exitY=0;exitDx=0;exitDy=0;entryX=0.5;entryY=1;entryDx=0;entryDy=0;" edge="1" parent="1" source="YBp6OHNmCgB0oo-ofbhE-810" target="YBp6OHNmCgB0oo-ofbhE-805">
          <mxGeometry width="50" height="50" relative="1" as="geometry">
            <mxPoint x="1165" y="628.8800000000001" as="sourcePoint" />
            <mxPoint x="1215" y="578.8800000000001" as="targetPoint" />
          </mxGeometry>
        </mxCell>
        <mxCell id="YBp6OHNmCgB0oo-ofbhE-813" value="" style="endArrow=classic;html=1;rounded=0;fontSize=11;exitX=0.5;exitY=0;exitDx=0;exitDy=0;entryX=0.5;entryY=1;entryDx=0;entryDy=0;" edge="1" parent="1" source="YBp6OHNmCgB0oo-ofbhE-811" target="YBp6OHNmCgB0oo-ofbhE-809">
          <mxGeometry width="50" height="50" relative="1" as="geometry">
            <mxPoint x="1219.82" y="718.8800000000001" as="sourcePoint" />
            <mxPoint x="1219.82" y="693.8800000000001" as="targetPoint" />
          </mxGeometry>
        </mxCell>
        <mxCell id="YBp6OHNmCgB0oo-ofbhE-814" value="Item&lt;br&gt;Features" style="text;html=1;strokeColor=none;fillColor=none;align=center;verticalAlign=middle;whiteSpace=wrap;rounded=0;fontSize=11;" vertex="1" parent="1">
          <mxGeometry x="1180" y="733.8800000000001" width="65" height="30" as="geometry" />
        </mxCell>
        <mxCell id="YBp6OHNmCgB0oo-ofbhE-815" value="" style="group" vertex="1" connectable="0" parent="1">
          <mxGeometry x="920.0023076923077" y="610.8299999999999" width="40" height="44.57142857142857" as="geometry" />
        </mxCell>
        <mxCell id="YBp6OHNmCgB0oo-ofbhE-816" value="" style="shape=curlyBracket;whiteSpace=wrap;html=1;rounded=1;flipH=1;fontSize=22;strokeColor=#000000;fillColor=#000000;rotation=-90;size=0.5;" vertex="1" parent="YBp6OHNmCgB0oo-ofbhE-815">
          <mxGeometry x="18.076923076923077" y="36.62142857142857" width="10.769230769230768" height="34.285714285714285" as="geometry" />
        </mxCell>
        <mxCell id="YBp6OHNmCgB0oo-ofbhE-817" value="&lt;font style=&quot;font-size: 11px;&quot;&gt;concat&lt;/font&gt;" style="rounded=1;whiteSpace=wrap;html=1;fontSize=11;strokeColor=#000000;fillColor=none;" vertex="1" parent="YBp6OHNmCgB0oo-ofbhE-815">
          <mxGeometry x="4.14" y="36.05" width="38.65" height="10.43" as="geometry" />
        </mxCell>
        <mxCell id="YBp6OHNmCgB0oo-ofbhE-818" value="" style="rounded=0;whiteSpace=wrap;html=1;fontSize=22;strokeColor=none;fillColor=#CDA2BE;" vertex="1" parent="1">
          <mxGeometry x="935.386923076923" y="671.4514285714286" width="5.384615384615384" height="6.857142857142857" as="geometry" />
        </mxCell>
        <mxCell id="YBp6OHNmCgB0oo-ofbhE-819" value="" style="rounded=0;whiteSpace=wrap;html=1;fontSize=22;strokeColor=none;fillColor=#E6D0DE;" vertex="1" parent="1">
          <mxGeometry x="935.386923076923" y="678.3085714285713" width="5.384615384615384" height="6.857142857142857" as="geometry" />
        </mxCell>
        <mxCell id="YBp6OHNmCgB0oo-ofbhE-820" value="" style="rounded=0;whiteSpace=wrap;html=1;fontSize=22;strokeColor=none;fillColor=#CDA2BE;" vertex="1" parent="1">
          <mxGeometry x="935.386923076923" y="685.1657142857142" width="5.384615384615384" height="6.857142857142857" as="geometry" />
        </mxCell>
        <mxCell id="YBp6OHNmCgB0oo-ofbhE-821" value="" style="rounded=0;whiteSpace=wrap;html=1;fontSize=22;strokeColor=none;fillColor=#E6D0DE;" vertex="1" parent="1">
          <mxGeometry x="935.386923076923" y="692.0228571428571" width="5.384615384615384" height="6.857142857142857" as="geometry" />
        </mxCell>
        <mxCell id="YBp6OHNmCgB0oo-ofbhE-822" value="" style="rounded=0;whiteSpace=wrap;html=1;fontSize=22;strokeColor=none;fillColor=#FFB570;" vertex="1" parent="1">
          <mxGeometry x="947.3061538461538" y="671.4514285714286" width="5.384615384615384" height="6.857142857142857" as="geometry" />
        </mxCell>
        <mxCell id="YBp6OHNmCgB0oo-ofbhE-823" value="" style="rounded=0;whiteSpace=wrap;html=1;fontSize=22;strokeColor=none;fillColor=#FFCE9F;" vertex="1" parent="1">
          <mxGeometry x="947.3061538461538" y="678.3085714285713" width="5.384615384615384" height="6.857142857142857" as="geometry" />
        </mxCell>
        <mxCell id="YBp6OHNmCgB0oo-ofbhE-824" value="" style="rounded=0;whiteSpace=wrap;html=1;fontSize=22;strokeColor=none;fillColor=#FFB570;" vertex="1" parent="1">
          <mxGeometry x="947.3061538461538" y="685.1657142857142" width="5.384615384615384" height="10.285714285714285" as="geometry" />
        </mxCell>
        <mxCell id="YBp6OHNmCgB0oo-ofbhE-825" value="" style="rounded=0;whiteSpace=wrap;html=1;fontSize=22;strokeColor=none;fillColor=#FFCE9F;" vertex="1" parent="1">
          <mxGeometry x="947.3061538461538" y="692.0228571428571" width="5.384615384615384" height="6.857142857142857" as="geometry" />
        </mxCell>
        <mxCell id="YBp6OHNmCgB0oo-ofbhE-826" value="" style="ellipse;whiteSpace=wrap;html=1;aspect=fixed;fontSize=11;strokeColor=#000000;fillColor=none;" vertex="1" parent="1">
          <mxGeometry x="935.386923076923" y="716.0228571428571" width="4.615384615384615" height="4.615384615384615" as="geometry" />
        </mxCell>
        <mxCell id="YBp6OHNmCgB0oo-ofbhE-827" value="" style="ellipse;whiteSpace=wrap;html=1;aspect=fixed;fontSize=11;strokeColor=#000000;fillColor=none;" vertex="1" parent="1">
          <mxGeometry x="947.3061538461538" y="716.0228571428571" width="4.615384615384615" height="4.615384615384615" as="geometry" />
        </mxCell>
        <mxCell id="YBp6OHNmCgB0oo-ofbhE-828" value="" style="endArrow=classic;html=1;rounded=0;fontSize=11;exitX=0.5;exitY=0;exitDx=0;exitDy=0;entryX=0.5;entryY=1;entryDx=0;entryDy=0;" edge="1" parent="1" source="YBp6OHNmCgB0oo-ofbhE-826" target="YBp6OHNmCgB0oo-ofbhE-821">
          <mxGeometry width="50" height="50" relative="1" as="geometry">
            <mxPoint x="604.233076923077" y="441.73714285714277" as="sourcePoint" />
            <mxPoint x="631.1561538461539" y="407.45142857142855" as="targetPoint" />
          </mxGeometry>
        </mxCell>
        <mxCell id="YBp6OHNmCgB0oo-ofbhE-829" value="" style="endArrow=classic;html=1;rounded=0;fontSize=11;exitX=0.5;exitY=0;exitDx=0;exitDy=0;entryX=0.5;entryY=1;entryDx=0;entryDy=0;" edge="1" parent="1" source="YBp6OHNmCgB0oo-ofbhE-827" target="YBp6OHNmCgB0oo-ofbhE-825">
          <mxGeometry width="50" height="50" relative="1" as="geometry">
            <mxPoint x="634.9015384615384" y="503.4514285714285" as="sourcePoint" />
            <mxPoint x="634.9015384615384" y="486.3085714285714" as="targetPoint" />
          </mxGeometry>
        </mxCell>
        <mxCell id="YBp6OHNmCgB0oo-ofbhE-830" value="&lt;font style=&quot;font-size: 9px;&quot; face=&quot;Georgia&quot;&gt;&lt;i&gt;Item &lt;sub&gt;s1&lt;/sub&gt;&lt;/i&gt;&lt;/font&gt;" style="text;html=1;strokeColor=none;fillColor=none;align=center;verticalAlign=middle;whiteSpace=wrap;rounded=0;fontSize=11;" vertex="1" parent="1">
          <mxGeometry x="910" y="716.02" width="60" height="20.57" as="geometry" />
        </mxCell>
        <mxCell id="YBp6OHNmCgB0oo-ofbhE-831" style="edgeStyle=orthogonalEdgeStyle;rounded=0;orthogonalLoop=1;jettySize=auto;html=1;exitX=0.5;exitY=0;exitDx=0;exitDy=0;entryX=1;entryY=0.5;entryDx=0;entryDy=0;fontFamily=Georgia;fontSize=11;" edge="1" parent="1" source="YBp6OHNmCgB0oo-ofbhE-832" target="YBp6OHNmCgB0oo-ofbhE-835">
          <mxGeometry relative="1" as="geometry">
            <Array as="points">
              <mxPoint x="954.31" y="600" />
            </Array>
            <mxPoint x="918.3100000000991" y="600.8299999999999" as="targetPoint" />
          </mxGeometry>
        </mxCell>
        <mxCell id="YBp6OHNmCgB0oo-ofbhE-832" value="&lt;font style=&quot;font-size: 10px;&quot;&gt;Activation&lt;br&gt;&lt;/font&gt;" style="rounded=1;whiteSpace=wrap;html=1;fontSize=11;strokeColor=#000000;fillColor=none;" vertex="1" parent="1">
          <mxGeometry x="925.3899999999999" y="610.8299999999999" width="57.92" height="10" as="geometry" />
        </mxCell>
        <mxCell id="YBp6OHNmCgB0oo-ofbhE-833" style="edgeStyle=none;rounded=0;orthogonalLoop=1;jettySize=auto;html=1;exitX=0.5;exitY=0;exitDx=0;exitDy=0;fontFamily=Georgia;fontSize=10;" edge="1" parent="1" source="YBp6OHNmCgB0oo-ofbhE-817">
          <mxGeometry relative="1" as="geometry">
            <mxPoint x="943.31" y="620.8300000000002" as="targetPoint" />
          </mxGeometry>
        </mxCell>
        <mxCell id="YBp6OHNmCgB0oo-ofbhE-834" style="edgeStyle=orthogonalEdgeStyle;rounded=0;orthogonalLoop=1;jettySize=auto;html=1;exitX=0;exitY=0.5;exitDx=0;exitDy=0;entryX=0.5;entryY=1;entryDx=0;entryDy=0;fontFamily=Georgia;fontSize=11;" edge="1" parent="1" source="YBp6OHNmCgB0oo-ofbhE-817" target="YBp6OHNmCgB0oo-ofbhE-835">
          <mxGeometry relative="1" as="geometry">
            <Array as="points">
              <mxPoint x="920.31" y="652" />
              <mxPoint x="920.31" y="605" />
            </Array>
            <mxPoint x="913.31" y="605.8299999999999" as="targetPoint" />
          </mxGeometry>
        </mxCell>
        <mxCell id="YBp6OHNmCgB0oo-ofbhE-835" value="" style="shape=sumEllipse;perimeter=ellipsePerimeter;whiteSpace=wrap;html=1;backgroundOutline=1;" vertex="1" parent="1">
          <mxGeometry x="915.39" y="595" width="10" height="10" as="geometry" />
        </mxCell>
        <mxCell id="YBp6OHNmCgB0oo-ofbhE-836" value="" style="endArrow=classic;html=1;rounded=0;fontFamily=Georgia;fontSize=11;strokeColor=#000000;exitX=0.5;exitY=0;exitDx=0;exitDy=0;entryX=0.547;entryY=0.143;entryDx=0;entryDy=0;entryPerimeter=0;" edge="1" parent="1">
          <mxGeometry width="50" height="50" relative="1" as="geometry">
            <mxPoint x="920.52" y="595" as="sourcePoint" />
            <mxPoint x="920.2599999999998" y="580.94" as="targetPoint" />
          </mxGeometry>
        </mxCell>
        <mxCell id="YBp6OHNmCgB0oo-ofbhE-837" value="" style="shape=curlyBracket;whiteSpace=wrap;html=1;rounded=1;flipH=1;fontSize=22;strokeColor=#000000;fillColor=#000000;rotation=-90;size=0.5;" vertex="1" parent="1">
          <mxGeometry x="1014" y="460" width="20" height="213.88" as="geometry" />
        </mxCell>
        <mxCell id="YBp6OHNmCgB0oo-ofbhE-838" value="" style="endArrow=classic;html=1;rounded=0;fontSize=11;entryX=0.646;entryY=1.11;entryDx=0;entryDy=0;entryPerimeter=0;" edge="1" parent="1" target="YBp6OHNmCgB0oo-ofbhE-477">
          <mxGeometry width="50" height="50" relative="1" as="geometry">
            <mxPoint x="1021" y="520" as="sourcePoint" />
            <mxPoint x="1021.18" y="335.82" as="targetPoint" />
          </mxGeometry>
        </mxCell>
        <mxCell id="YBp6OHNmCgB0oo-ofbhE-839" style="edgeStyle=orthogonalEdgeStyle;rounded=0;orthogonalLoop=1;jettySize=auto;html=1;exitX=0;exitY=0.5;exitDx=0;exitDy=0;entryX=0.5;entryY=1;entryDx=0;entryDy=0;" edge="1" parent="1" source="YBp6OHNmCgB0oo-ofbhE-640" target="YBp6OHNmCgB0oo-ofbhE-439">
          <mxGeometry relative="1" as="geometry">
            <Array as="points">
              <mxPoint x="728" y="652" />
              <mxPoint x="728" y="626" />
              <mxPoint x="728" y="626" />
            </Array>
          </mxGeometry>
        </mxCell>
        <mxCell id="YBp6OHNmCgB0oo-ofbhE-840" style="rounded=0;orthogonalLoop=1;jettySize=auto;html=1;exitX=0;exitY=0;exitDx=0;exitDy=0;entryX=0;entryY=0.5;entryDx=0;entryDy=0;fontFamily=Times New Roman;fontColor=#FF0000;" edge="1" parent="1" source="YBp6OHNmCgB0oo-ofbhE-782" target="YBp6OHNmCgB0oo-ofbhE-460">
          <mxGeometry relative="1" as="geometry">
            <mxPoint x="687.1389321881346" y="401.2210678118654" as="targetPoint" />
            <mxPoint x="621.5399999999998" y="436.6500000000001" as="sourcePoint" />
          </mxGeometry>
        </mxCell>
        <mxCell id="YBp6OHNmCgB0oo-ofbhE-841" value="" style="group" vertex="1" connectable="0" parent="1">
          <mxGeometry x="432.5" y="575.2899999999998" width="116.88" height="230.03000000000003" as="geometry" />
        </mxCell>
        <mxCell id="YBp6OHNmCgB0oo-ofbhE-842" value="&lt;font face=&quot;Helvetica&quot; color=&quot;#000000&quot;&gt;用户价格&lt;br&gt;偏好特征&lt;/font&gt;" style="text;whiteSpace=wrap;html=1;fontFamily=Times New Roman;fontColor=#FF0000;align=center;" vertex="1" parent="YBp6OHNmCgB0oo-ofbhE-841">
          <mxGeometry x="-16.660000000000004" y="193.31000000000006" width="116.88" height="29.17" as="geometry" />
        </mxCell>
        <mxCell id="YBp6OHNmCgB0oo-ofbhE-843" value="User Cost&lt;br&gt;Features" style="text;html=1;strokeColor=none;fillColor=none;align=center;verticalAlign=middle;whiteSpace=wrap;rounded=0;fontSize=11;" vertex="1" parent="YBp6OHNmCgB0oo-ofbhE-841">
          <mxGeometry x="11.559999999999945" y="163.31000000000006" width="65" height="30" as="geometry" />
        </mxCell>
        <mxCell id="YBp6OHNmCgB0oo-ofbhE-844" value="" style="group" vertex="1" connectable="0" parent="1">
          <mxGeometry x="450.94" y="569.7499999999999" width="50" height="165" as="geometry" />
        </mxCell>
        <mxCell id="YBp6OHNmCgB0oo-ofbhE-845" value="" style="group" vertex="1" connectable="0" parent="YBp6OHNmCgB0oo-ofbhE-844">
          <mxGeometry y="25" width="50" height="65" as="geometry" />
        </mxCell>
        <mxCell id="YBp6OHNmCgB0oo-ofbhE-846" value="" style="group" vertex="1" connectable="0" parent="YBp6OHNmCgB0oo-ofbhE-845">
          <mxGeometry x="5" width="40" height="10" as="geometry" />
        </mxCell>
        <mxCell id="YBp6OHNmCgB0oo-ofbhE-847" value="" style="rounded=0;whiteSpace=wrap;html=1;fontSize=22;strokeColor=none;fillColor=#000000;" vertex="1" parent="YBp6OHNmCgB0oo-ofbhE-846">
          <mxGeometry width="10" height="10" as="geometry" />
        </mxCell>
        <mxCell id="YBp6OHNmCgB0oo-ofbhE-848" style="edgeStyle=none;rounded=0;orthogonalLoop=1;jettySize=auto;html=1;exitX=1;exitY=1;exitDx=0;exitDy=0;fontSize=22;strokeColor=none;" edge="1" parent="YBp6OHNmCgB0oo-ofbhE-846" source="YBp6OHNmCgB0oo-ofbhE-847" target="YBp6OHNmCgB0oo-ofbhE-847">
          <mxGeometry relative="1" as="geometry" />
        </mxCell>
        <mxCell id="YBp6OHNmCgB0oo-ofbhE-849" value="" style="rounded=0;whiteSpace=wrap;html=1;fontSize=22;strokeColor=none;fillColor=#BFBFBF;" vertex="1" parent="YBp6OHNmCgB0oo-ofbhE-846">
          <mxGeometry x="10" width="10" height="10" as="geometry" />
        </mxCell>
        <mxCell id="YBp6OHNmCgB0oo-ofbhE-850" value="" style="rounded=0;whiteSpace=wrap;html=1;fontSize=22;strokeColor=none;fillColor=#000000;" vertex="1" parent="YBp6OHNmCgB0oo-ofbhE-846">
          <mxGeometry x="20" width="10" height="10" as="geometry" />
        </mxCell>
        <mxCell id="YBp6OHNmCgB0oo-ofbhE-851" value="" style="rounded=0;whiteSpace=wrap;html=1;fontSize=22;strokeColor=none;fillColor=#BFBFBF;" vertex="1" parent="YBp6OHNmCgB0oo-ofbhE-846">
          <mxGeometry x="30" width="10" height="10" as="geometry" />
        </mxCell>
        <mxCell id="YBp6OHNmCgB0oo-ofbhE-852" value="" style="shape=curlyBracket;whiteSpace=wrap;html=1;rounded=1;flipH=1;fontSize=22;strokeColor=#000000;fillColor=#000000;rotation=-90;size=0.5;" vertex="1" parent="YBp6OHNmCgB0oo-ofbhE-845">
          <mxGeometry x="15" y="30" width="20" height="50" as="geometry" />
        </mxCell>
        <mxCell id="YBp6OHNmCgB0oo-ofbhE-853" value="&lt;font style=&quot;font-size: 11px;&quot;&gt;concat&lt;/font&gt;" style="rounded=1;whiteSpace=wrap;html=1;fontSize=11;strokeColor=#000000;fillColor=none;" vertex="1" parent="YBp6OHNmCgB0oo-ofbhE-845">
          <mxGeometry x="2.5" y="20" width="45" height="20" as="geometry" />
        </mxCell>
        <mxCell id="YBp6OHNmCgB0oo-ofbhE-854" value="" style="rounded=0;whiteSpace=wrap;html=1;fontSize=22;strokeColor=none;fillColor=#000000;" vertex="1" parent="YBp6OHNmCgB0oo-ofbhE-844">
          <mxGeometry x="10" y="90" width="10" height="10" as="geometry" />
        </mxCell>
        <mxCell id="YBp6OHNmCgB0oo-ofbhE-855" value="" style="rounded=0;whiteSpace=wrap;html=1;fontSize=22;strokeColor=none;fillColor=#BFBFBF;" vertex="1" parent="YBp6OHNmCgB0oo-ofbhE-844">
          <mxGeometry x="10" y="100" width="10" height="10" as="geometry" />
        </mxCell>
        <mxCell id="YBp6OHNmCgB0oo-ofbhE-856" value="" style="rounded=0;whiteSpace=wrap;html=1;fontSize=22;strokeColor=none;fillColor=#000000;" vertex="1" parent="YBp6OHNmCgB0oo-ofbhE-844">
          <mxGeometry x="10" y="110" width="10" height="10" as="geometry" />
        </mxCell>
        <mxCell id="YBp6OHNmCgB0oo-ofbhE-857" value="" style="rounded=0;whiteSpace=wrap;html=1;fontSize=22;strokeColor=none;fillColor=#BFBFBF;" vertex="1" parent="YBp6OHNmCgB0oo-ofbhE-844">
          <mxGeometry x="10" y="120" width="10" height="10" as="geometry" />
        </mxCell>
        <mxCell id="YBp6OHNmCgB0oo-ofbhE-858" value="" style="rounded=0;whiteSpace=wrap;html=1;fontSize=22;strokeColor=none;fillColor=#000000;" vertex="1" parent="YBp6OHNmCgB0oo-ofbhE-844">
          <mxGeometry x="30" y="90" width="10" height="10" as="geometry" />
        </mxCell>
        <mxCell id="YBp6OHNmCgB0oo-ofbhE-859" value="" style="rounded=0;whiteSpace=wrap;html=1;fontSize=22;strokeColor=none;fillColor=#BFBFBF;" vertex="1" parent="YBp6OHNmCgB0oo-ofbhE-844">
          <mxGeometry x="30" y="100" width="10" height="10" as="geometry" />
        </mxCell>
        <mxCell id="YBp6OHNmCgB0oo-ofbhE-860" value="" style="rounded=0;whiteSpace=wrap;html=1;fontSize=22;strokeColor=none;fillColor=#000000;" vertex="1" parent="YBp6OHNmCgB0oo-ofbhE-844">
          <mxGeometry x="30" y="110" width="10" height="15" as="geometry" />
        </mxCell>
        <mxCell id="YBp6OHNmCgB0oo-ofbhE-861" value="" style="rounded=0;whiteSpace=wrap;html=1;fontSize=22;strokeColor=none;fillColor=#BFBFBF;" vertex="1" parent="YBp6OHNmCgB0oo-ofbhE-844">
          <mxGeometry x="30" y="120" width="10" height="10" as="geometry" />
        </mxCell>
        <mxCell id="YBp6OHNmCgB0oo-ofbhE-862" value="" style="ellipse;whiteSpace=wrap;html=1;aspect=fixed;fontSize=11;strokeColor=#000000;fillColor=none;" vertex="1" parent="YBp6OHNmCgB0oo-ofbhE-844">
          <mxGeometry x="10" y="155" width="10" height="10" as="geometry" />
        </mxCell>
        <mxCell id="YBp6OHNmCgB0oo-ofbhE-863" value="" style="ellipse;whiteSpace=wrap;html=1;aspect=fixed;fontSize=11;strokeColor=#000000;fillColor=none;" vertex="1" parent="YBp6OHNmCgB0oo-ofbhE-844">
          <mxGeometry x="30" y="155" width="10" height="10" as="geometry" />
        </mxCell>
        <mxCell id="YBp6OHNmCgB0oo-ofbhE-864" value="" style="endArrow=classic;html=1;rounded=0;fontSize=11;exitX=0.5;exitY=0;exitDx=0;exitDy=0;entryX=0.5;entryY=1;entryDx=0;entryDy=0;" edge="1" parent="YBp6OHNmCgB0oo-ofbhE-844" source="YBp6OHNmCgB0oo-ofbhE-862" target="YBp6OHNmCgB0oo-ofbhE-857">
          <mxGeometry width="50" height="50" relative="1" as="geometry">
            <mxPoint x="-20" y="65" as="sourcePoint" />
            <mxPoint x="30" y="15" as="targetPoint" />
          </mxGeometry>
        </mxCell>
        <mxCell id="YBp6OHNmCgB0oo-ofbhE-865" value="" style="endArrow=classic;html=1;rounded=0;fontSize=11;exitX=0.5;exitY=0;exitDx=0;exitDy=0;entryX=0.5;entryY=1;entryDx=0;entryDy=0;" edge="1" parent="YBp6OHNmCgB0oo-ofbhE-844" source="YBp6OHNmCgB0oo-ofbhE-863" target="YBp6OHNmCgB0oo-ofbhE-861">
          <mxGeometry width="50" height="50" relative="1" as="geometry">
            <mxPoint x="34.81999999999999" y="155" as="sourcePoint" />
            <mxPoint x="34.81999999999999" y="130" as="targetPoint" />
          </mxGeometry>
        </mxCell>
        <mxCell id="YBp6OHNmCgB0oo-ofbhE-866" value="" style="endArrow=classic;html=1;rounded=0;fontSize=11;exitX=0.5;exitY=0;exitDx=0;exitDy=0;entryX=0.5;entryY=1;entryDx=0;entryDy=0;" edge="1" parent="YBp6OHNmCgB0oo-ofbhE-844">
          <mxGeometry width="50" height="50" relative="1" as="geometry">
            <mxPoint x="24.849999999999966" y="25" as="sourcePoint" />
            <mxPoint x="24.849999999999966" as="targetPoint" />
          </mxGeometry>
        </mxCell>
        <mxCell id="YBp6OHNmCgB0oo-ofbhE-867" style="edgeStyle=orthogonalEdgeStyle;rounded=0;orthogonalLoop=1;jettySize=auto;html=1;exitX=0.5;exitY=0;exitDx=0;exitDy=0;entryX=0.5;entryY=1;entryDx=0;entryDy=0;" edge="1" parent="1" source="YBp6OHNmCgB0oo-ofbhE-868" target="YBp6OHNmCgB0oo-ofbhE-870">
          <mxGeometry relative="1" as="geometry" />
        </mxCell>
        <mxCell id="YBp6OHNmCgB0oo-ofbhE-868" value="Cost Features Embedding" style="rounded=0;whiteSpace=wrap;html=1;strokeColor=#000000;" vertex="1" parent="1">
          <mxGeometry x="432.5" y="547.8" width="160" height="20" as="geometry" />
        </mxCell>
        <mxCell id="YBp6OHNmCgB0oo-ofbhE-869" style="edgeStyle=orthogonalEdgeStyle;rounded=0;orthogonalLoop=1;jettySize=auto;html=1;exitX=0.5;exitY=0;exitDx=0;exitDy=0;entryX=0;entryY=1;entryDx=0;entryDy=0;" edge="1" parent="1" source="YBp6OHNmCgB0oo-ofbhE-870" target="YBp6OHNmCgB0oo-ofbhE-782">
          <mxGeometry relative="1" as="geometry">
            <mxPoint x="515.31" y="459.18" as="targetPoint" />
          </mxGeometry>
        </mxCell>
        <mxCell id="YBp6OHNmCgB0oo-ofbhE-870" value="MLP Layer" style="rounded=0;whiteSpace=wrap;html=1;fillColor=#f5f5f5;strokeColor=#666666;fontColor=#333333;" vertex="1" parent="1">
          <mxGeometry x="436.15999999999997" y="489.75000000000017" width="160" height="20" as="geometry" />
        </mxCell>
        <mxCell id="YBp6OHNmCgB0oo-ofbhE-871" value="&lt;i&gt;&lt;font face=&quot;Times New Roman&quot;&gt;E&lt;sub&gt;c-s&lt;/sub&gt;&lt;/font&gt;&lt;/i&gt;" style="text;html=1;strokeColor=none;fillColor=none;align=center;verticalAlign=middle;whiteSpace=wrap;rounded=0;" vertex="1" parent="1">
          <mxGeometry x="750.69" y="479.81" width="60" height="14.18" as="geometry" />
        </mxCell>
        <mxCell id="YBp6OHNmCgB0oo-ofbhE-872" value="&lt;div style=&quot;text-align: center;&quot;&gt;&lt;font color=&quot;#ff8000&quot;&gt;&lt;span style=&quot;font-size: 12px;&quot;&gt;用户权益兴趣预测网络&lt;/span&gt;&lt;/font&gt;&lt;/div&gt;" style="text;whiteSpace=wrap;html=1;fontSize=14;" vertex="1" parent="1">
          <mxGeometry x="449.44" y="806.97" width="129.06" height="40" as="geometry" />
        </mxCell>
      </root>
    </mxGraphModel>
  </diagram>
</mxfile>
